<svg width="93" height="93" viewBox="0 0 93 93" fill="none" xmlns="http://www.w3.org/2000/svg">
<g id="Frame 1597882695">
<g id="Group">
<path id="Vector 921" d="M16.3165 23.9922C28.5153 32.1247 43.7141 56.2571 40.5175 75.363C38.3131 88.5391 18.2978 90.2068 16.0336 77.0409C13.2116 60.6319 29.281 39.9142 49.398 40.8642C60.4336 41.3853 69.9958 49.4819 74.3945 59.6164C77.3977 66.5356 78.5569 74.8376 74.1876 82.7818" stroke="#1F1F1F" stroke-width="10.3086" stroke-linecap="round"/>
<path id="Ellipse 8579" d="M66.2782 16.644C66.2782 22.9291 61.183 28.0243 54.8979 28.0243C48.6127 28.0243 43.5176 22.9291 43.5176 16.644C43.5176 10.3588 48.6127 5.26368 54.8979 5.26368C61.183 5.26368 66.2782 10.3588 66.2782 16.644Z" stroke="#1F1F1F" stroke-width="10.3086"/>
</g>
</g>
</svg>
