<svg width="230" height="230" viewBox="0 0 230 230" fill="none" xmlns="http://www.w3.org/2000/svg">
<g id="Frame 1597882695">
<g id="Group">
<path id="Vector 921" d="M40.4505 59.2109C74.8929 82.1724 118.982 156.584 94.3606 205.439C85.029 223.955 58.0805 226.598 46.8561 209.164C26.0088 176.784 48.7529 127.05 87.4219 108.38C133.748 86.0141 195.638 131.53 190.791 182.743C190.093 190.12 187.959 197.598 183.915 204.952" stroke="white" stroke-width="18" stroke-linecap="round"/>
<path id="Ellipse 8579" d="M168.085 40.9898C168.085 58.6572 153.763 72.9795 136.095 72.9795C118.428 72.9795 104.105 58.6572 104.105 40.9898C104.105 23.3223 118.428 9 136.095 9C153.763 9 168.085 23.3223 168.085 40.9898Z" stroke="white" stroke-width="18"/>
</g>
</g>
</svg>
