<svg width="92" height="72" viewBox="0 0 92 72" fill="none" xmlns="http://www.w3.org/2000/svg">
<path d="M57.4155 13.3328L58.1897 16.383L81.3521 29.3765L85.1108 23.2257C86.7127 20.6045 87.5118 17.5715 87.4095 14.5013L87.2202 8.82308C87.0916 4.96365 84.3576 1.68485 80.5842 0.864536C77.2034 0.129578 74.0079 2.705 74.0079 6.16477V12.19C74.0079 12.3879 73.7406 12.45 73.6533 12.2725L71.6042 8.10708C67.5741 -0.0851822 55.1691 4.48359 57.4155 13.3328Z" fill="#F9FA6F" stroke="black" stroke-width="1.12987" stroke-linecap="square"/>
<circle cx="55.9289" cy="42.3703" r="28.2468" fill="#F9FA6F" stroke="black" stroke-width="1.12987"/>
<g clip-path="url(#clip0_10_18591)">
<circle cx="79.3524" cy="42.6727" r="11.5247" fill="white" stroke="black" stroke-width="1.28052"/>
<circle cx="86.3941" cy="39.4722" r="7.68312" fill="black"/>
</g>
<g clip-path="url(#clip1_10_18591)">
<circle cx="65.2665" cy="42.6727" r="11.5247" fill="white" stroke="black" stroke-width="1.28052"/>
<circle cx="71.0269" cy="39.4722" r="7.68312" fill="black"/>
</g>
<path d="M36.1168 45.9676C36.2326 45.6779 36.0917 45.3492 35.802 45.2333C35.5124 45.1174 35.1836 45.2583 35.0677 45.548L36.1168 45.9676ZM30.9779 55.6751C32.5053 53.3839 35.1979 48.2649 36.1168 45.9676L35.0677 45.548C34.1788 47.7702 31.5233 52.8201 30.0378 55.0483L30.9779 55.6751Z" fill="black"/>
<path d="M40.244 30.3067C40.4455 30.5449 40.802 30.5746 41.0401 30.3731C41.2783 30.1715 41.308 29.8151 41.1065 29.5769L40.244 30.3067ZM34.0297 22.9626L40.244 30.3067L41.1065 29.5769L34.8922 22.2327L34.0297 22.9626Z" fill="black"/>
<path d="M8.19156 17.5115H13.0129C13.2142 17.5115 13.315 17.2681 13.1727 17.1258L7.144 11.0971C4.50768 8.46081 6.37483 3.95312 10.1031 3.95312C15.8545 3.95312 21.2905 6.58128 24.8625 11.0889L31.0714 18.9239L35.026 23.1609C30.6948 27.4921 23.2753 40.3349 30.5065 54.7972C30.1691 55.8094 29.2219 56.4921 28.1551 56.4921H25.9189C22.8364 56.4921 20.3377 53.9933 20.3377 50.9109V43.3986C20.3377 43.227 20.1302 43.1411 20.0089 43.2624L16.6436 46.6277C13.831 49.4403 9.17435 49.0895 6.81479 45.8873C4.86111 43.2358 5.19931 39.5422 7.60202 37.2897L12.0481 33.1215C12.1845 32.9936 12.094 32.7648 11.9071 32.7648H8.19156C3.97949 32.7648 0.564935 29.3502 0.564935 25.1382C0.564935 20.9261 3.97949 17.5115 8.19156 17.5115Z" fill="#F9FA6F" stroke="black" stroke-width="1.12987"/>
<path d="M35.0228 24.2939L33.893 23.1641L27.1137 25.4238C26.1722 28.6251 24.2891 35.1407 24.2891 35.5926C24.2891 36.0446 26.5488 48.9628 27.6787 55.3654H29.3735L31.0683 53.1056V49.716L35.0228 24.2939Z" fill="#F9FA6F"/>
<defs>
<clipPath id="clip0_10_18591">
<rect x="67.1875" y="30.5078" width="24.3299" height="24.3299" rx="12.1649" fill="white"/>
</clipPath>
<clipPath id="clip1_10_18591">
<rect x="53.1016" y="30.5078" width="24.3299" height="24.3299" rx="12.1649" fill="white"/>
</clipPath>
</defs>
</svg>
