<svg width="567" height="342" viewBox="0 0 567 342" fill="none" xmlns="http://www.w3.org/2000/svg">
<rect width="567" height="326" rx="20" fill="#F7F8FA"/>
<rect x="24" y="32" width="42" height="42" rx="2.8" fill="#1D0F74"/>
<path d="M44.1717 54.7182H46.5899L48.2922 56.9375L49.0956 57.9239L51.8081 61.4636H49.2945L47.4808 59.1011L46.8604 58.242L44.1717 54.7182ZM52.3331 51.8545C52.3331 53.5939 52.0149 55.0894 51.3786 56.3409C50.7422 57.5871 49.8698 58.547 48.7615 59.2205C47.6585 59.8886 46.4043 60.2227 44.999 60.2227C43.5884 60.2227 42.3289 59.8886 41.2206 59.2205C40.1176 58.547 39.2479 57.5845 38.6115 56.333C37.9751 55.0814 37.657 53.5886 37.657 51.8545C37.657 50.1152 37.9751 48.6223 38.6115 47.3761C39.2479 46.1246 40.1176 45.1648 41.2206 44.4966C42.3289 43.8231 43.5884 43.4864 44.999 43.4864C46.4043 43.4864 47.6585 43.8231 48.7615 44.4966C49.8698 45.1648 50.7422 46.1246 51.3786 47.3761C52.0149 48.6223 52.3331 50.1152 52.3331 51.8545ZM49.899 51.8545C49.899 50.5288 49.6842 49.4125 49.2547 48.5057C48.8304 47.5936 48.2471 46.9042 47.5047 46.4375C46.7676 45.9655 45.9323 45.7295 44.999 45.7295C44.0604 45.7295 43.2225 45.9655 42.4854 46.4375C41.7482 46.9042 41.1649 47.5936 40.7354 48.5057C40.3111 49.4125 40.099 50.5288 40.099 51.8545C40.099 53.1803 40.3111 54.2992 40.7354 55.2114C41.1649 56.1182 41.7482 56.8076 42.4854 57.2795C43.2225 57.7462 44.0604 57.9795 44.999 57.9795C45.9323 57.9795 46.7676 57.7462 47.5047 57.2795C48.2471 56.8076 48.8304 56.1182 49.2547 55.2114C49.6842 54.2992 49.899 53.1803 49.899 51.8545Z" fill="white"/>
<path d="M95.3352 55L90.4943 37.5455H93.2642L96.6648 51.0625H96.8267L100.364 37.5455H103.108L106.645 51.071H106.807L110.199 37.5455H112.977L108.128 55H105.477L101.804 41.9261H101.668L97.9943 55H95.3352ZM117.722 47.2273V55H115.174V37.5455H117.688V44.0398H117.85C118.157 43.3352 118.626 42.7756 119.256 42.3608C119.887 41.946 120.711 41.7386 121.728 41.7386C122.626 41.7386 123.41 41.9233 124.08 42.2926C124.756 42.6619 125.279 43.2131 125.648 43.946C126.023 44.6733 126.211 45.5824 126.211 46.6733V55H123.663V46.9801C123.663 46.0199 123.415 45.2756 122.921 44.7472C122.427 44.2131 121.739 43.946 120.859 43.946C120.256 43.946 119.717 44.0739 119.239 44.3295C118.768 44.5852 118.396 44.9602 118.123 45.4545C117.856 45.9432 117.722 46.5341 117.722 47.2273ZM133.421 55.2898C132.592 55.2898 131.842 55.1364 131.171 54.8295C130.501 54.517 129.969 54.0653 129.577 53.4744C129.191 52.8835 128.998 52.1591 128.998 51.3011C128.998 50.5625 129.14 49.9545 129.424 49.4773C129.708 49 130.092 48.6222 130.575 48.3438C131.058 48.0653 131.597 47.8551 132.194 47.7131C132.79 47.571 133.398 47.4631 134.018 47.3892C134.802 47.2983 135.438 47.2244 135.927 47.1676C136.415 47.1051 136.771 47.0057 136.992 46.8693C137.214 46.733 137.325 46.5114 137.325 46.2045V46.1449C137.325 45.4006 137.114 44.8239 136.694 44.4148C136.279 44.0057 135.66 43.8011 134.836 43.8011C133.978 43.8011 133.302 43.9915 132.808 44.3722C132.319 44.7472 131.981 45.1648 131.793 45.625L129.398 45.0795C129.683 44.2841 130.097 43.642 130.643 43.1534C131.194 42.6591 131.827 42.3011 132.543 42.0795C133.259 41.8523 134.012 41.7386 134.802 41.7386C135.325 41.7386 135.879 41.8011 136.464 41.9261C137.055 42.0455 137.606 42.267 138.117 42.5909C138.634 42.9148 139.058 43.3778 139.387 43.9801C139.717 44.5767 139.881 45.3523 139.881 46.3068V55H137.393V53.2102H137.29C137.126 53.5398 136.879 53.8636 136.549 54.1818C136.219 54.5 135.796 54.7642 135.279 54.9744C134.762 55.1847 134.143 55.2898 133.421 55.2898ZM133.975 53.2443C134.68 53.2443 135.282 53.1051 135.782 52.8267C136.288 52.5483 136.671 52.1847 136.933 51.7358C137.2 51.2812 137.333 50.7955 137.333 50.2784V48.5909C137.242 48.6818 137.066 48.767 136.805 48.8466C136.549 48.9205 136.256 48.9858 135.927 49.0426C135.597 49.0937 135.276 49.142 134.964 49.1875C134.651 49.2273 134.39 49.2614 134.18 49.2898C133.685 49.3523 133.234 49.4574 132.825 49.6051C132.421 49.7528 132.097 49.9659 131.853 50.2443C131.614 50.517 131.495 50.8807 131.495 51.3352C131.495 51.9659 131.728 52.4432 132.194 52.767C132.66 53.0852 133.254 53.2443 133.975 53.2443ZM149.386 41.9091V43.9545H142.236V41.9091H149.386ZM144.153 38.7727H146.702V51.1562C146.702 51.6506 146.776 52.0227 146.923 52.2727C147.071 52.517 147.261 52.6847 147.494 52.7756C147.733 52.8608 147.991 52.9034 148.27 52.9034C148.474 52.9034 148.653 52.8892 148.807 52.8608C148.96 52.8324 149.08 52.8097 149.165 52.7926L149.625 54.8977C149.477 54.9545 149.267 55.0114 148.994 55.0682C148.722 55.1307 148.381 55.1648 147.972 55.1705C147.301 55.1818 146.676 55.0625 146.097 54.8125C145.517 54.5625 145.048 54.1761 144.69 53.6534C144.332 53.1307 144.153 52.4744 144.153 51.6847V38.7727ZM158.557 55V41.9091H161.105V55H158.557ZM159.844 39.8892C159.401 39.8892 159.02 39.7415 158.702 39.446C158.389 39.1449 158.233 38.7869 158.233 38.3722C158.233 37.9517 158.389 37.5937 158.702 37.2983C159.02 36.9972 159.401 36.8466 159.844 36.8466C160.287 36.8466 160.665 36.9972 160.977 37.2983C161.295 37.5937 161.455 37.9517 161.455 38.3722C161.455 38.7869 161.295 39.1449 160.977 39.446C160.665 39.7415 160.287 39.8892 159.844 39.8892ZM174.343 45.1051L172.033 45.5142C171.937 45.2187 171.783 44.9375 171.573 44.6705C171.369 44.4034 171.09 44.1847 170.738 44.0142C170.386 43.8437 169.945 43.7585 169.417 43.7585C168.695 43.7585 168.093 43.9205 167.61 44.2443C167.127 44.5625 166.886 44.9744 166.886 45.4801C166.886 45.9176 167.048 46.2699 167.371 46.5369C167.695 46.804 168.218 47.0227 168.94 47.1932L171.019 47.6705C172.224 47.9489 173.121 48.3778 173.712 48.9574C174.303 49.5369 174.599 50.2898 174.599 51.2159C174.599 52 174.371 52.6989 173.917 53.3125C173.468 53.9205 172.84 54.3977 172.033 54.7443C171.232 55.0909 170.303 55.2642 169.246 55.2642C167.781 55.2642 166.585 54.9517 165.658 54.3267C164.732 53.696 164.164 52.8011 163.954 51.642L166.417 51.267C166.57 51.9091 166.886 52.3949 167.363 52.7244C167.84 53.0483 168.462 53.2102 169.229 53.2102C170.065 53.2102 170.732 53.0369 171.232 52.6903C171.732 52.3381 171.982 51.9091 171.982 51.4034C171.982 50.9943 171.829 50.6506 171.522 50.3722C171.221 50.0937 170.758 49.8835 170.133 49.7415L167.917 49.2557C166.695 48.9773 165.792 48.5341 165.207 47.9261C164.627 47.3182 164.337 46.5483 164.337 45.6165C164.337 44.8437 164.553 44.1676 164.985 43.5881C165.417 43.0085 166.013 42.5568 166.775 42.233C167.536 41.9034 168.408 41.7386 169.391 41.7386C170.806 41.7386 171.92 42.0455 172.732 42.6591C173.545 43.267 174.082 44.0824 174.343 45.1051ZM189.863 41.9091V43.9545H182.712V41.9091H189.863ZM184.63 38.7727H187.178V51.1562C187.178 51.6506 187.252 52.0227 187.4 52.2727C187.548 52.517 187.738 52.6847 187.971 52.7756C188.21 52.8608 188.468 52.9034 188.746 52.9034C188.951 52.9034 189.13 52.8892 189.283 52.8608C189.437 52.8324 189.556 52.8097 189.641 52.7926L190.102 54.8977C189.954 54.9545 189.744 55.0114 189.471 55.0682C189.198 55.1307 188.857 55.1648 188.448 55.1705C187.778 55.1818 187.153 55.0625 186.573 54.8125C185.994 54.5625 185.525 54.1761 185.167 53.6534C184.809 53.1307 184.63 52.4744 184.63 51.6847V38.7727ZM195.511 47.2273V55H192.963V37.5455H195.477V44.0398H195.639C195.946 43.3352 196.415 42.7756 197.045 42.3608C197.676 41.946 198.5 41.7386 199.517 41.7386C200.415 41.7386 201.199 41.9233 201.869 42.2926C202.545 42.6619 203.068 43.2131 203.438 43.946C203.812 44.6733 204 45.5824 204 46.6733V55H201.452V46.9801C201.452 46.0199 201.205 45.2756 200.71 44.7472C200.216 44.2131 199.528 43.946 198.648 43.946C198.045 43.946 197.506 44.0739 197.028 44.3295C196.557 44.5852 196.185 44.9602 195.912 45.4545C195.645 45.9432 195.511 46.5341 195.511 47.2273ZM213.043 55.2642C211.753 55.2642 210.642 54.9886 209.71 54.4375C208.784 53.8807 208.068 53.0994 207.562 52.0938C207.062 51.0824 206.812 49.8977 206.812 48.5398C206.812 47.1989 207.062 46.017 207.562 44.9943C208.068 43.9716 208.773 43.1733 209.676 42.5994C210.585 42.0256 211.648 41.7386 212.864 41.7386C213.602 41.7386 214.318 41.8608 215.011 42.1051C215.705 42.3494 216.327 42.733 216.878 43.2557C217.429 43.7784 217.864 44.4574 218.182 45.2926C218.5 46.1222 218.659 47.1307 218.659 48.3182V49.2216H208.253V47.3125H216.162C216.162 46.642 216.026 46.0483 215.753 45.5312C215.48 45.0085 215.097 44.5966 214.602 44.2955C214.114 43.9943 213.54 43.8438 212.881 43.8438C212.165 43.8438 211.54 44.0199 211.006 44.3722C210.477 44.7187 210.068 45.1733 209.778 45.7358C209.494 46.2926 209.352 46.8977 209.352 47.5511V49.0426C209.352 49.9176 209.506 50.6619 209.812 51.2756C210.125 51.8892 210.56 52.358 211.116 52.6818C211.673 53 212.324 53.1591 213.068 53.1591C213.551 53.1591 213.991 53.0909 214.389 52.9545C214.787 52.8125 215.131 52.6023 215.42 52.3239C215.71 52.0455 215.932 51.7017 216.085 51.2926L218.497 51.7273C218.304 52.4375 217.957 53.0597 217.457 53.5938C216.963 54.1222 216.341 54.5341 215.591 54.8295C214.847 55.1193 213.997 55.2642 213.043 55.2642ZM233.949 41.9091V43.9545H226.798V41.9091H233.949ZM228.716 38.7727H231.264V51.1562C231.264 51.6506 231.338 52.0227 231.486 52.2727C231.634 52.517 231.824 52.6847 232.057 52.7756C232.295 52.8608 232.554 52.9034 232.832 52.9034C233.037 52.9034 233.216 52.8892 233.369 52.8608C233.523 52.8324 233.642 52.8097 233.727 52.7926L234.188 54.8977C234.04 54.9545 233.83 55.0114 233.557 55.0682C233.284 55.1307 232.943 55.1648 232.534 55.1705C231.864 55.1818 231.239 55.0625 230.659 54.8125C230.08 54.5625 229.611 54.1761 229.253 53.6534C228.895 53.1307 228.716 52.4744 228.716 51.6847V38.7727ZM242.141 55.2642C240.914 55.2642 239.843 54.983 238.928 54.4205C238.013 53.858 237.303 53.071 236.798 52.0597C236.292 51.0483 236.039 49.8665 236.039 48.5142C236.039 47.1562 236.292 45.9687 236.798 44.9517C237.303 43.9347 238.013 43.1449 238.928 42.5824C239.843 42.0199 240.914 41.7386 242.141 41.7386C243.369 41.7386 244.44 42.0199 245.354 42.5824C246.269 43.1449 246.979 43.9347 247.485 44.9517C247.991 45.9687 248.244 47.1562 248.244 48.5142C248.244 49.8665 247.991 51.0483 247.485 52.0597C246.979 53.071 246.269 53.858 245.354 54.4205C244.44 54.983 243.369 55.2642 242.141 55.2642ZM242.15 53.125C242.945 53.125 243.604 52.9148 244.127 52.4943C244.65 52.0739 245.036 51.5142 245.286 50.8153C245.542 50.1165 245.67 49.3466 245.67 48.5057C245.67 47.6705 245.542 46.9034 245.286 46.2045C245.036 45.5 244.65 44.9347 244.127 44.5085C243.604 44.0824 242.945 43.8693 242.15 43.8693C241.349 43.8693 240.684 44.0824 240.156 44.5085C239.633 44.9347 239.244 45.5 238.988 46.2045C238.738 46.9034 238.613 47.6705 238.613 48.5057C238.613 49.3466 238.738 50.1165 238.988 50.8153C239.244 51.5142 239.633 52.0739 240.156 52.4943C240.684 52.9148 241.349 53.125 242.15 53.125ZM257.199 41.9091V43.9545H250.048V41.9091H257.199ZM251.966 38.7727H254.514V51.1562C254.514 51.6506 254.588 52.0227 254.736 52.2727C254.884 52.517 255.074 52.6847 255.307 52.7756C255.545 52.8608 255.804 52.9034 256.082 52.9034C256.287 52.9034 256.466 52.8892 256.619 52.8608C256.773 52.8324 256.892 52.8097 256.977 52.7926L257.438 54.8977C257.29 54.9545 257.08 55.0114 256.807 55.0682C256.534 55.1307 256.193 55.1648 255.784 55.1705C255.114 55.1818 254.489 55.0625 253.909 54.8125C253.33 54.5625 252.861 54.1761 252.503 53.6534C252.145 53.1307 251.966 52.4744 251.966 51.6847V38.7727ZM263.827 55.2898C262.998 55.2898 262.248 55.1364 261.577 54.8295C260.907 54.517 260.376 54.0653 259.984 53.4744C259.597 52.8835 259.404 52.1591 259.404 51.3011C259.404 50.5625 259.546 49.9545 259.83 49.4773C260.114 49 260.498 48.6222 260.981 48.3438C261.464 48.0653 262.004 47.8551 262.6 47.7131C263.197 47.571 263.805 47.4631 264.424 47.3892C265.208 47.2983 265.844 47.2244 266.333 47.1676C266.822 47.1051 267.177 47.0057 267.398 46.8693C267.62 46.733 267.731 46.5114 267.731 46.2045V46.1449C267.731 45.4006 267.521 44.8239 267.1 44.4148C266.685 44.0057 266.066 43.8011 265.242 43.8011C264.384 43.8011 263.708 43.9915 263.214 44.3722C262.725 44.7472 262.387 45.1648 262.2 45.625L259.805 45.0795C260.089 44.2841 260.504 43.642 261.049 43.1534C261.6 42.6591 262.234 42.3011 262.95 42.0795C263.665 41.8523 264.418 41.7386 265.208 41.7386C265.731 41.7386 266.285 41.8011 266.87 41.9261C267.461 42.0455 268.012 42.267 268.523 42.5909C269.04 42.9148 269.464 43.3778 269.793 43.9801C270.123 44.5767 270.288 45.3523 270.288 46.3068V55H267.799V53.2102H267.697C267.532 53.5398 267.285 53.8636 266.955 54.1818C266.626 54.5 266.202 54.7642 265.685 54.9744C265.168 55.1847 264.549 55.2898 263.827 55.2898ZM264.381 53.2443C265.086 53.2443 265.688 53.1051 266.188 52.8267C266.694 52.5483 267.077 52.1847 267.339 51.7358C267.606 51.2812 267.739 50.7955 267.739 50.2784V48.5909C267.648 48.6818 267.472 48.767 267.211 48.8466C266.955 48.9205 266.663 48.9858 266.333 49.0426C266.004 49.0937 265.683 49.142 265.37 49.1875C265.058 49.2273 264.796 49.2614 264.586 49.2898C264.092 49.3523 263.64 49.4574 263.231 49.6051C262.827 49.7528 262.504 49.9659 262.259 50.2443C262.021 50.517 261.901 50.8807 261.901 51.3352C261.901 51.9659 262.134 52.4432 262.6 52.767C263.066 53.0852 263.66 53.2443 264.381 53.2443ZM276.23 37.5455V55H273.682V37.5455H276.23ZM286.01 59.9091V41.9091H288.499V44.0312H288.712C288.859 43.7585 289.072 43.4432 289.351 43.0852C289.629 42.7273 290.016 42.4148 290.51 42.1477C291.004 41.875 291.658 41.7386 292.47 41.7386C293.527 41.7386 294.47 42.0057 295.3 42.5398C296.129 43.0739 296.78 43.8437 297.251 44.8494C297.729 45.8551 297.967 47.0653 297.967 48.4801C297.967 49.8949 297.732 51.108 297.26 52.1193C296.788 53.125 296.141 53.9006 295.317 54.446C294.493 54.9858 293.553 55.2557 292.496 55.2557C291.7 55.2557 291.05 55.1222 290.544 54.8551C290.044 54.5881 289.652 54.2756 289.368 53.9176C289.084 53.5597 288.865 53.2415 288.712 52.9631H288.558V59.9091H286.01ZM288.507 48.4545C288.507 49.375 288.641 50.1818 288.908 50.875C289.175 51.5682 289.561 52.1108 290.067 52.5028C290.572 52.8892 291.192 53.0824 291.925 53.0824C292.686 53.0824 293.322 52.8807 293.834 52.4773C294.345 52.0682 294.732 51.5142 294.993 50.8153C295.26 50.1165 295.393 49.3295 295.393 48.4545C295.393 47.5909 295.263 46.8153 295.001 46.1278C294.746 45.4403 294.359 44.8977 293.842 44.5C293.331 44.1023 292.692 43.9034 291.925 43.9034C291.186 43.9034 290.561 44.0937 290.05 44.4744C289.544 44.8551 289.161 45.3864 288.899 46.0682C288.638 46.75 288.507 47.5455 288.507 48.4545ZM300.822 55V41.9091H303.286V43.9886H303.422C303.661 43.2841 304.081 42.7301 304.683 42.3267C305.291 41.9176 305.979 41.7131 306.746 41.7131C306.905 41.7131 307.092 41.7187 307.308 41.7301C307.53 41.7415 307.703 41.7557 307.828 41.7727V44.2102C307.726 44.1818 307.544 44.1506 307.283 44.1165C307.021 44.0767 306.76 44.0568 306.499 44.0568C305.896 44.0568 305.359 44.1847 304.888 44.4403C304.422 44.6903 304.053 45.0398 303.78 45.4886C303.507 45.9318 303.371 46.4375 303.371 47.0057V55H300.822ZM310.033 55V41.9091H312.582V55H310.033ZM311.32 39.8892C310.877 39.8892 310.496 39.7415 310.178 39.446C309.866 39.1449 309.71 38.7869 309.71 38.3722C309.71 37.9517 309.866 37.5937 310.178 37.2983C310.496 36.9972 310.877 36.8466 311.32 36.8466C311.763 36.8466 312.141 36.9972 312.454 37.2983C312.772 37.5937 312.931 37.9517 312.931 38.3722C312.931 38.7869 312.772 39.1449 312.454 39.446C312.141 39.7415 311.763 39.8892 311.32 39.8892ZM321.524 55.2642C320.257 55.2642 319.166 54.9773 318.251 54.4034C317.342 53.8239 316.643 53.0256 316.155 52.0085C315.666 50.9915 315.422 49.8267 315.422 48.5142C315.422 47.1847 315.672 46.0114 316.172 44.9943C316.672 43.9716 317.376 43.1733 318.286 42.5994C319.195 42.0256 320.266 41.7386 321.499 41.7386C322.493 41.7386 323.379 41.9233 324.158 42.2926C324.936 42.6562 325.564 43.1676 326.041 43.8267C326.524 44.4858 326.811 45.2557 326.902 46.1364H324.422C324.286 45.5227 323.973 44.9943 323.484 44.5511C323.001 44.108 322.354 43.8864 321.541 43.8864C320.831 43.8864 320.209 44.0739 319.675 44.4489C319.146 44.8182 318.734 45.3466 318.439 46.0341C318.143 46.7159 317.996 47.5227 317.996 48.4545C317.996 49.4091 318.141 50.233 318.43 50.9261C318.72 51.6193 319.129 52.1562 319.658 52.5369C320.192 52.9176 320.82 53.108 321.541 53.108C322.024 53.108 322.462 53.0199 322.854 52.8438C323.251 52.6619 323.584 52.4034 323.851 52.0682C324.124 51.733 324.314 51.3295 324.422 50.858H326.902C326.811 51.7045 326.536 52.4602 326.075 53.125C325.615 53.7898 324.999 54.3125 324.226 54.6932C323.459 55.0739 322.558 55.2642 321.524 55.2642ZM335.269 55.2642C333.979 55.2642 332.869 54.9886 331.937 54.4375C331.011 53.8807 330.295 53.0994 329.789 52.0938C329.289 51.0824 329.039 49.8977 329.039 48.5398C329.039 47.1989 329.289 46.017 329.789 44.9943C330.295 43.9716 330.999 43.1733 331.903 42.5994C332.812 42.0256 333.874 41.7386 335.09 41.7386C335.829 41.7386 336.545 41.8608 337.238 42.1051C337.931 42.3494 338.553 42.733 339.104 43.2557C339.656 43.7784 340.09 44.4574 340.408 45.2926C340.727 46.1222 340.886 47.1307 340.886 48.3182V49.2216H330.479V47.3125H338.388C338.388 46.642 338.252 46.0483 337.979 45.5312C337.707 45.0085 337.323 44.5966 336.829 44.2955C336.34 43.9943 335.766 43.8438 335.107 43.8438C334.391 43.8438 333.766 44.0199 333.232 44.3722C332.704 44.7187 332.295 45.1733 332.005 45.7358C331.721 46.2926 331.579 46.8977 331.579 47.5511V49.0426C331.579 49.9176 331.732 50.6619 332.039 51.2756C332.352 51.8892 332.786 52.358 333.343 52.6818C333.9 53 334.55 53.1591 335.295 53.1591C335.778 53.1591 336.218 53.0909 336.616 52.9545C337.013 52.8125 337.357 52.6023 337.647 52.3239C337.937 52.0455 338.158 51.7017 338.312 51.2926L340.724 51.7273C340.531 52.4375 340.184 53.0597 339.684 53.5938C339.19 54.1222 338.567 54.5341 337.817 54.8295C337.073 55.1193 336.224 55.2642 335.269 55.2642ZM356.295 41.9091V43.9545H348.897V41.9091H356.295ZM350.925 55V40.392C350.925 39.5739 351.104 38.8949 351.462 38.3551C351.82 37.8097 352.295 37.4034 352.886 37.1364C353.477 36.8636 354.119 36.7273 354.812 36.7273C355.323 36.7273 355.761 36.7699 356.124 36.8551C356.488 36.9347 356.758 37.0085 356.934 37.0767L356.337 39.1392C356.218 39.1051 356.065 39.0653 355.877 39.0199C355.69 38.9687 355.462 38.9432 355.195 38.9432C354.576 38.9432 354.133 39.0966 353.866 39.4034C353.604 39.7102 353.474 40.1534 353.474 40.733V55H350.925ZM363.923 55.2642C362.695 55.2642 361.624 54.983 360.71 54.4205C359.795 53.858 359.085 53.071 358.579 52.0597C358.073 51.0483 357.82 49.8665 357.82 48.5142C357.82 47.1562 358.073 45.9687 358.579 44.9517C359.085 43.9347 359.795 43.1449 360.71 42.5824C361.624 42.0199 362.695 41.7386 363.923 41.7386C365.15 41.7386 366.221 42.0199 367.136 42.5824C368.05 43.1449 368.761 43.9347 369.266 44.9517C369.772 45.9687 370.025 47.1562 370.025 48.5142C370.025 49.8665 369.772 51.0483 369.266 52.0597C368.761 53.071 368.05 53.858 367.136 54.4205C366.221 54.983 365.15 55.2642 363.923 55.2642ZM363.931 53.125C364.727 53.125 365.386 52.9148 365.908 52.4943C366.431 52.0739 366.817 51.5142 367.067 50.8153C367.323 50.1165 367.451 49.3466 367.451 48.5057C367.451 47.6705 367.323 46.9034 367.067 46.2045C366.817 45.5 366.431 44.9347 365.908 44.5085C365.386 44.0824 364.727 43.8693 363.931 43.8693C363.13 43.8693 362.465 44.0824 361.937 44.5085C361.414 44.9347 361.025 45.5 360.769 46.2045C360.519 46.9034 360.394 47.6705 360.394 48.5057C360.394 49.3466 360.519 50.1165 360.769 50.8153C361.025 51.5142 361.414 52.0739 361.937 52.4943C362.465 52.9148 363.13 53.125 363.931 53.125ZM372.869 55V41.9091H375.332V43.9886H375.469C375.707 43.2841 376.128 42.7301 376.73 42.3267C377.338 41.9176 378.026 41.7131 378.793 41.7131C378.952 41.7131 379.139 41.7187 379.355 41.7301C379.577 41.7415 379.75 41.7557 379.875 41.7727V44.2102C379.773 44.1818 379.591 44.1506 379.33 44.1165C379.068 44.0767 378.807 44.0568 378.545 44.0568C377.943 44.0568 377.406 44.1847 376.935 44.4403C376.469 44.6903 376.099 45.0398 375.827 45.4886C375.554 45.9318 375.418 46.4375 375.418 47.0057V55H372.869ZM390.98 37.5455V55H388.432V37.5455H390.98ZM399.923 55.2642C398.695 55.2642 397.624 54.983 396.71 54.4205C395.795 53.858 395.085 53.071 394.579 52.0597C394.073 51.0483 393.82 49.8665 393.82 48.5142C393.82 47.1562 394.073 45.9687 394.579 44.9517C395.085 43.9347 395.795 43.1449 396.71 42.5824C397.624 42.0199 398.695 41.7386 399.923 41.7386C401.15 41.7386 402.221 42.0199 403.136 42.5824C404.05 43.1449 404.761 43.9347 405.266 44.9517C405.772 45.9687 406.025 47.1562 406.025 48.5142C406.025 49.8665 405.772 51.0483 405.266 52.0597C404.761 53.071 404.05 53.858 403.136 54.4205C402.221 54.983 401.15 55.2642 399.923 55.2642ZM399.931 53.125C400.727 53.125 401.386 52.9148 401.908 52.4943C402.431 52.0739 402.817 51.5142 403.067 50.8153C403.323 50.1165 403.451 49.3466 403.451 48.5057C403.451 47.6705 403.323 46.9034 403.067 46.2045C402.817 45.5 402.431 44.9347 401.908 44.5085C401.386 44.0824 400.727 43.8693 399.931 43.8693C399.13 43.8693 398.465 44.0824 397.937 44.5085C397.414 44.9347 397.025 45.5 396.769 46.2045C396.519 46.9034 396.394 47.6705 396.394 48.5057C396.394 49.3466 396.519 50.1165 396.769 50.8153C397.025 51.5142 397.414 52.0739 397.937 52.4943C398.465 52.9148 399.13 53.125 399.931 53.125ZM414.358 60.1818C413.318 60.1818 412.423 60.0455 411.673 59.7727C410.929 59.5 410.321 59.1392 409.849 58.6903C409.378 58.2415 409.026 57.75 408.793 57.2159L410.983 56.3125C411.136 56.5625 411.341 56.8267 411.597 57.1051C411.858 57.3892 412.21 57.6307 412.653 57.8295C413.102 58.0284 413.679 58.1278 414.384 58.1278C415.349 58.1278 416.148 57.892 416.778 57.4205C417.409 56.9545 417.724 56.2102 417.724 55.1875V52.6136H417.562C417.409 52.892 417.188 53.2017 416.898 53.5426C416.614 53.8835 416.222 54.179 415.722 54.429C415.222 54.679 414.571 54.804 413.77 54.804C412.736 54.804 411.804 54.5625 410.974 54.0795C410.151 53.5909 409.497 52.8722 409.014 51.9233C408.537 50.9687 408.298 49.7955 408.298 48.4034C408.298 47.0114 408.534 45.8182 409.006 44.8239C409.483 43.8295 410.136 43.0682 410.966 42.5398C411.795 42.0057 412.736 41.7386 413.787 41.7386C414.599 41.7386 415.256 41.875 415.756 42.1477C416.256 42.4148 416.645 42.7273 416.923 43.0852C417.207 43.4432 417.426 43.7585 417.58 44.0312H417.767V41.9091H420.264V55.2898C420.264 56.4148 420.003 57.3381 419.48 58.0597C418.957 58.7813 418.25 59.3153 417.358 59.6619C416.472 60.0085 415.472 60.1818 414.358 60.1818ZM414.332 52.6903C415.065 52.6903 415.685 52.5199 416.19 52.179C416.702 51.8324 417.088 51.3381 417.349 50.696C417.616 50.0483 417.75 49.2727 417.75 48.3693C417.75 47.4886 417.619 46.7131 417.358 46.0426C417.097 45.3722 416.713 44.8494 416.207 44.4744C415.702 44.0937 415.077 43.9034 414.332 43.9034C413.565 43.9034 412.926 44.1023 412.415 44.5C411.903 44.892 411.517 45.4261 411.256 46.1023C411 46.7784 410.872 47.5341 410.872 48.3693C410.872 49.2273 411.003 49.9801 411.264 50.6278C411.526 51.2756 411.912 51.7812 412.423 52.1449C412.94 52.5085 413.577 52.6903 414.332 52.6903ZM429.196 55.2642C427.969 55.2642 426.898 54.983 425.983 54.4205C425.068 53.858 424.358 53.071 423.852 52.0597C423.347 51.0483 423.094 49.8665 423.094 48.5142C423.094 47.1562 423.347 45.9687 423.852 44.9517C424.358 43.9347 425.068 43.1449 425.983 42.5824C426.898 42.0199 427.969 41.7386 429.196 41.7386C430.423 41.7386 431.494 42.0199 432.409 42.5824C433.324 43.1449 434.034 43.9347 434.54 44.9517C435.045 45.9687 435.298 47.1562 435.298 48.5142C435.298 49.8665 435.045 51.0483 434.54 52.0597C434.034 53.071 433.324 53.858 432.409 54.4205C431.494 54.983 430.423 55.2642 429.196 55.2642ZM429.205 53.125C430 53.125 430.659 52.9148 431.182 52.4943C431.705 52.0739 432.091 51.5142 432.341 50.8153C432.597 50.1165 432.724 49.3466 432.724 48.5057C432.724 47.6705 432.597 46.9034 432.341 46.2045C432.091 45.5 431.705 44.9347 431.182 44.5085C430.659 44.0824 430 43.8693 429.205 43.8693C428.403 43.8693 427.739 44.0824 427.21 44.5085C426.688 44.9347 426.298 45.5 426.043 46.2045C425.793 46.9034 425.668 47.6705 425.668 48.5057C425.668 49.3466 425.793 50.1165 426.043 50.8153C426.298 51.5142 426.688 52.0739 427.21 52.4943C427.739 52.9148 428.403 53.125 429.205 53.125ZM449.395 55.2557C448.338 55.2557 447.395 54.9858 446.565 54.446C445.741 53.9006 445.094 53.125 444.622 52.1193C444.156 51.108 443.923 49.8949 443.923 48.4801C443.923 47.0653 444.159 45.8551 444.631 44.8494C445.108 43.8437 445.761 43.0739 446.591 42.5398C447.42 42.0057 448.361 41.7386 449.412 41.7386C450.224 41.7386 450.878 41.875 451.372 42.1477C451.872 42.4148 452.259 42.7273 452.531 43.0852C452.81 43.4432 453.026 43.7585 453.179 44.0312H453.332V37.5455H455.881V55H453.392V52.9631H453.179C453.026 53.2415 452.804 53.5597 452.514 53.9176C452.23 54.2756 451.838 54.5881 451.338 54.8551C450.838 55.1222 450.19 55.2557 449.395 55.2557ZM449.957 53.0824C450.69 53.0824 451.31 52.8892 451.815 52.5028C452.327 52.1108 452.713 51.5682 452.974 50.875C453.241 50.1818 453.375 49.375 453.375 48.4545C453.375 47.5455 453.244 46.75 452.983 46.0682C452.722 45.3864 452.338 44.8551 451.832 44.4744C451.327 44.0937 450.702 43.9034 449.957 43.9034C449.19 43.9034 448.551 44.1023 448.04 44.5C447.528 44.8977 447.142 45.4403 446.881 46.1278C446.625 46.8153 446.497 47.5909 446.497 48.4545C446.497 49.3295 446.628 50.1165 446.889 50.8153C447.151 51.5142 447.537 52.0682 448.048 52.4773C448.565 52.8807 449.202 53.0824 449.957 53.0824ZM465.16 55.2642C463.87 55.2642 462.759 54.9886 461.827 54.4375C460.901 53.8807 460.185 53.0994 459.68 52.0938C459.18 51.0824 458.93 49.8977 458.93 48.5398C458.93 47.1989 459.18 46.017 459.68 44.9943C460.185 43.9716 460.89 43.1733 461.793 42.5994C462.702 42.0256 463.765 41.7386 464.981 41.7386C465.719 41.7386 466.435 41.8608 467.129 42.1051C467.822 42.3494 468.444 42.733 468.995 43.2557C469.546 43.7784 469.981 44.4574 470.299 45.2926C470.617 46.1222 470.776 47.1307 470.776 48.3182V49.2216H460.37V47.3125H468.279C468.279 46.642 468.143 46.0483 467.87 45.5312C467.597 45.0085 467.214 44.5966 466.719 44.2955C466.231 43.9943 465.657 43.8438 464.998 43.8438C464.282 43.8438 463.657 44.0199 463.123 44.3722C462.594 44.7187 462.185 45.1733 461.896 45.7358C461.612 46.2926 461.469 46.8977 461.469 47.5511V49.0426C461.469 49.9176 461.623 50.6619 461.93 51.2756C462.242 51.8892 462.677 52.358 463.234 52.6818C463.79 53 464.441 53.1591 465.185 53.1591C465.668 53.1591 466.109 53.0909 466.506 52.9545C466.904 52.8125 467.248 52.6023 467.538 52.3239C467.827 52.0455 468.049 51.7017 468.202 51.2926L470.614 51.7273C470.421 52.4375 470.075 53.0597 469.575 53.5938C469.08 54.1222 468.458 54.5341 467.708 54.8295C466.964 55.1193 466.114 55.2642 465.16 55.2642ZM483.413 45.1051L481.104 45.5142C481.007 45.2187 480.854 44.9375 480.643 44.6705C480.439 44.4034 480.161 44.1847 479.808 44.0142C479.456 43.8437 479.016 43.7585 478.487 43.7585C477.766 43.7585 477.163 43.9205 476.68 44.2443C476.197 44.5625 475.956 44.9744 475.956 45.4801C475.956 45.9176 476.118 46.2699 476.442 46.5369C476.766 46.804 477.288 47.0227 478.01 47.1932L480.089 47.6705C481.294 47.9489 482.192 48.3778 482.783 48.9574C483.374 49.5369 483.669 50.2898 483.669 51.2159C483.669 52 483.442 52.6989 482.987 53.3125C482.538 53.9205 481.911 54.3977 481.104 54.7443C480.303 55.0909 479.374 55.2642 478.317 55.2642C476.851 55.2642 475.655 54.9517 474.729 54.3267C473.803 53.696 473.234 52.8011 473.024 51.642L475.487 51.267C475.641 51.9091 475.956 52.3949 476.433 52.7244C476.911 53.0483 477.533 53.2102 478.3 53.2102C479.135 53.2102 479.803 53.0369 480.303 52.6903C480.803 52.3381 481.053 51.9091 481.053 51.4034C481.053 50.9943 480.899 50.6506 480.592 50.3722C480.291 50.0937 479.828 49.8835 479.203 49.7415L476.987 49.2557C475.766 48.9773 474.862 48.5341 474.277 47.9261C473.697 47.3182 473.408 46.5483 473.408 45.6165C473.408 44.8437 473.624 44.1676 474.055 43.5881C474.487 43.0085 475.084 42.5568 475.845 42.233C476.607 41.9034 477.479 41.7386 478.462 41.7386C479.876 41.7386 480.99 42.0455 481.803 42.6591C482.615 43.267 483.152 44.0824 483.413 45.1051ZM486.471 55V41.9091H489.019V55H486.471ZM487.758 39.8892C487.315 39.8892 486.934 39.7415 486.616 39.446C486.303 39.1449 486.147 38.7869 486.147 38.3722C486.147 37.9517 486.303 37.5937 486.616 37.2983C486.934 36.9972 487.315 36.8466 487.758 36.8466C488.201 36.8466 488.579 36.9972 488.891 37.2983C489.21 37.5937 489.369 37.9517 489.369 38.3722C489.369 38.7869 489.21 39.1449 488.891 39.446C488.579 39.7415 488.201 39.8892 487.758 39.8892ZM497.936 60.1818C496.896 60.1818 496.001 60.0455 495.251 59.7727C494.507 59.5 493.899 59.1392 493.428 58.6903C492.956 58.2415 492.604 57.75 492.371 57.2159L494.561 56.3125C494.714 56.5625 494.919 56.8267 495.175 57.1051C495.436 57.3892 495.788 57.6307 496.232 57.8295C496.68 58.0284 497.257 58.1278 497.962 58.1278C498.928 58.1278 499.726 57.892 500.357 57.4205C500.987 56.9545 501.303 56.2102 501.303 55.1875V52.6136H501.141C500.987 52.892 500.766 53.2017 500.476 53.5426C500.192 53.8835 499.8 54.179 499.3 54.429C498.8 54.679 498.149 54.804 497.348 54.804C496.314 54.804 495.382 54.5625 494.553 54.0795C493.729 53.5909 493.075 52.8722 492.592 51.9233C492.115 50.9687 491.876 49.7955 491.876 48.4034C491.876 47.0114 492.112 45.8182 492.584 44.8239C493.061 43.8295 493.714 43.0682 494.544 42.5398C495.374 42.0057 496.314 41.7386 497.365 41.7386C498.178 41.7386 498.834 41.875 499.334 42.1477C499.834 42.4148 500.223 42.7273 500.501 43.0852C500.786 43.4432 501.004 43.7585 501.158 44.0312H501.345V41.9091H503.842V55.2898C503.842 56.4148 503.581 57.3381 503.058 58.0597C502.536 58.7813 501.828 59.3153 500.936 59.6619C500.05 60.0085 499.05 60.1818 497.936 60.1818ZM497.911 52.6903C498.643 52.6903 499.263 52.5199 499.768 52.179C500.28 51.8324 500.666 51.3381 500.928 50.696C501.195 50.0483 501.328 49.2727 501.328 48.3693C501.328 47.4886 501.197 46.7131 500.936 46.0426C500.675 45.3722 500.291 44.8494 499.786 44.4744C499.28 44.0937 498.655 43.9034 497.911 43.9034C497.143 43.9034 496.504 44.1023 495.993 44.5C495.482 44.892 495.095 45.4261 494.834 46.1023C494.578 46.7784 494.45 47.5341 494.45 48.3693C494.45 49.2273 494.581 49.9801 494.842 50.6278C495.104 51.2756 495.49 51.7812 496.001 52.1449C496.518 52.5085 497.155 52.6903 497.911 52.6903ZM509.808 47.2273V55H507.26V41.9091H509.706V44.0398H509.868C510.169 43.3466 510.641 42.7898 511.283 42.3693C511.93 41.9489 512.746 41.7386 513.729 41.7386C514.621 41.7386 515.402 41.9261 516.072 42.3011C516.743 42.6705 517.263 43.2216 517.632 43.9545C518.001 44.6875 518.186 45.5937 518.186 46.6733V55H515.638V46.9801C515.638 46.0312 515.391 45.2898 514.896 44.7557C514.402 44.2159 513.723 43.946 512.859 43.946C512.268 43.946 511.743 44.0739 511.283 44.3295C510.828 44.5852 510.467 44.9602 510.2 45.4545C509.939 45.9432 509.808 46.5341 509.808 47.2273ZM524.391 49.9801V49.8182C524.402 48.7614 524.507 47.9205 524.706 47.2955C524.911 46.6705 525.2 46.1648 525.575 45.7784C525.95 45.392 526.402 45.0398 526.93 44.7216C527.271 44.5057 527.578 44.2642 527.851 43.9972C528.124 43.7301 528.339 43.4233 528.499 43.0767C528.658 42.7301 528.737 42.3466 528.737 41.9261C528.737 41.4205 528.618 40.983 528.379 40.6136C528.141 40.2443 527.822 39.9602 527.425 39.7614C527.033 39.5568 526.595 39.4545 526.112 39.4545C525.675 39.4545 525.257 39.5455 524.859 39.7273C524.462 39.9091 524.132 40.1932 523.871 40.5795C523.609 40.9602 523.459 41.4517 523.419 42.054H520.828C520.868 41.0312 521.126 40.1676 521.604 39.4631C522.081 38.7528 522.712 38.2159 523.496 37.8523C524.286 37.4886 525.158 37.3068 526.112 37.3068C527.158 37.3068 528.072 37.5028 528.857 37.8949C529.641 38.2812 530.249 38.8239 530.68 39.5227C531.118 40.2159 531.337 41.0256 531.337 41.9517C531.337 42.5881 531.237 43.1619 531.038 43.6733C530.839 44.179 530.555 44.6307 530.186 45.0284C529.822 45.4261 529.385 45.7784 528.874 46.0852C528.391 46.3864 527.999 46.6989 527.697 47.0227C527.402 47.3466 527.186 47.7301 527.05 48.1733C526.913 48.6165 526.839 49.1648 526.828 49.8182V49.9801H524.391ZM525.678 55.1619C525.212 55.1619 524.811 54.9972 524.476 54.6676C524.141 54.3324 523.973 53.929 523.973 53.4574C523.973 52.9915 524.141 52.5937 524.476 52.2642C524.811 51.929 525.212 51.7614 525.678 51.7614C526.138 51.7614 526.536 51.929 526.871 52.2642C527.212 52.5937 527.382 52.9915 527.382 53.4574C527.382 53.7699 527.303 54.0568 527.143 54.3182C526.99 54.5739 526.786 54.7784 526.53 54.9318C526.274 55.0852 525.99 55.1619 525.678 55.1619Z" fill="#343541"/>
<rect x="0.5" y="106.5" width="566" height="121" fill="white"/>
<rect x="0.5" y="106.5" width="566" height="121" stroke="#D0D5DD"/>
<path d="M31 174.75V166C31 165.038 31.343 164.214 32.029 163.529C32.715 162.844 33.5387 162.501 34.5 162.5H55.5C56.4625 162.5 57.2868 162.843 57.9728 163.529C58.6587 164.215 59.0012 165.039 59 166V174.75H31ZM39.75 160.75C37.3292 160.75 35.2659 159.897 33.5603 158.19C31.8546 156.483 31.0012 154.42 31 152C30.9988 149.58 31.8523 147.517 33.5603 145.81C35.2683 144.103 37.3315 143.25 39.75 143.25H50.25C52.6708 143.25 54.7347 144.103 56.4415 145.81C58.1483 147.517 59.0012 149.58 59 152C58.9988 154.42 58.1454 156.484 56.4398 158.192C54.7341 159.9 52.6708 160.752 50.25 160.75H39.75ZM39.75 153.75C40.2458 153.75 40.6618 153.582 40.9978 153.246C41.3338 152.91 41.5012 152.495 41.5 152C41.4988 151.505 41.3308 151.09 40.996 150.754C40.6612 150.418 40.2458 150.25 39.75 150.25C39.2542 150.25 38.8388 150.418 38.504 150.754C38.1692 151.09 38.0012 151.505 38 152C37.9988 152.495 38.1668 152.911 38.504 153.248C38.8412 153.585 39.2565 153.752 39.75 153.75ZM50.25 153.75C50.7458 153.75 51.1618 153.582 51.4978 153.246C51.8338 152.91 52.0012 152.495 52 152C51.9988 151.505 51.8308 151.09 51.496 150.754C51.1612 150.418 50.7458 150.25 50.25 150.25C49.7542 150.25 49.3388 150.418 49.004 150.754C48.6692 151.09 48.5012 151.505 48.5 152C48.4988 152.495 48.6668 152.911 49.004 153.248C49.3412 153.585 49.7565 153.752 50.25 153.75Z" fill="#1D0F74"/>
<path d="M101.659 147.909C101.557 147.045 101.142 146.375 100.415 145.898C99.6875 145.42 98.7955 145.182 97.7386 145.182C96.9659 145.182 96.2898 145.307 95.7102 145.557C95.1364 145.807 94.6875 146.151 94.3636 146.588C94.0455 147.026 93.8864 147.523 93.8864 148.08C93.8864 148.545 93.9972 148.946 94.2188 149.281C94.446 149.611 94.7358 149.886 95.0881 150.108C95.4403 150.324 95.8097 150.503 96.196 150.645C96.5824 150.781 96.9375 150.892 97.2614 150.977L99.0341 151.455C99.4886 151.574 99.9943 151.739 100.551 151.949C101.114 152.159 101.651 152.446 102.162 152.81C102.679 153.168 103.105 153.628 103.44 154.19C103.776 154.753 103.943 155.443 103.943 156.261C103.943 157.205 103.696 158.057 103.202 158.818C102.713 159.58 101.997 160.185 101.054 160.634C100.116 161.082 98.9773 161.307 97.6364 161.307C96.3864 161.307 95.304 161.105 94.3892 160.702C93.4801 160.298 92.7642 159.736 92.2415 159.014C91.7244 158.293 91.4318 157.455 91.3636 156.5H93.5455C93.6023 157.159 93.8239 157.705 94.2102 158.136C94.6023 158.562 95.0966 158.881 95.6932 159.091C96.2955 159.295 96.9432 159.398 97.6364 159.398C98.4432 159.398 99.1676 159.267 99.8097 159.006C100.452 158.739 100.96 158.369 101.335 157.898C101.71 157.42 101.898 156.864 101.898 156.227C101.898 155.648 101.736 155.176 101.412 154.812C101.088 154.449 100.662 154.153 100.134 153.926C99.6051 153.699 99.0341 153.5 98.4205 153.33L96.2727 152.716C94.9091 152.324 93.8295 151.764 93.0341 151.037C92.2386 150.31 91.8409 149.358 91.8409 148.182C91.8409 147.205 92.1051 146.352 92.6335 145.625C93.1676 144.892 93.8835 144.324 94.7812 143.92C95.6847 143.511 96.6932 143.307 97.8068 143.307C98.9318 143.307 99.9318 143.509 100.807 143.912C101.682 144.31 102.375 144.855 102.886 145.548C103.403 146.241 103.676 147.028 103.705 147.909H101.659ZM112.464 161.273C111.282 161.273 110.245 160.991 109.353 160.429C108.467 159.866 107.773 159.08 107.273 158.068C106.779 157.057 106.532 155.875 106.532 154.523C106.532 153.159 106.779 151.969 107.273 150.952C107.773 149.935 108.467 149.145 109.353 148.582C110.245 148.02 111.282 147.739 112.464 147.739C113.646 147.739 114.68 148.02 115.566 148.582C116.458 149.145 117.151 149.935 117.646 150.952C118.146 151.969 118.396 153.159 118.396 154.523C118.396 155.875 118.146 157.057 117.646 158.068C117.151 159.08 116.458 159.866 115.566 160.429C114.68 160.991 113.646 161.273 112.464 161.273ZM112.464 159.466C113.362 159.466 114.1 159.236 114.68 158.776C115.259 158.315 115.688 157.71 115.967 156.96C116.245 156.21 116.384 155.398 116.384 154.523C116.384 153.648 116.245 152.832 115.967 152.077C115.688 151.321 115.259 150.71 114.68 150.244C114.1 149.778 113.362 149.545 112.464 149.545C111.566 149.545 110.827 149.778 110.248 150.244C109.668 150.71 109.239 151.321 108.961 152.077C108.683 152.832 108.543 153.648 108.543 154.523C108.543 155.398 108.683 156.21 108.961 156.96C109.239 157.71 109.668 158.315 110.248 158.776C110.827 159.236 111.566 159.466 112.464 159.466ZM121.466 161V147.909H123.409V149.886H123.545C123.784 149.239 124.216 148.713 124.841 148.31C125.466 147.906 126.17 147.705 126.955 147.705C127.102 147.705 127.287 147.707 127.509 147.713C127.73 147.719 127.898 147.727 128.011 147.739V149.784C127.943 149.767 127.787 149.741 127.543 149.707C127.304 149.668 127.051 149.648 126.784 149.648C126.148 149.648 125.58 149.781 125.08 150.048C124.585 150.31 124.193 150.673 123.903 151.139C123.619 151.599 123.477 152.125 123.477 152.716V161H121.466ZM130.396 161V147.909H132.339V149.886H132.475C132.714 149.239 133.146 148.713 133.771 148.31C134.396 147.906 135.1 147.705 135.884 147.705C136.032 147.705 136.217 147.707 136.438 147.713C136.66 147.719 136.827 147.727 136.941 147.739V149.784C136.873 149.767 136.717 149.741 136.472 149.707C136.234 149.668 135.981 149.648 135.714 149.648C135.077 149.648 134.509 149.781 134.009 150.048C133.515 150.31 133.123 150.673 132.833 151.139C132.549 151.599 132.407 152.125 132.407 152.716V161H130.396ZM141.019 165.875C140.678 165.875 140.374 165.847 140.107 165.79C139.84 165.739 139.656 165.688 139.553 165.636L140.065 163.864C140.798 164.051 141.408 164.045 141.897 163.847C142.386 163.653 142.809 163.068 143.167 162.091L143.542 161.068L138.701 147.909H140.883L144.496 158.341H144.633L148.246 147.909L150.445 147.943L144.871 162.909C144.621 163.574 144.312 164.125 143.942 164.562C143.573 165.006 143.144 165.335 142.656 165.551C142.173 165.767 141.627 165.875 141.019 165.875ZM155.286 158.614L155.15 159.534C155.053 160.182 154.906 160.875 154.707 161.614C154.513 162.352 154.312 163.048 154.102 163.702C153.891 164.355 153.718 164.875 153.582 165.261H152.048C152.121 164.898 152.218 164.418 152.337 163.821C152.457 163.224 152.576 162.557 152.695 161.818C152.82 161.085 152.923 160.335 153.002 159.568L153.104 158.614H155.286ZM166.036 161V143.545H168.047V149.989H168.217C168.365 149.761 168.57 149.472 168.831 149.119C169.098 148.761 169.479 148.443 169.973 148.165C170.473 147.881 171.149 147.739 172.001 147.739C173.104 147.739 174.075 148.014 174.916 148.565C175.757 149.116 176.413 149.898 176.885 150.909C177.357 151.92 177.592 153.114 177.592 154.489C177.592 155.875 177.357 157.077 176.885 158.094C176.413 159.105 175.76 159.889 174.925 160.446C174.089 160.997 173.126 161.273 172.036 161.273C171.195 161.273 170.521 161.134 170.016 160.855C169.51 160.571 169.121 160.25 168.848 159.892C168.575 159.528 168.365 159.227 168.217 158.989H167.979V161H166.036ZM168.013 154.455C168.013 155.443 168.158 156.315 168.447 157.071C168.737 157.821 169.161 158.409 169.717 158.835C170.274 159.256 170.956 159.466 171.763 159.466C172.604 159.466 173.305 159.244 173.868 158.801C174.436 158.352 174.862 157.75 175.146 156.994C175.436 156.233 175.581 155.386 175.581 154.455C175.581 153.534 175.439 152.705 175.155 151.966C174.876 151.222 174.453 150.634 173.885 150.202C173.322 149.764 172.615 149.545 171.763 149.545C170.945 149.545 170.257 149.753 169.7 150.168C169.143 150.577 168.723 151.151 168.439 151.889C168.155 152.622 168.013 153.477 168.013 154.455ZM188.919 155.648V147.909H190.93V161H188.919V158.784H188.783C188.476 159.449 187.999 160.014 187.351 160.48C186.703 160.94 185.885 161.17 184.896 161.17C184.078 161.17 183.351 160.991 182.714 160.634C182.078 160.27 181.578 159.724 181.214 158.997C180.851 158.264 180.669 157.341 180.669 156.227V147.909H182.68V156.091C182.68 157.045 182.947 157.807 183.482 158.375C184.021 158.943 184.709 159.227 185.544 159.227C186.044 159.227 186.553 159.099 187.07 158.844C187.592 158.588 188.03 158.196 188.382 157.668C188.74 157.139 188.919 156.466 188.919 155.648ZM200.308 147.909V149.614H193.523V147.909H200.308ZM195.501 144.773H197.512V157.25C197.512 157.818 197.594 158.244 197.759 158.528C197.93 158.807 198.146 158.994 198.407 159.091C198.674 159.182 198.955 159.227 199.251 159.227C199.472 159.227 199.654 159.216 199.796 159.193C199.938 159.165 200.052 159.142 200.137 159.125L200.546 160.932C200.41 160.983 200.219 161.034 199.975 161.085C199.731 161.142 199.421 161.17 199.046 161.17C198.478 161.17 197.921 161.048 197.376 160.804C196.836 160.56 196.387 160.188 196.029 159.688C195.677 159.188 195.501 158.557 195.501 157.795V144.773ZM213.935 161.307C213.106 161.307 212.353 161.151 211.677 160.838C211.001 160.52 210.464 160.062 210.066 159.466C209.668 158.864 209.469 158.136 209.469 157.284C209.469 156.534 209.617 155.926 209.913 155.46C210.208 154.989 210.603 154.619 211.097 154.352C211.592 154.085 212.137 153.886 212.734 153.756C213.336 153.619 213.941 153.511 214.549 153.432C215.344 153.33 215.989 153.253 216.484 153.202C216.984 153.145 217.347 153.051 217.575 152.92C217.808 152.79 217.924 152.562 217.924 152.239V152.17C217.924 151.33 217.694 150.676 217.234 150.21C216.779 149.744 216.089 149.511 215.163 149.511C214.202 149.511 213.45 149.722 212.904 150.142C212.359 150.562 211.975 151.011 211.754 151.489L209.844 150.807C210.185 150.011 210.64 149.392 211.208 148.949C211.782 148.5 212.407 148.187 213.083 148.011C213.765 147.83 214.435 147.739 215.094 147.739C215.515 147.739 215.998 147.79 216.543 147.892C217.094 147.989 217.626 148.19 218.137 148.497C218.654 148.804 219.083 149.267 219.424 149.886C219.765 150.506 219.935 151.335 219.935 152.375V161H217.924V159.227H217.822C217.685 159.511 217.458 159.815 217.14 160.139C216.822 160.463 216.398 160.739 215.87 160.966C215.342 161.193 214.697 161.307 213.935 161.307ZM214.242 159.5C215.038 159.5 215.708 159.344 216.254 159.031C216.805 158.719 217.219 158.315 217.498 157.821C217.782 157.327 217.924 156.807 217.924 156.261V154.42C217.839 154.523 217.651 154.616 217.362 154.702C217.077 154.781 216.748 154.852 216.373 154.915C216.004 154.972 215.643 155.023 215.29 155.068C214.944 155.108 214.663 155.142 214.447 155.17C213.924 155.239 213.435 155.349 212.981 155.503C212.532 155.651 212.168 155.875 211.89 156.176C211.617 156.472 211.481 156.875 211.481 157.386C211.481 158.085 211.739 158.614 212.256 158.972C212.779 159.324 213.441 159.5 214.242 159.5ZM229.3 147.909V149.614H222.516V147.909H229.3ZM224.493 144.773H226.504V157.25C226.504 157.818 226.587 158.244 226.751 158.528C226.922 158.807 227.138 158.994 227.399 159.091C227.666 159.182 227.947 159.227 228.243 159.227C228.464 159.227 228.646 159.216 228.788 159.193C228.93 159.165 229.044 159.142 229.129 159.125L229.538 160.932C229.402 160.983 229.212 161.034 228.967 161.085C228.723 161.142 228.413 161.17 228.038 161.17C227.47 161.17 226.913 161.048 226.368 160.804C225.828 160.56 225.379 160.188 225.021 159.688C224.669 159.188 224.493 158.557 224.493 157.795V144.773ZM244.768 147.909V149.614H237.984V147.909H244.768ZM239.962 144.773H241.973V157.25C241.973 157.818 242.055 158.244 242.22 158.528C242.391 158.807 242.607 158.994 242.868 159.091C243.135 159.182 243.416 159.227 243.712 159.227C243.933 159.227 244.115 159.216 244.257 159.193C244.399 159.165 244.513 159.142 244.598 159.125L245.007 160.932C244.871 160.983 244.68 161.034 244.436 161.085C244.192 161.142 243.882 161.17 243.507 161.17C242.939 161.17 242.382 161.048 241.837 160.804C241.297 160.56 240.848 160.188 240.49 159.688C240.138 159.188 239.962 158.557 239.962 157.795V144.773ZM250.087 153.125V161H248.075V143.545H250.087V149.955H250.257C250.564 149.278 251.024 148.741 251.638 148.344C252.257 147.94 253.081 147.739 254.109 147.739C255.001 147.739 255.783 147.918 256.453 148.276C257.124 148.628 257.643 149.17 258.013 149.903C258.388 150.631 258.575 151.557 258.575 152.682V161H256.564V152.818C256.564 151.778 256.294 150.974 255.754 150.406C255.22 149.832 254.479 149.545 253.53 149.545C252.871 149.545 252.28 149.685 251.757 149.963C251.24 150.241 250.831 150.648 250.53 151.182C250.234 151.716 250.087 152.364 250.087 153.125ZM262.255 161V147.909H264.266V161H262.255ZM263.278 145.727C262.886 145.727 262.548 145.594 262.263 145.327C261.985 145.06 261.846 144.739 261.846 144.364C261.846 143.989 261.985 143.668 262.263 143.401C262.548 143.134 262.886 143 263.278 143C263.67 143 264.005 143.134 264.283 143.401C264.567 143.668 264.71 143.989 264.71 144.364C264.71 144.739 264.567 145.06 264.283 145.327C264.005 145.594 263.67 145.727 263.278 145.727ZM277.223 150.841L275.416 151.352C275.303 151.051 275.135 150.759 274.913 150.474C274.697 150.185 274.402 149.946 274.027 149.759C273.652 149.571 273.172 149.477 272.587 149.477C271.786 149.477 271.118 149.662 270.584 150.031C270.055 150.395 269.791 150.858 269.791 151.42C269.791 151.92 269.973 152.315 270.337 152.605C270.7 152.895 271.268 153.136 272.041 153.33L273.984 153.807C275.155 154.091 276.027 154.526 276.601 155.111C277.175 155.69 277.462 156.437 277.462 157.352C277.462 158.102 277.246 158.773 276.814 159.364C276.388 159.955 275.791 160.42 275.024 160.761C274.257 161.102 273.365 161.273 272.348 161.273C271.013 161.273 269.908 160.983 269.033 160.403C268.158 159.824 267.604 158.977 267.371 157.864L269.28 157.386C269.462 158.091 269.805 158.619 270.311 158.972C270.822 159.324 271.49 159.5 272.314 159.5C273.251 159.5 273.996 159.301 274.547 158.903C275.104 158.5 275.382 158.017 275.382 157.455C275.382 157 275.223 156.619 274.905 156.312C274.587 156 274.098 155.767 273.439 155.614L271.257 155.102C270.058 154.818 269.178 154.378 268.615 153.781C268.058 153.179 267.78 152.426 267.78 151.523C267.78 150.784 267.987 150.131 268.402 149.562C268.822 148.994 269.393 148.548 270.115 148.224C270.842 147.901 271.666 147.739 272.587 147.739C273.882 147.739 274.899 148.023 275.638 148.591C276.382 149.159 276.911 149.909 277.223 150.841ZM287.239 161V147.909H289.183V149.955H289.353C289.626 149.256 290.066 148.713 290.674 148.327C291.282 147.935 292.012 147.739 292.864 147.739C293.728 147.739 294.447 147.935 295.021 148.327C295.6 148.713 296.052 149.256 296.376 149.955H296.512C296.847 149.278 297.35 148.741 298.021 148.344C298.691 147.94 299.495 147.739 300.433 147.739C301.603 147.739 302.56 148.105 303.305 148.838C304.049 149.565 304.421 150.699 304.421 152.239V161H302.41V152.239C302.41 151.273 302.146 150.582 301.617 150.168C301.089 149.753 300.467 149.545 299.751 149.545C298.83 149.545 298.117 149.824 297.612 150.381C297.106 150.932 296.853 151.631 296.853 152.477V161H294.808V152.034C294.808 151.29 294.566 150.69 294.083 150.236C293.6 149.776 292.978 149.545 292.217 149.545C291.694 149.545 291.205 149.685 290.751 149.963C290.302 150.241 289.938 150.628 289.66 151.122C289.387 151.611 289.251 152.176 289.251 152.818V161H287.239ZM313.417 161.273C312.235 161.273 311.198 160.991 310.306 160.429C309.42 159.866 308.727 159.08 308.227 158.068C307.732 157.057 307.485 155.875 307.485 154.523C307.485 153.159 307.732 151.969 308.227 150.952C308.727 149.935 309.42 149.145 310.306 148.582C311.198 148.02 312.235 147.739 313.417 147.739C314.599 147.739 315.633 148.02 316.519 148.582C317.411 149.145 318.104 149.935 318.599 150.952C319.099 151.969 319.349 153.159 319.349 154.523C319.349 155.875 319.099 157.057 318.599 158.068C318.104 159.08 317.411 159.866 316.519 160.429C315.633 160.991 314.599 161.273 313.417 161.273ZM313.417 159.466C314.315 159.466 315.053 159.236 315.633 158.776C316.212 158.315 316.641 157.71 316.92 156.96C317.198 156.21 317.337 155.398 317.337 154.523C317.337 153.648 317.198 152.832 316.92 152.077C316.641 151.321 316.212 150.71 315.633 150.244C315.053 149.778 314.315 149.545 313.417 149.545C312.519 149.545 311.781 149.778 311.201 150.244C310.621 150.71 310.192 151.321 309.914 152.077C309.636 152.832 309.496 153.648 309.496 154.523C309.496 155.398 309.636 156.21 309.914 156.96C310.192 157.71 310.621 158.315 311.201 158.776C311.781 159.236 312.519 159.466 313.417 159.466ZM322.419 161V147.909H324.362V149.955H324.533C324.805 149.256 325.246 148.713 325.854 148.327C326.462 147.935 327.192 147.739 328.044 147.739C328.908 147.739 329.626 147.935 330.2 148.327C330.78 148.713 331.232 149.256 331.555 149.955H331.692C332.027 149.278 332.53 148.741 333.2 148.344C333.871 147.94 334.675 147.739 335.612 147.739C336.783 147.739 337.74 148.105 338.484 148.838C339.229 149.565 339.601 150.699 339.601 152.239V161H337.589V152.239C337.589 151.273 337.325 150.582 336.797 150.168C336.268 149.753 335.646 149.545 334.93 149.545C334.01 149.545 333.297 149.824 332.791 150.381C332.286 150.932 332.033 151.631 332.033 152.477V161H329.987V152.034C329.987 151.29 329.746 150.69 329.263 150.236C328.78 149.776 328.158 149.545 327.396 149.545C326.874 149.545 326.385 149.685 325.93 149.963C325.482 150.241 325.118 150.628 324.839 151.122C324.567 151.611 324.43 152.176 324.43 152.818V161H322.419ZM348.767 161.273C347.506 161.273 346.418 160.994 345.503 160.438C344.594 159.875 343.892 159.091 343.398 158.085C342.909 157.074 342.665 155.898 342.665 154.557C342.665 153.216 342.909 152.034 343.398 151.011C343.892 149.983 344.58 149.182 345.46 148.608C346.347 148.028 347.381 147.739 348.562 147.739C349.244 147.739 349.918 147.852 350.582 148.08C351.247 148.307 351.852 148.676 352.398 149.188C352.943 149.693 353.378 150.364 353.702 151.199C354.026 152.034 354.188 153.062 354.188 154.284V155.136H344.097V153.398H352.142C352.142 152.659 351.994 152 351.699 151.42C351.409 150.841 350.994 150.384 350.455 150.048C349.92 149.713 349.29 149.545 348.562 149.545C347.761 149.545 347.068 149.744 346.483 150.142C345.903 150.534 345.457 151.045 345.145 151.676C344.832 152.307 344.676 152.983 344.676 153.705V154.864C344.676 155.852 344.847 156.69 345.188 157.378C345.534 158.06 346.014 158.58 346.628 158.938C347.241 159.29 347.955 159.466 348.767 159.466C349.295 159.466 349.773 159.392 350.199 159.244C350.631 159.091 351.003 158.864 351.315 158.562C351.628 158.256 351.869 157.875 352.04 157.42L353.983 157.966C353.778 158.625 353.435 159.205 352.952 159.705C352.469 160.199 351.872 160.585 351.162 160.864C350.452 161.136 349.653 161.273 348.767 161.273ZM359.259 153.125V161H357.247V147.909H359.19V149.955H359.361C359.668 149.29 360.134 148.756 360.759 148.352C361.384 147.943 362.19 147.739 363.179 147.739C364.065 147.739 364.841 147.92 365.506 148.284C366.17 148.642 366.688 149.188 367.057 149.92C367.426 150.648 367.611 151.568 367.611 152.682V161H365.599V152.818C365.599 151.79 365.332 150.989 364.798 150.415C364.264 149.835 363.531 149.545 362.599 149.545C361.957 149.545 361.384 149.685 360.878 149.963C360.378 150.241 359.983 150.648 359.693 151.182C359.403 151.716 359.259 152.364 359.259 153.125ZM376.979 147.909V149.614H370.195V147.909H376.979ZM372.173 144.773H374.184V157.25C374.184 157.818 374.266 158.244 374.431 158.528C374.602 158.807 374.817 158.994 375.079 159.091C375.346 159.182 375.627 159.227 375.923 159.227C376.144 159.227 376.326 159.216 376.468 159.193C376.61 159.165 376.724 159.142 376.809 159.125L377.218 160.932C377.082 160.983 376.891 161.034 376.647 161.085C376.403 161.142 376.093 161.17 375.718 161.17C375.15 161.17 374.593 161.048 374.048 160.804C373.508 160.56 373.059 160.188 372.701 159.688C372.349 159.188 372.173 158.557 372.173 157.795V144.773ZM383.005 158.614L382.869 159.534C382.772 160.182 382.624 160.875 382.425 161.614C382.232 162.352 382.031 163.048 381.82 163.702C381.61 164.355 381.437 164.875 381.3 165.261H379.766C379.84 164.898 379.937 164.418 380.056 163.821C380.175 163.224 380.295 162.557 380.414 161.818C380.539 161.085 380.641 160.335 380.721 159.568L380.823 158.614H383.005ZM395.868 143.545V161H393.754V143.545H395.868ZM411.526 161.273C410.435 161.273 409.472 160.997 408.637 160.446C407.802 159.889 407.148 159.105 406.677 158.094C406.205 157.077 405.969 155.875 405.969 154.489C405.969 153.114 406.205 151.92 406.677 150.909C407.148 149.898 407.805 149.116 408.646 148.565C409.487 148.014 410.458 147.739 411.56 147.739C412.413 147.739 413.086 147.881 413.58 148.165C414.08 148.443 414.461 148.761 414.722 149.119C414.989 149.472 415.197 149.761 415.344 149.989H415.515V143.545H417.526V161H415.583V158.989H415.344C415.197 159.227 414.987 159.528 414.714 159.892C414.441 160.25 414.052 160.571 413.546 160.855C413.04 161.134 412.367 161.273 411.526 161.273ZM411.799 159.466C412.606 159.466 413.288 159.256 413.844 158.835C414.401 158.409 414.825 157.821 415.114 157.071C415.404 156.315 415.549 155.443 415.549 154.455C415.549 153.477 415.407 152.622 415.123 151.889C414.839 151.151 414.418 150.577 413.862 150.168C413.305 149.753 412.617 149.545 411.799 149.545C410.947 149.545 410.237 149.764 409.668 150.202C409.106 150.634 408.683 151.222 408.398 151.966C408.12 152.705 407.981 153.534 407.981 154.455C407.981 155.386 408.123 156.233 408.407 156.994C408.697 157.75 409.123 158.352 409.685 158.801C410.254 159.244 410.958 159.466 411.799 159.466ZM426.808 161.273C425.626 161.273 424.589 160.991 423.697 160.429C422.81 159.866 422.117 159.08 421.617 158.068C421.123 157.057 420.876 155.875 420.876 154.523C420.876 153.159 421.123 151.969 421.617 150.952C422.117 149.935 422.81 149.145 423.697 148.582C424.589 148.02 425.626 147.739 426.808 147.739C427.989 147.739 429.023 148.02 429.91 148.582C430.802 149.145 431.495 149.935 431.989 150.952C432.489 151.969 432.739 153.159 432.739 154.523C432.739 155.875 432.489 157.057 431.989 158.068C431.495 159.08 430.802 159.866 429.91 160.429C429.023 160.991 427.989 161.273 426.808 161.273ZM426.808 159.466C427.705 159.466 428.444 159.236 429.023 158.776C429.603 158.315 430.032 157.71 430.31 156.96C430.589 156.21 430.728 155.398 430.728 154.523C430.728 153.648 430.589 152.832 430.31 152.077C430.032 151.321 429.603 150.71 429.023 150.244C428.444 149.778 427.705 149.545 426.808 149.545C425.91 149.545 425.171 149.778 424.592 150.244C424.012 150.71 423.583 151.321 423.305 152.077C423.026 152.832 422.887 153.648 422.887 154.523C422.887 155.398 423.026 156.21 423.305 156.96C423.583 157.71 424.012 158.315 424.592 158.776C425.171 159.236 425.91 159.466 426.808 159.466ZM437.821 153.125V161H435.81V147.909H437.753V149.955H437.923C438.23 149.29 438.696 148.756 439.321 148.352C439.946 147.943 440.753 147.739 441.741 147.739C442.628 147.739 443.403 147.92 444.068 148.284C444.733 148.642 445.25 149.188 445.619 149.92C445.989 150.648 446.173 151.568 446.173 152.682V161H444.162V152.818C444.162 151.79 443.895 150.989 443.361 150.415C442.827 149.835 442.094 149.545 441.162 149.545C440.52 149.545 439.946 149.685 439.44 149.963C438.94 150.241 438.545 150.648 438.256 151.182C437.966 151.716 437.821 152.364 437.821 153.125ZM451.587 143.545V149.545H449.712V143.545H451.587ZM460.862 147.909V149.614H454.078V147.909H460.862ZM456.055 144.773H458.067V157.25C458.067 157.818 458.149 158.244 458.314 158.528C458.484 158.807 458.7 158.994 458.962 159.091C459.229 159.182 459.51 159.227 459.805 159.227C460.027 159.227 460.209 159.216 460.351 159.193C460.493 159.165 460.607 159.142 460.692 159.125L461.101 160.932C460.964 160.983 460.774 161.034 460.53 161.085C460.286 161.142 459.976 161.17 459.601 161.17C459.033 161.17 458.476 161.048 457.93 160.804C457.391 160.56 456.942 160.188 456.584 159.688C456.232 159.188 456.055 158.557 456.055 157.795V144.773ZM472.649 153.125V161H470.638V143.545H472.649V149.955H472.82C473.126 149.278 473.587 148.741 474.2 148.344C474.82 147.94 475.643 147.739 476.672 147.739C477.564 147.739 478.345 147.918 479.016 148.276C479.686 148.628 480.206 149.17 480.575 149.903C480.95 150.631 481.138 151.557 481.138 152.682V161H479.126V152.818C479.126 151.778 478.857 150.974 478.317 150.406C477.783 149.832 477.041 149.545 476.092 149.545C475.433 149.545 474.842 149.685 474.32 149.963C473.803 150.241 473.393 150.648 473.092 151.182C472.797 151.716 472.649 152.364 472.649 153.125ZM488.67 161.307C487.84 161.307 487.087 161.151 486.411 160.838C485.735 160.52 485.198 160.062 484.8 159.466C484.403 158.864 484.204 158.136 484.204 157.284C484.204 156.534 484.352 155.926 484.647 155.46C484.942 154.989 485.337 154.619 485.832 154.352C486.326 154.085 486.871 153.886 487.468 153.756C488.07 153.619 488.675 153.511 489.283 153.432C490.079 153.33 490.724 153.253 491.218 153.202C491.718 153.145 492.082 153.051 492.309 152.92C492.542 152.79 492.658 152.562 492.658 152.239V152.17C492.658 151.33 492.428 150.676 491.968 150.21C491.513 149.744 490.823 149.511 489.897 149.511C488.937 149.511 488.184 149.722 487.638 150.142C487.093 150.562 486.71 151.011 486.488 151.489L484.579 150.807C484.92 150.011 485.374 149.392 485.942 148.949C486.516 148.5 487.141 148.187 487.817 148.011C488.499 147.83 489.17 147.739 489.829 147.739C490.249 147.739 490.732 147.79 491.278 147.892C491.829 147.989 492.36 148.19 492.871 148.497C493.388 148.804 493.817 149.267 494.158 149.886C494.499 150.506 494.67 151.335 494.67 152.375V161H492.658V159.227H492.556C492.42 159.511 492.192 159.815 491.874 160.139C491.556 160.463 491.133 160.739 490.604 160.966C490.076 161.193 489.431 161.307 488.67 161.307ZM488.977 159.5C489.772 159.5 490.442 159.344 490.988 159.031C491.539 158.719 491.954 158.315 492.232 157.821C492.516 157.327 492.658 156.807 492.658 156.261V154.42C492.573 154.523 492.386 154.616 492.096 154.702C491.812 154.781 491.482 154.852 491.107 154.915C490.738 154.972 490.377 155.023 490.025 155.068C489.678 155.108 489.397 155.142 489.181 155.17C488.658 155.239 488.17 155.349 487.715 155.503C487.266 155.651 486.903 155.875 486.624 156.176C486.352 156.472 486.215 156.875 486.215 157.386C486.215 158.085 486.474 158.614 486.991 158.972C487.513 159.324 488.175 159.5 488.977 159.5ZM508.577 147.909L503.736 161H501.69L496.849 147.909H499.031L502.645 158.341H502.781L506.395 147.909H508.577ZM516.251 161.273C514.99 161.273 513.902 160.994 512.987 160.438C512.078 159.875 511.376 159.091 510.882 158.085C510.393 157.074 510.149 155.898 510.149 154.557C510.149 153.216 510.393 152.034 510.882 151.011C511.376 149.983 512.064 149.182 512.945 148.608C513.831 148.028 514.865 147.739 516.047 147.739C516.729 147.739 517.402 147.852 518.067 148.08C518.732 148.307 519.337 148.676 519.882 149.188C520.428 149.693 520.862 150.364 521.186 151.199C521.51 152.034 521.672 153.062 521.672 154.284V155.136H511.581V153.398H519.626C519.626 152.659 519.479 152 519.183 151.42C518.893 150.841 518.479 150.384 517.939 150.048C517.405 149.713 516.774 149.545 516.047 149.545C515.246 149.545 514.553 149.744 513.967 150.142C513.388 150.534 512.942 151.045 512.629 151.676C512.317 152.307 512.161 152.983 512.161 153.705V154.864C512.161 155.852 512.331 156.69 512.672 157.378C513.018 158.06 513.499 158.58 514.112 158.938C514.726 159.29 515.439 159.466 516.251 159.466C516.78 159.466 517.257 159.392 517.683 159.244C518.115 159.091 518.487 158.864 518.8 158.562C519.112 158.256 519.354 157.875 519.524 157.42L521.467 157.966C521.263 158.625 520.919 159.205 520.436 159.705C519.953 160.199 519.357 160.585 518.646 160.864C517.936 161.136 517.138 161.273 516.251 161.273ZM97.3295 190.273C96.0682 190.273 94.9801 189.994 94.0653 189.438C93.1562 188.875 92.4545 188.091 91.9602 187.085C91.4716 186.074 91.2273 184.898 91.2273 183.557C91.2273 182.216 91.4716 181.034 91.9602 180.011C92.4545 178.983 93.142 178.182 94.0227 177.608C94.9091 177.028 95.9432 176.739 97.125 176.739C97.8068 176.739 98.4801 176.852 99.1449 177.08C99.8097 177.307 100.415 177.676 100.96 178.188C101.506 178.693 101.94 179.364 102.264 180.199C102.588 181.034 102.75 182.062 102.75 183.284V184.136H92.6591V182.398H100.705C100.705 181.659 100.557 181 100.261 180.42C99.9716 179.841 99.5568 179.384 99.017 179.048C98.483 178.713 97.8523 178.545 97.125 178.545C96.3239 178.545 95.6307 178.744 95.0455 179.142C94.4659 179.534 94.0199 180.045 93.7074 180.676C93.3949 181.307 93.2386 181.983 93.2386 182.705V183.864C93.2386 184.852 93.4091 185.69 93.75 186.378C94.0966 187.06 94.5767 187.58 95.1903 187.938C95.804 188.29 96.517 188.466 97.3295 188.466C97.858 188.466 98.3352 188.392 98.7614 188.244C99.1932 188.091 99.5653 187.864 99.8778 187.562C100.19 187.256 100.432 186.875 100.602 186.42L102.545 186.966C102.341 187.625 101.997 188.205 101.514 188.705C101.031 189.199 100.435 189.585 99.7244 189.864C99.0142 190.136 98.2159 190.273 97.3295 190.273ZM107.821 182.125V190H105.81V176.909H107.753V178.955H107.923C108.23 178.29 108.696 177.756 109.321 177.352C109.946 176.943 110.753 176.739 111.741 176.739C112.628 176.739 113.403 176.92 114.068 177.284C114.733 177.642 115.25 178.188 115.619 178.92C115.989 179.648 116.173 180.568 116.173 181.682V190H114.162V181.818C114.162 180.79 113.895 179.989 113.361 179.415C112.827 178.835 112.094 178.545 111.162 178.545C110.52 178.545 109.946 178.685 109.44 178.963C108.94 179.241 108.545 179.648 108.256 180.182C107.966 180.716 107.821 181.364 107.821 182.125ZM125.167 190.273C123.985 190.273 122.948 189.991 122.056 189.429C121.17 188.866 120.477 188.08 119.977 187.068C119.482 186.057 119.235 184.875 119.235 183.523C119.235 182.159 119.482 180.969 119.977 179.952C120.477 178.935 121.17 178.145 122.056 177.582C122.948 177.02 123.985 176.739 125.167 176.739C126.349 176.739 127.383 177.02 128.269 177.582C129.161 178.145 129.854 178.935 130.349 179.952C130.849 180.969 131.099 182.159 131.099 183.523C131.099 184.875 130.849 186.057 130.349 187.068C129.854 188.08 129.161 188.866 128.269 189.429C127.383 189.991 126.349 190.273 125.167 190.273ZM125.167 188.466C126.065 188.466 126.803 188.236 127.383 187.776C127.962 187.315 128.391 186.71 128.67 185.96C128.948 185.21 129.087 184.398 129.087 183.523C129.087 182.648 128.948 181.832 128.67 181.077C128.391 180.321 127.962 179.71 127.383 179.244C126.803 178.778 126.065 178.545 125.167 178.545C124.269 178.545 123.531 178.778 122.951 179.244C122.371 179.71 121.942 180.321 121.664 181.077C121.386 181.832 121.246 182.648 121.246 183.523C121.246 184.398 121.386 185.21 121.664 185.96C121.942 186.71 122.371 187.315 122.951 187.776C123.531 188.236 124.269 188.466 125.167 188.466ZM142.419 184.648V176.909H144.43V190H142.419V187.784H142.283C141.976 188.449 141.499 189.014 140.851 189.48C140.203 189.94 139.385 190.17 138.396 190.17C137.578 190.17 136.851 189.991 136.214 189.634C135.578 189.27 135.078 188.724 134.714 187.997C134.351 187.264 134.169 186.341 134.169 185.227V176.909H136.18V185.091C136.18 186.045 136.447 186.807 136.982 187.375C137.521 187.943 138.209 188.227 139.044 188.227C139.544 188.227 140.053 188.099 140.57 187.844C141.092 187.588 141.53 187.196 141.882 186.668C142.24 186.139 142.419 185.466 142.419 184.648ZM153.398 195.182C152.427 195.182 151.592 195.057 150.893 194.807C150.194 194.562 149.612 194.239 149.146 193.835C148.685 193.438 148.319 193.011 148.046 192.557L149.648 191.432C149.83 191.67 150.06 191.943 150.339 192.25C150.617 192.562 150.998 192.832 151.481 193.06C151.969 193.293 152.609 193.409 153.398 193.409C154.455 193.409 155.327 193.153 156.015 192.642C156.702 192.131 157.046 191.33 157.046 190.239V187.58H156.876C156.728 187.818 156.518 188.114 156.245 188.466C155.978 188.812 155.592 189.122 155.086 189.395C154.586 189.662 153.91 189.795 153.058 189.795C152.001 189.795 151.052 189.545 150.211 189.045C149.376 188.545 148.714 187.818 148.225 186.864C147.742 185.909 147.501 184.75 147.501 183.386C147.501 182.045 147.737 180.878 148.208 179.884C148.68 178.884 149.336 178.111 150.177 177.565C151.018 177.014 151.989 176.739 153.092 176.739C153.944 176.739 154.62 176.881 155.12 177.165C155.626 177.443 156.012 177.761 156.279 178.119C156.552 178.472 156.762 178.761 156.91 178.989H157.114V176.909H159.058V190.375C159.058 191.5 158.802 192.415 158.29 193.119C157.785 193.83 157.103 194.349 156.245 194.679C155.393 195.014 154.444 195.182 153.398 195.182ZM153.33 187.989C154.137 187.989 154.819 187.804 155.376 187.435C155.933 187.065 156.356 186.534 156.646 185.841C156.935 185.148 157.08 184.318 157.08 183.352C157.08 182.409 156.938 181.577 156.654 180.855C156.37 180.134 155.95 179.568 155.393 179.159C154.836 178.75 154.148 178.545 153.33 178.545C152.478 178.545 151.768 178.761 151.2 179.193C150.637 179.625 150.214 180.205 149.93 180.932C149.651 181.659 149.512 182.466 149.512 183.352C149.512 184.261 149.654 185.065 149.938 185.764C150.228 186.457 150.654 187.003 151.217 187.401C151.785 187.793 152.489 187.989 153.33 187.989ZM164.751 182.125V190H162.739V172.545H164.751V178.955H164.921C165.228 178.278 165.688 177.741 166.302 177.344C166.921 176.94 167.745 176.739 168.773 176.739C169.665 176.739 170.447 176.918 171.117 177.276C171.788 177.628 172.308 178.17 172.677 178.903C173.052 179.631 173.239 180.557 173.239 181.682V190H171.228V181.818C171.228 180.778 170.958 179.974 170.418 179.406C169.884 178.832 169.143 178.545 168.194 178.545C167.535 178.545 166.944 178.685 166.421 178.963C165.904 179.241 165.495 179.648 165.194 180.182C164.898 180.716 164.751 181.364 164.751 182.125ZM183.669 190V176.909H185.68V190H183.669ZM184.692 174.727C184.3 174.727 183.962 174.594 183.678 174.327C183.399 174.06 183.26 173.739 183.26 173.364C183.26 172.989 183.399 172.668 183.678 172.401C183.962 172.134 184.3 172 184.692 172C185.084 172 185.419 172.134 185.697 172.401C185.982 172.668 186.124 172.989 186.124 173.364C186.124 173.739 185.982 174.06 185.697 174.327C185.419 174.594 185.084 174.727 184.692 174.727ZM191.376 182.125V190H189.364V176.909H191.308V178.955H191.478C191.785 178.29 192.251 177.756 192.876 177.352C193.501 176.943 194.308 176.739 195.296 176.739C196.183 176.739 196.958 176.92 197.623 177.284C198.288 177.642 198.805 178.188 199.174 178.92C199.543 179.648 199.728 180.568 199.728 181.682V190H197.717V181.818C197.717 180.79 197.45 179.989 196.915 179.415C196.381 178.835 195.648 178.545 194.717 178.545C194.075 178.545 193.501 178.685 192.995 178.963C192.495 179.241 192.1 179.648 191.81 180.182C191.521 180.716 191.376 181.364 191.376 182.125ZM209.233 176.909V178.614H202.176V176.909H209.233ZM204.29 190V175.102C204.29 174.352 204.466 173.727 204.818 173.227C205.17 172.727 205.628 172.352 206.19 172.102C206.753 171.852 207.347 171.727 207.972 171.727C208.466 171.727 208.869 171.767 209.182 171.847C209.494 171.926 209.727 172 209.881 172.068L209.301 173.807C209.199 173.773 209.057 173.73 208.875 173.679C208.699 173.628 208.466 173.602 208.176 173.602C207.511 173.602 207.031 173.77 206.736 174.105C206.446 174.44 206.301 174.932 206.301 175.58V190H204.29ZM216.831 190.273C215.649 190.273 214.612 189.991 213.72 189.429C212.834 188.866 212.141 188.08 211.641 187.068C211.146 186.057 210.899 184.875 210.899 183.523C210.899 182.159 211.146 180.969 211.641 179.952C212.141 178.935 212.834 178.145 213.72 177.582C214.612 177.02 215.649 176.739 216.831 176.739C218.013 176.739 219.047 177.02 219.933 177.582C220.825 178.145 221.518 178.935 222.013 179.952C222.513 180.969 222.763 182.159 222.763 183.523C222.763 184.875 222.513 186.057 222.013 187.068C221.518 188.08 220.825 188.866 219.933 189.429C219.047 189.991 218.013 190.273 216.831 190.273ZM216.831 188.466C217.729 188.466 218.467 188.236 219.047 187.776C219.626 187.315 220.055 186.71 220.334 185.96C220.612 185.21 220.751 184.398 220.751 183.523C220.751 182.648 220.612 181.832 220.334 181.077C220.055 180.321 219.626 179.71 219.047 179.244C218.467 178.778 217.729 178.545 216.831 178.545C215.933 178.545 215.195 178.778 214.615 179.244C214.036 179.71 213.607 180.321 213.328 181.077C213.05 181.832 212.911 182.648 212.911 183.523C212.911 184.398 213.05 185.21 213.328 185.96C213.607 186.71 214.036 187.315 214.615 187.776C215.195 188.236 215.933 188.466 216.831 188.466ZM225.833 190V176.909H227.776V178.886H227.913C228.151 178.239 228.583 177.713 229.208 177.31C229.833 176.906 230.538 176.705 231.322 176.705C231.469 176.705 231.654 176.707 231.876 176.713C232.097 176.719 232.265 176.727 232.379 176.739V178.784C232.31 178.767 232.154 178.741 231.91 178.707C231.671 178.668 231.418 178.648 231.151 178.648C230.515 178.648 229.947 178.781 229.447 179.048C228.952 179.31 228.56 179.673 228.271 180.139C227.987 180.599 227.844 181.125 227.844 181.716V190H225.833ZM234.763 190V176.909H236.706V178.955H236.876C237.149 178.256 237.589 177.713 238.197 177.327C238.805 176.935 239.536 176.739 240.388 176.739C241.251 176.739 241.97 176.935 242.544 177.327C243.124 177.713 243.575 178.256 243.899 178.955H244.036C244.371 178.278 244.874 177.741 245.544 177.344C246.214 176.94 247.018 176.739 247.956 176.739C249.126 176.739 250.084 177.105 250.828 177.838C251.572 178.565 251.945 179.699 251.945 181.239V190H249.933V181.239C249.933 180.273 249.669 179.582 249.141 179.168C248.612 178.753 247.99 178.545 247.274 178.545C246.354 178.545 245.641 178.824 245.135 179.381C244.629 179.932 244.376 180.631 244.376 181.477V190H242.331V181.034C242.331 180.29 242.089 179.69 241.607 179.236C241.124 178.776 240.501 178.545 239.74 178.545C239.217 178.545 238.729 178.685 238.274 178.963C237.825 179.241 237.462 179.628 237.183 180.122C236.911 180.611 236.774 181.176 236.774 181.818V190H234.763ZM259.474 190.307C258.645 190.307 257.892 190.151 257.216 189.838C256.54 189.52 256.003 189.062 255.605 188.466C255.207 187.864 255.009 187.136 255.009 186.284C255.009 185.534 255.156 184.926 255.452 184.46C255.747 183.989 256.142 183.619 256.636 183.352C257.131 183.085 257.676 182.886 258.273 182.756C258.875 182.619 259.48 182.511 260.088 182.432C260.884 182.33 261.528 182.253 262.023 182.202C262.523 182.145 262.886 182.051 263.114 181.92C263.347 181.79 263.463 181.562 263.463 181.239V181.17C263.463 180.33 263.233 179.676 262.773 179.21C262.318 178.744 261.628 178.511 260.702 178.511C259.741 178.511 258.989 178.722 258.443 179.142C257.898 179.562 257.514 180.011 257.293 180.489L255.384 179.807C255.724 179.011 256.179 178.392 256.747 177.949C257.321 177.5 257.946 177.187 258.622 177.011C259.304 176.83 259.974 176.739 260.634 176.739C261.054 176.739 261.537 176.79 262.082 176.892C262.634 176.989 263.165 177.19 263.676 177.497C264.193 177.804 264.622 178.267 264.963 178.886C265.304 179.506 265.474 180.335 265.474 181.375V190H263.463V188.227H263.361C263.224 188.511 262.997 188.815 262.679 189.139C262.361 189.463 261.938 189.739 261.409 189.966C260.881 190.193 260.236 190.307 259.474 190.307ZM259.781 188.5C260.577 188.5 261.247 188.344 261.793 188.031C262.344 187.719 262.759 187.315 263.037 186.821C263.321 186.327 263.463 185.807 263.463 185.261V183.42C263.378 183.523 263.19 183.616 262.901 183.702C262.616 183.781 262.287 183.852 261.912 183.915C261.543 183.972 261.182 184.023 260.83 184.068C260.483 184.108 260.202 184.142 259.986 184.17C259.463 184.239 258.974 184.349 258.52 184.503C258.071 184.651 257.707 184.875 257.429 185.176C257.156 185.472 257.02 185.875 257.02 186.386C257.02 187.085 257.278 187.614 257.795 187.972C258.318 188.324 258.98 188.5 259.781 188.5ZM274.839 176.909V178.614H268.055V176.909H274.839ZM270.032 173.773H272.043V186.25C272.043 186.818 272.126 187.244 272.29 187.528C272.461 187.807 272.677 187.994 272.938 188.091C273.205 188.182 273.487 188.227 273.782 188.227C274.004 188.227 274.185 188.216 274.327 188.193C274.469 188.165 274.583 188.142 274.668 188.125L275.077 189.932C274.941 189.983 274.751 190.034 274.506 190.085C274.262 190.142 273.952 190.17 273.577 190.17C273.009 190.17 272.452 190.048 271.907 189.804C271.367 189.56 270.918 189.188 270.56 188.688C270.208 188.188 270.032 187.557 270.032 186.795V173.773ZM277.864 190V176.909H279.876V190H277.864ZM278.887 174.727C278.495 174.727 278.157 174.594 277.873 174.327C277.594 174.06 277.455 173.739 277.455 173.364C277.455 172.989 277.594 172.668 277.873 172.401C278.157 172.134 278.495 172 278.887 172C279.279 172 279.614 172.134 279.893 172.401C280.177 172.668 280.319 172.989 280.319 173.364C280.319 173.739 280.177 174.06 279.893 174.327C279.614 174.594 279.279 174.727 278.887 174.727ZM288.878 190.273C287.696 190.273 286.659 189.991 285.767 189.429C284.881 188.866 284.188 188.08 283.688 187.068C283.193 186.057 282.946 184.875 282.946 183.523C282.946 182.159 283.193 180.969 283.688 179.952C284.188 178.935 284.881 178.145 285.767 177.582C286.659 177.02 287.696 176.739 288.878 176.739C290.06 176.739 291.094 177.02 291.98 177.582C292.872 178.145 293.565 178.935 294.06 179.952C294.56 180.969 294.81 182.159 294.81 183.523C294.81 184.875 294.56 186.057 294.06 187.068C293.565 188.08 292.872 188.866 291.98 189.429C291.094 189.991 290.06 190.273 288.878 190.273ZM288.878 188.466C289.776 188.466 290.514 188.236 291.094 187.776C291.673 187.315 292.102 186.71 292.381 185.96C292.659 185.21 292.798 184.398 292.798 183.523C292.798 182.648 292.659 181.832 292.381 181.077C292.102 180.321 291.673 179.71 291.094 179.244C290.514 178.778 289.776 178.545 288.878 178.545C287.98 178.545 287.241 178.778 286.662 179.244C286.082 179.71 285.653 180.321 285.375 181.077C285.097 181.832 284.957 182.648 284.957 183.523C284.957 184.398 285.097 185.21 285.375 185.96C285.653 186.71 286.082 187.315 286.662 187.776C287.241 188.236 287.98 188.466 288.878 188.466ZM299.891 182.125V190H297.88V176.909H299.823V178.955H299.994C300.3 178.29 300.766 177.756 301.391 177.352C302.016 176.943 302.823 176.739 303.812 176.739C304.698 176.739 305.474 176.92 306.138 177.284C306.803 177.642 307.32 178.188 307.69 178.92C308.059 179.648 308.244 180.568 308.244 181.682V190H306.232V181.818C306.232 180.79 305.965 179.989 305.431 179.415C304.897 178.835 304.164 178.545 303.232 178.545C302.59 178.545 302.016 178.685 301.511 178.963C301.011 179.241 300.616 179.648 300.326 180.182C300.036 180.716 299.891 181.364 299.891 182.125ZM322.521 190.307C321.692 190.307 320.939 190.151 320.263 189.838C319.587 189.52 319.05 189.062 318.652 188.466C318.254 187.864 318.055 187.136 318.055 186.284C318.055 185.534 318.203 184.926 318.499 184.46C318.794 183.989 319.189 183.619 319.683 183.352C320.178 183.085 320.723 182.886 321.32 182.756C321.922 182.619 322.527 182.511 323.135 182.432C323.93 182.33 324.575 182.253 325.07 182.202C325.57 182.145 325.933 182.051 326.161 181.92C326.393 181.79 326.51 181.562 326.51 181.239V181.17C326.51 180.33 326.28 179.676 325.82 179.21C325.365 178.744 324.675 178.511 323.749 178.511C322.788 178.511 322.036 178.722 321.49 179.142C320.945 179.562 320.561 180.011 320.339 180.489L318.43 179.807C318.771 179.011 319.226 178.392 319.794 177.949C320.368 177.5 320.993 177.187 321.669 177.011C322.351 176.83 323.021 176.739 323.68 176.739C324.101 176.739 324.584 176.79 325.129 176.892C325.68 176.989 326.212 177.19 326.723 177.497C327.24 177.804 327.669 178.267 328.01 178.886C328.351 179.506 328.521 180.335 328.521 181.375V190H326.51V188.227H326.408C326.271 188.511 326.044 188.815 325.726 189.139C325.408 189.463 324.984 189.739 324.456 189.966C323.928 190.193 323.283 190.307 322.521 190.307ZM322.828 188.5C323.624 188.5 324.294 188.344 324.839 188.031C325.391 187.719 325.805 187.315 326.084 186.821C326.368 186.327 326.51 185.807 326.51 185.261V183.42C326.425 183.523 326.237 183.616 325.947 183.702C325.663 183.781 325.334 183.852 324.959 183.915C324.589 183.972 324.229 184.023 323.876 184.068C323.53 184.108 323.249 184.142 323.033 184.17C322.51 184.239 322.021 184.349 321.567 184.503C321.118 184.651 320.754 184.875 320.476 185.176C320.203 185.472 320.067 185.875 320.067 186.386C320.067 187.085 320.325 187.614 320.842 187.972C321.365 188.324 322.027 188.5 322.828 188.5ZM332.465 190V172.545H334.477V178.989H334.647C334.795 178.761 334.999 178.472 335.261 178.119C335.528 177.761 335.908 177.443 336.403 177.165C336.903 176.881 337.579 176.739 338.431 176.739C339.533 176.739 340.505 177.014 341.346 177.565C342.187 178.116 342.843 178.898 343.315 179.909C343.786 180.92 344.022 182.114 344.022 183.489C344.022 184.875 343.786 186.077 343.315 187.094C342.843 188.105 342.19 188.889 341.354 189.446C340.519 189.997 339.556 190.273 338.465 190.273C337.624 190.273 336.951 190.134 336.445 189.855C335.94 189.571 335.55 189.25 335.278 188.892C335.005 188.528 334.795 188.227 334.647 187.989H334.408V190H332.465ZM334.442 183.455C334.442 184.443 334.587 185.315 334.877 186.071C335.167 186.821 335.59 187.409 336.147 187.835C336.704 188.256 337.386 188.466 338.192 188.466C339.033 188.466 339.735 188.244 340.298 187.801C340.866 187.352 341.292 186.75 341.576 185.994C341.866 185.233 342.011 184.386 342.011 183.455C342.011 182.534 341.869 181.705 341.585 180.966C341.306 180.222 340.883 179.634 340.315 179.202C339.752 178.764 339.045 178.545 338.192 178.545C337.374 178.545 336.687 178.753 336.13 179.168C335.573 179.577 335.153 180.151 334.869 180.889C334.585 181.622 334.442 182.477 334.442 183.455ZM352.417 190.273C351.235 190.273 350.198 189.991 349.306 189.429C348.42 188.866 347.727 188.08 347.227 187.068C346.732 186.057 346.485 184.875 346.485 183.523C346.485 182.159 346.732 180.969 347.227 179.952C347.727 178.935 348.42 178.145 349.306 177.582C350.198 177.02 351.235 176.739 352.417 176.739C353.599 176.739 354.633 177.02 355.519 177.582C356.411 178.145 357.104 178.935 357.599 179.952C358.099 180.969 358.349 182.159 358.349 183.523C358.349 184.875 358.099 186.057 357.599 187.068C357.104 188.08 356.411 188.866 355.519 189.429C354.633 189.991 353.599 190.273 352.417 190.273ZM352.417 188.466C353.315 188.466 354.053 188.236 354.633 187.776C355.212 187.315 355.641 186.71 355.92 185.96C356.198 185.21 356.337 184.398 356.337 183.523C356.337 182.648 356.198 181.832 355.92 181.077C355.641 180.321 355.212 179.71 354.633 179.244C354.053 178.778 353.315 178.545 352.417 178.545C351.519 178.545 350.781 178.778 350.201 179.244C349.621 179.71 349.192 180.321 348.914 181.077C348.636 181.832 348.496 182.648 348.496 183.523C348.496 184.398 348.636 185.21 348.914 185.96C349.192 186.71 349.621 187.315 350.201 187.776C350.781 188.236 351.519 188.466 352.417 188.466ZM369.669 184.648V176.909H371.68V190H369.669V187.784H369.533C369.226 188.449 368.749 189.014 368.101 189.48C367.453 189.94 366.635 190.17 365.646 190.17C364.828 190.17 364.101 189.991 363.464 189.634C362.828 189.27 362.328 188.724 361.964 187.997C361.601 187.264 361.419 186.341 361.419 185.227V176.909H363.43V185.091C363.43 186.045 363.697 186.807 364.232 187.375C364.771 187.943 365.459 188.227 366.294 188.227C366.794 188.227 367.303 188.099 367.82 187.844C368.342 187.588 368.78 187.196 369.132 186.668C369.49 186.139 369.669 185.466 369.669 184.648ZM381.058 176.909V178.614H374.273V176.909H381.058ZM376.251 173.773H378.262V186.25C378.262 186.818 378.344 187.244 378.509 187.528C378.68 187.807 378.896 187.994 379.157 188.091C379.424 188.182 379.705 188.227 380.001 188.227C380.222 188.227 380.404 188.216 380.546 188.193C380.688 188.165 380.802 188.142 380.887 188.125L381.296 189.932C381.16 189.983 380.969 190.034 380.725 190.085C380.481 190.142 380.171 190.17 379.796 190.17C379.228 190.17 378.671 190.048 378.126 189.804C377.586 189.56 377.137 189.188 376.779 188.688C376.427 188.188 376.251 187.557 376.251 186.795V173.773ZM396.526 176.909V178.614H389.742V176.909H396.526ZM391.719 173.773H393.731V186.25C393.731 186.818 393.813 187.244 393.978 187.528C394.148 187.807 394.364 187.994 394.626 188.091C394.893 188.182 395.174 188.227 395.469 188.227C395.691 188.227 395.873 188.216 396.015 188.193C396.157 188.165 396.271 188.142 396.356 188.125L396.765 189.932C396.629 189.983 396.438 190.034 396.194 190.085C395.95 190.142 395.64 190.17 395.265 190.17C394.697 190.17 394.14 190.048 393.594 189.804C393.055 189.56 392.606 189.188 392.248 188.688C391.896 188.188 391.719 187.557 391.719 186.795V173.773ZM401.844 182.125V190H399.833V172.545H401.844V178.955H402.015C402.322 178.278 402.782 177.741 403.396 177.344C404.015 176.94 404.839 176.739 405.867 176.739C406.759 176.739 407.54 176.918 408.211 177.276C408.881 177.628 409.401 178.17 409.771 178.903C410.146 179.631 410.333 180.557 410.333 181.682V190H408.322V181.818C408.322 180.778 408.052 179.974 407.512 179.406C406.978 178.832 406.237 178.545 405.288 178.545C404.629 178.545 404.038 178.685 403.515 178.963C402.998 179.241 402.589 179.648 402.288 180.182C401.992 180.716 401.844 181.364 401.844 182.125ZM417.865 190.307C417.036 190.307 416.283 190.151 415.607 189.838C414.93 189.52 414.393 189.062 413.996 188.466C413.598 187.864 413.399 187.136 413.399 186.284C413.399 185.534 413.547 184.926 413.842 184.46C414.138 183.989 414.533 183.619 415.027 183.352C415.521 183.085 416.067 182.886 416.663 182.756C417.266 182.619 417.871 182.511 418.479 182.432C419.274 182.33 419.919 182.253 420.413 182.202C420.913 182.145 421.277 182.051 421.504 181.92C421.737 181.79 421.854 181.562 421.854 181.239V181.17C421.854 180.33 421.624 179.676 421.163 179.21C420.709 178.744 420.018 178.511 419.092 178.511C418.132 178.511 417.379 178.722 416.834 179.142C416.288 179.562 415.905 180.011 415.683 180.489L413.774 179.807C414.115 179.011 414.57 178.392 415.138 177.949C415.712 177.5 416.337 177.187 417.013 177.011C417.695 176.83 418.365 176.739 419.024 176.739C419.445 176.739 419.928 176.79 420.473 176.892C421.024 176.989 421.555 177.19 422.067 177.497C422.584 177.804 423.013 178.267 423.354 178.886C423.695 179.506 423.865 180.335 423.865 181.375V190H421.854V188.227H421.751C421.615 188.511 421.388 188.815 421.07 189.139C420.751 189.463 420.328 189.739 419.8 189.966C419.271 190.193 418.626 190.307 417.865 190.307ZM418.172 188.5C418.967 188.5 419.638 188.344 420.183 188.031C420.734 187.719 421.149 187.315 421.428 186.821C421.712 186.327 421.854 185.807 421.854 185.261V183.42C421.768 183.523 421.581 183.616 421.291 183.702C421.007 183.781 420.678 183.852 420.303 183.915C419.933 183.972 419.572 184.023 419.22 184.068C418.874 184.108 418.592 184.142 418.376 184.17C417.854 184.239 417.365 184.349 416.911 184.503C416.462 184.651 416.098 184.875 415.82 185.176C415.547 185.472 415.411 185.875 415.411 186.386C415.411 187.085 415.669 187.614 416.186 187.972C416.709 188.324 417.371 188.5 418.172 188.5ZM433.229 176.909V178.614H426.445V176.909H433.229ZM428.423 173.773H430.434V186.25C430.434 186.818 430.516 187.244 430.681 187.528C430.852 187.807 431.067 187.994 431.329 188.091C431.596 188.182 431.877 188.227 432.173 188.227C432.394 188.227 432.576 188.216 432.718 188.193C432.86 188.165 432.974 188.142 433.059 188.125L433.468 189.932C433.332 189.983 433.141 190.034 432.897 190.085C432.653 190.142 432.343 190.17 431.968 190.17C431.4 190.17 430.843 190.048 430.298 189.804C429.758 189.56 429.309 189.188 428.951 188.688C428.599 188.188 428.423 187.557 428.423 186.795V173.773ZM437.721 190.136C437.3 190.136 436.94 189.986 436.638 189.685C436.337 189.384 436.187 189.023 436.187 188.602C436.187 188.182 436.337 187.821 436.638 187.52C436.94 187.219 437.3 187.068 437.721 187.068C438.141 187.068 438.502 187.219 438.803 187.52C439.104 187.821 439.255 188.182 439.255 188.602C439.255 188.881 439.184 189.136 439.042 189.369C438.906 189.602 438.721 189.79 438.488 189.932C438.261 190.068 438.005 190.136 437.721 190.136Z" fill="#343541"/>
<rect x="24" y="252" width="519" height="54" rx="6" fill="white"/>
<path d="M522.942 274.058C522.784 273.902 522.586 273.792 522.37 273.74C522.154 273.689 521.928 273.698 521.717 273.767L509.525 277.833C509.299 277.905 509.099 278.042 508.951 278.227C508.803 278.412 508.713 278.637 508.692 278.873C508.671 279.11 508.721 279.347 508.836 279.555C508.95 279.763 509.123 279.932 509.333 280.042L514.392 282.542L516.892 287.617C516.992 287.815 517.146 287.982 517.336 288.098C517.526 288.215 517.744 288.276 517.967 288.275H518.05C518.288 288.257 518.516 288.168 518.703 288.02C518.891 287.871 519.029 287.67 519.1 287.442L523.225 275.283C523.299 275.073 523.311 274.847 523.261 274.63C523.211 274.413 523.1 274.215 522.942 274.058ZM510.042 278.983L520.683 275.433L514.775 281.342L510.042 278.983ZM518.025 286.958L515.658 282.225L521.567 276.317L518.025 286.958Z" fill="#1D0F74"/>
</svg>
