<svg width="567" height="278" viewBox="0 0 567 278" fill="none" xmlns="http://www.w3.org/2000/svg">
<rect width="567" height="262" rx="20" fill="#F7F8FA"/>
<rect x="24" y="20" width="42" height="42" rx="2.8" fill="#1D0F74"/>
<path d="M44.1717 42.7182H46.5899L48.2922 44.9375L49.0956 45.9239L51.8081 49.4636H49.2945L47.4808 47.1011L46.8604 46.242L44.1717 42.7182ZM52.3331 39.8545C52.3331 41.5939 52.0149 43.0894 51.3786 44.3409C50.7422 45.5871 49.8698 46.547 48.7615 47.2205C47.6585 47.8886 46.4043 48.2227 44.999 48.2227C43.5884 48.2227 42.3289 47.8886 41.2206 47.2205C40.1176 46.547 39.2479 45.5845 38.6115 44.333C37.9751 43.0814 37.657 41.5886 37.657 39.8545C37.657 38.1152 37.9751 36.6223 38.6115 35.3761C39.2479 34.1246 40.1176 33.1648 41.2206 32.4966C42.3289 31.8231 43.5884 31.4864 44.999 31.4864C46.4043 31.4864 47.6585 31.8231 48.7615 32.4966C49.8698 33.1648 50.7422 34.1246 51.3786 35.3761C52.0149 36.6223 52.3331 38.1152 52.3331 39.8545ZM49.899 39.8545C49.899 38.5288 49.6842 37.4125 49.2547 36.5057C48.8304 35.5936 48.2471 34.9042 47.5047 34.4375C46.7676 33.9655 45.9323 33.7295 44.999 33.7295C44.0604 33.7295 43.2225 33.9655 42.4854 34.4375C41.7482 34.9042 41.1649 35.5936 40.7354 36.5057C40.3111 37.4125 40.099 38.5288 40.099 39.8545C40.099 41.1803 40.3111 42.2992 40.7354 43.2114C41.1649 44.1182 41.7482 44.8076 42.4854 45.2795C43.2225 45.7462 44.0604 45.9795 44.999 45.9795C45.9323 45.9795 46.7676 45.7462 47.5047 45.2795C48.2471 44.8076 48.8304 44.1182 49.2547 43.2114C49.6842 42.2992 49.899 41.1803 49.899 39.8545Z" fill="white"/>
<path d="M93.1122 39L90.2884 28.8182H91.9041L93.8878 36.7031H93.9822L96.0455 28.8182H97.6463L99.7095 36.7081H99.804L101.783 28.8182H103.403L100.575 39H99.0284L96.8857 31.3736H96.8061L94.6634 39H93.1122ZM106.171 34.4659V39H104.685V28.8182H106.151V32.6065H106.246C106.425 32.1955 106.698 31.8691 107.066 31.6271C107.434 31.3852 107.915 31.2642 108.508 31.2642C109.032 31.2642 109.489 31.3719 109.88 31.5874C110.275 31.8028 110.579 32.1243 110.795 32.5518C111.014 32.9761 111.123 33.5064 111.123 34.1428V39H109.637V34.3217C109.637 33.7616 109.492 33.3274 109.204 33.0192C108.916 32.7076 108.515 32.5518 108.001 32.5518C107.65 32.5518 107.335 32.6264 107.056 32.7756C106.781 32.9247 106.564 33.1435 106.405 33.4318C106.249 33.7169 106.171 34.0616 106.171 34.4659ZM115.329 39.169C114.845 39.169 114.408 39.0795 114.017 38.9006C113.625 38.7183 113.316 38.4548 113.087 38.1101C112.861 37.7654 112.749 37.3428 112.749 36.8423C112.749 36.4115 112.832 36.0568 112.997 35.7784C113.163 35.5 113.387 35.2796 113.669 35.1172C113.95 34.9548 114.265 34.8321 114.613 34.7493C114.961 34.6664 115.316 34.6035 115.677 34.5604C116.134 34.5073 116.506 34.4643 116.791 34.4311C117.076 34.3946 117.283 34.3366 117.412 34.2571C117.541 34.1776 117.606 34.0483 117.606 33.8693V33.8345C117.606 33.4003 117.483 33.0639 117.238 32.8253C116.996 32.5866 116.635 32.4673 116.154 32.4673C115.654 32.4673 115.259 32.5784 114.971 32.8004C114.686 33.0192 114.489 33.2628 114.379 33.5312L112.982 33.2131C113.148 32.7491 113.39 32.3745 113.708 32.0895C114.03 31.8011 114.399 31.5923 114.817 31.4631C115.235 31.3305 115.674 31.2642 116.134 31.2642C116.439 31.2642 116.762 31.3007 117.104 31.3736C117.449 31.4432 117.77 31.5724 118.068 31.7614C118.37 31.9503 118.617 32.2204 118.809 32.5717C119.001 32.9197 119.097 33.3722 119.097 33.929V39H117.646V37.956H117.586C117.49 38.1482 117.346 38.3371 117.154 38.5227C116.961 38.7083 116.714 38.8625 116.413 38.9851C116.111 39.1077 115.75 39.169 115.329 39.169ZM115.652 37.9759C116.063 37.9759 116.414 37.8946 116.706 37.7322C117.001 37.5698 117.225 37.3577 117.377 37.0959C117.533 36.8307 117.611 36.5473 117.611 36.2457V35.2614C117.558 35.3144 117.455 35.3641 117.303 35.4105C117.154 35.4536 116.983 35.4917 116.791 35.5249C116.598 35.5547 116.411 35.5829 116.229 35.6094C116.047 35.6326 115.894 35.6525 115.771 35.669C115.483 35.7055 115.22 35.7668 114.981 35.853C114.746 35.9392 114.557 36.0634 114.414 36.2259C114.275 36.3849 114.205 36.5971 114.205 36.8622C114.205 37.2301 114.341 37.5085 114.613 37.6974C114.885 37.883 115.231 37.9759 115.652 37.9759ZM124.642 31.3636V32.5568H120.471V31.3636H124.642ZM121.589 29.5341H123.076V36.7578C123.076 37.0462 123.119 37.2633 123.205 37.4091C123.291 37.5516 123.402 37.6494 123.538 37.7024C123.678 37.7521 123.828 37.777 123.991 37.777C124.11 37.777 124.214 37.7687 124.304 37.7521C124.393 37.7356 124.463 37.7223 124.513 37.7124L124.781 38.9403C124.695 38.9735 124.572 39.0066 124.413 39.0398C124.254 39.0762 124.055 39.0961 123.817 39.0994C123.426 39.1061 123.061 39.0365 122.723 38.8906C122.385 38.7448 122.112 38.5194 121.903 38.2145C121.694 37.9096 121.589 37.5268 121.589 37.0661V29.5341ZM129.991 39V31.3636H131.478V39H129.991ZM130.742 30.1854C130.484 30.1854 130.262 30.0992 130.076 29.9268C129.894 29.7512 129.803 29.5424 129.803 29.3004C129.803 29.0552 129.894 28.8464 130.076 28.674C130.262 28.4983 130.484 28.4105 130.742 28.4105C131.001 28.4105 131.221 28.4983 131.403 28.674C131.589 28.8464 131.682 29.0552 131.682 29.3004C131.682 29.5424 131.589 29.7512 131.403 29.9268C131.221 30.0992 131.001 30.1854 130.742 30.1854ZM139.2 33.228L137.853 33.4666C137.796 33.2943 137.707 33.1302 137.584 32.9744C137.465 32.8187 137.303 32.6911 137.097 32.5916C136.892 32.4922 136.635 32.4425 136.327 32.4425C135.906 32.4425 135.554 32.5369 135.273 32.7259C134.991 32.9115 134.85 33.1518 134.85 33.4467C134.85 33.7019 134.944 33.9074 135.133 34.0632C135.322 34.219 135.627 34.3466 136.048 34.446L137.261 34.7244C137.964 34.8868 138.488 35.1371 138.832 35.4751C139.177 35.8132 139.349 36.2524 139.349 36.7926C139.349 37.25 139.217 37.6577 138.952 38.0156C138.69 38.3703 138.323 38.6487 137.853 38.8509C137.385 39.053 136.844 39.1541 136.227 39.1541C135.372 39.1541 134.674 38.9718 134.134 38.6072C133.594 38.2393 133.262 37.7173 133.14 37.0412L134.577 36.8224C134.666 37.197 134.85 37.4804 135.128 37.6726C135.407 37.8615 135.77 37.956 136.217 37.956C136.704 37.956 137.094 37.8549 137.385 37.6527C137.677 37.4472 137.823 37.197 137.823 36.902C137.823 36.6634 137.733 36.4628 137.555 36.3004C137.379 36.138 137.109 36.0154 136.744 35.9325L135.452 35.6491C134.739 35.4867 134.212 35.2282 133.871 34.8736C133.532 34.5189 133.363 34.0698 133.363 33.5263C133.363 33.0755 133.489 32.6811 133.741 32.343C133.993 32.005 134.341 31.7415 134.785 31.5526C135.229 31.3603 135.738 31.2642 136.312 31.2642C137.137 31.2642 137.787 31.4432 138.26 31.8011C138.734 32.1558 139.048 32.6314 139.2 33.228ZM148.253 31.3636V32.5568H144.082V31.3636H148.253ZM145.201 29.5341H146.687V36.7578C146.687 37.0462 146.73 37.2633 146.817 37.4091C146.903 37.5516 147.014 37.6494 147.15 37.7024C147.289 37.7521 147.44 37.777 147.602 37.777C147.721 37.777 147.826 37.7687 147.915 37.7521C148.005 37.7356 148.074 37.7223 148.124 37.7124L148.393 38.9403C148.306 38.9735 148.184 39.0066 148.025 39.0398C147.866 39.0762 147.667 39.0961 147.428 39.0994C147.037 39.1061 146.672 39.0365 146.334 38.8906C145.996 38.7448 145.723 38.5194 145.514 38.2145C145.305 37.9096 145.201 37.5268 145.201 37.0661V29.5341ZM151.548 34.4659V39H150.062V28.8182H151.528V32.6065H151.623C151.802 32.1955 152.075 31.8691 152.443 31.6271C152.811 31.3852 153.292 31.2642 153.885 31.2642C154.409 31.2642 154.866 31.3719 155.257 31.5874C155.652 31.8028 155.956 32.1243 156.172 32.5518C156.391 32.9761 156.5 33.5064 156.5 34.1428V39H155.013V34.3217C155.013 33.7616 154.869 33.3274 154.581 33.0192C154.293 32.7076 153.892 32.5518 153.378 32.5518C153.027 32.5518 152.712 32.6264 152.433 32.7756C152.158 32.9247 151.941 33.1435 151.782 33.4318C151.626 33.7169 151.548 34.0616 151.548 34.4659ZM161.775 39.1541C161.022 39.1541 160.375 38.9934 159.831 38.6719C159.291 38.3471 158.873 37.8913 158.578 37.3047C158.286 36.7147 158.141 36.0237 158.141 35.2315C158.141 34.4493 158.286 33.7599 158.578 33.1634C158.873 32.5668 159.284 32.1011 159.811 31.7663C160.341 31.4316 160.961 31.2642 161.67 31.2642C162.101 31.2642 162.519 31.3355 162.923 31.478C163.328 31.6205 163.691 31.8442 164.012 32.1491C164.334 32.4541 164.587 32.8501 164.773 33.3374C164.958 33.8213 165.051 34.4096 165.051 35.1023V35.6293H158.981V34.5156H163.594C163.594 34.1245 163.515 33.7782 163.356 33.4766C163.197 33.1716 162.973 32.9313 162.685 32.7557C162.4 32.58 162.065 32.4922 161.68 32.4922C161.263 32.4922 160.898 32.5949 160.587 32.8004C160.278 33.0026 160.04 33.2678 159.871 33.5959C159.705 33.9207 159.622 34.2737 159.622 34.6548V35.5249C159.622 36.0353 159.712 36.4695 159.891 36.8274C160.073 37.1854 160.326 37.4588 160.651 37.6477C160.976 37.8333 161.356 37.9261 161.79 37.9261C162.071 37.9261 162.328 37.8864 162.56 37.8068C162.792 37.724 162.993 37.6013 163.162 37.4389C163.331 37.2765 163.46 37.076 163.55 36.8374L164.957 37.0909C164.844 37.5052 164.642 37.8681 164.35 38.1797C164.062 38.4879 163.699 38.7282 163.261 38.9006C162.827 39.0696 162.332 39.1541 161.775 39.1541ZM173.97 31.3636V32.5568H169.799V31.3636H173.97ZM170.918 29.5341H172.404V36.7578C172.404 37.0462 172.447 37.2633 172.533 37.4091C172.62 37.5516 172.731 37.6494 172.866 37.7024C173.006 37.7521 173.156 37.777 173.319 37.777C173.438 37.777 173.543 37.7687 173.632 37.7521C173.722 37.7356 173.791 37.7223 173.841 37.7124L174.109 38.9403C174.023 38.9735 173.901 39.0066 173.741 39.0398C173.582 39.0762 173.384 39.0961 173.145 39.0994C172.754 39.1061 172.389 39.0365 172.051 38.8906C171.713 38.7448 171.44 38.5194 171.231 38.2145C171.022 37.9096 170.918 37.5268 170.918 37.0661V29.5341ZM178.749 39.1541C178.033 39.1541 177.408 38.9901 176.875 38.6619C176.341 38.3338 175.927 37.8748 175.632 37.2848C175.337 36.6948 175.189 36.0054 175.189 35.2166C175.189 34.4245 175.337 33.7318 175.632 33.1385C175.927 32.5452 176.341 32.0845 176.875 31.7564C177.408 31.4283 178.033 31.2642 178.749 31.2642C179.465 31.2642 180.09 31.4283 180.623 31.7564C181.157 32.0845 181.571 32.5452 181.866 33.1385C182.161 33.7318 182.309 34.4245 182.309 35.2166C182.309 36.0054 182.161 36.6948 181.866 37.2848C181.571 37.8748 181.157 38.3338 180.623 38.6619C180.09 38.9901 179.465 39.1541 178.749 39.1541ZM178.754 37.9062C179.218 37.9062 179.603 37.7836 179.907 37.5384C180.212 37.2931 180.438 36.9666 180.584 36.5589C180.733 36.1513 180.807 35.7022 180.807 35.2116C180.807 34.7244 180.733 34.277 180.584 33.8693C180.438 33.4583 180.212 33.1286 179.907 32.88C179.603 32.6314 179.218 32.5071 178.754 32.5071C178.287 32.5071 177.899 32.6314 177.591 32.88C177.286 33.1286 177.059 33.4583 176.91 33.8693C176.764 34.277 176.691 34.7244 176.691 35.2116C176.691 35.7022 176.764 36.1513 176.91 36.5589C177.059 36.9666 177.286 37.2931 177.591 37.5384C177.899 37.7836 178.287 37.9062 178.754 37.9062ZM187.533 31.3636V32.5568H183.362V31.3636H187.533ZM184.48 29.5341H185.967V36.7578C185.967 37.0462 186.01 37.2633 186.096 37.4091C186.182 37.5516 186.293 37.6494 186.429 37.7024C186.568 37.7521 186.719 37.777 186.881 37.777C187.001 37.777 187.105 37.7687 187.195 37.7521C187.284 37.7356 187.354 37.7223 187.403 37.7124L187.672 38.9403C187.586 38.9735 187.463 39.0066 187.304 39.0398C187.145 39.0762 186.946 39.0961 186.707 39.0994C186.316 39.1061 185.952 39.0365 185.614 38.8906C185.276 38.7448 185.002 38.5194 184.793 38.2145C184.585 37.9096 184.48 37.5268 184.48 37.0661V29.5341ZM191.399 39.169C190.915 39.169 190.478 39.0795 190.087 38.9006C189.696 38.7183 189.386 38.4548 189.157 38.1101C188.932 37.7654 188.819 37.3428 188.819 36.8423C188.819 36.4115 188.902 36.0568 189.068 35.7784C189.233 35.5 189.457 35.2796 189.739 35.1172C190.021 34.9548 190.335 34.8321 190.683 34.7493C191.031 34.6664 191.386 34.6035 191.747 34.5604C192.205 34.5073 192.576 34.4643 192.861 34.4311C193.146 34.3946 193.353 34.3366 193.482 34.2571C193.612 34.1776 193.676 34.0483 193.676 33.8693V33.8345C193.676 33.4003 193.554 33.0639 193.308 32.8253C193.066 32.5866 192.705 32.4673 192.225 32.4673C191.724 32.4673 191.33 32.5784 191.041 32.8004C190.756 33.0192 190.559 33.2628 190.45 33.5312L189.053 33.2131C189.218 32.7491 189.46 32.3745 189.779 32.0895C190.1 31.8011 190.47 31.5923 190.887 31.4631C191.305 31.3305 191.744 31.2642 192.205 31.2642C192.51 31.2642 192.833 31.3007 193.174 31.3736C193.519 31.4432 193.84 31.5724 194.139 31.7614C194.44 31.9503 194.687 32.2204 194.879 32.5717C195.072 32.9197 195.168 33.3722 195.168 33.929V39H193.716V37.956H193.656C193.56 38.1482 193.416 38.3371 193.224 38.5227C193.032 38.7083 192.785 38.8625 192.483 38.9851C192.182 39.1077 191.82 39.169 191.399 39.169ZM191.722 37.9759C192.133 37.9759 192.485 37.8946 192.776 37.7322C193.071 37.5698 193.295 37.3577 193.448 37.0959C193.603 36.8307 193.681 36.5473 193.681 36.2457V35.2614C193.628 35.3144 193.526 35.3641 193.373 35.4105C193.224 35.4536 193.053 35.4917 192.861 35.5249C192.669 35.5547 192.481 35.5829 192.299 35.6094C192.117 35.6326 191.964 35.6525 191.842 35.669C191.553 35.7055 191.29 35.7668 191.051 35.853C190.816 35.9392 190.627 36.0634 190.485 36.2259C190.345 36.3849 190.276 36.5971 190.276 36.8622C190.276 37.2301 190.412 37.5085 190.683 37.6974C190.955 37.883 191.302 37.9759 191.722 37.9759ZM198.634 28.8182V39H197.148V28.8182H198.634ZM204.339 41.8636V31.3636H205.791V32.6016H205.915C206.001 32.4425 206.126 32.2585 206.288 32.0497C206.45 31.8409 206.676 31.6586 206.964 31.5028C207.252 31.3438 207.634 31.2642 208.108 31.2642C208.724 31.2642 209.274 31.42 209.758 31.7315C210.242 32.0431 210.622 32.4922 210.897 33.0788C211.175 33.6655 211.314 34.3714 211.314 35.1967C211.314 36.022 211.177 36.7296 210.902 37.3196C210.627 37.9062 210.249 38.3587 209.768 38.6768C209.288 38.9917 208.739 39.1491 208.123 39.1491C207.658 39.1491 207.279 39.0713 206.984 38.9155C206.692 38.7597 206.464 38.5774 206.298 38.3686C206.132 38.1598 206.005 37.9742 205.915 37.8118H205.826V41.8636H204.339ZM205.796 35.1818C205.796 35.7187 205.874 36.1894 206.029 36.5938C206.185 36.9981 206.411 37.3146 206.706 37.5433C207.001 37.7687 207.362 37.8814 207.789 37.8814C208.234 37.8814 208.605 37.7637 208.903 37.5284C209.201 37.2898 209.427 36.9666 209.579 36.5589C209.735 36.1513 209.813 35.6922 209.813 35.1818C209.813 34.678 209.737 34.2256 209.584 33.8246C209.435 33.4235 209.21 33.107 208.908 32.875C208.61 32.643 208.237 32.527 207.789 32.527C207.359 32.527 206.994 32.638 206.696 32.8601C206.401 33.0821 206.177 33.392 206.025 33.7898C205.872 34.1875 205.796 34.6515 205.796 35.1818ZM212.98 39V31.3636H214.417V32.5767H214.496C214.635 32.1657 214.881 31.8426 215.232 31.6072C215.587 31.3686 215.988 31.2493 216.435 31.2493C216.528 31.2493 216.637 31.2526 216.763 31.2592C216.892 31.2659 216.993 31.2741 217.066 31.2841V32.706C217.007 32.6894 216.901 32.6712 216.748 32.6513C216.596 32.6281 216.443 32.6165 216.291 32.6165C215.94 32.6165 215.626 32.6911 215.351 32.8402C215.079 32.986 214.864 33.1899 214.705 33.4517C214.546 33.7102 214.466 34.0052 214.466 34.3366V39H212.98ZM218.353 39V31.3636H219.839V39H218.353ZM219.104 30.1854C218.845 30.1854 218.623 30.0992 218.437 29.9268C218.255 29.7512 218.164 29.5424 218.164 29.3004C218.164 29.0552 218.255 28.8464 218.437 28.674C218.623 28.4983 218.845 28.4105 219.104 28.4105C219.362 28.4105 219.582 28.4983 219.765 28.674C219.95 28.8464 220.043 29.0552 220.043 29.3004C220.043 29.5424 219.95 29.7512 219.765 29.9268C219.582 30.0992 219.362 30.1854 219.104 30.1854ZM225.056 39.1541C224.317 39.1541 223.68 38.9867 223.147 38.652C222.616 38.3139 222.209 37.8482 221.924 37.255C221.639 36.6617 221.496 35.9822 221.496 35.2166C221.496 34.4411 221.642 33.7566 221.934 33.1634C222.225 32.5668 222.636 32.1011 223.167 31.7663C223.697 31.4316 224.322 31.2642 225.041 31.2642C225.621 31.2642 226.138 31.3719 226.592 31.5874C227.046 31.7995 227.412 32.0978 227.691 32.4822C227.972 32.8667 228.14 33.3158 228.193 33.8295H226.746C226.667 33.4716 226.484 33.1634 226.199 32.9048C225.917 32.6463 225.54 32.517 225.066 32.517C224.651 32.517 224.288 32.6264 223.977 32.8452C223.669 33.0606 223.428 33.3688 223.256 33.7699C223.084 34.1676 222.998 34.6383 222.998 35.1818C222.998 35.7386 223.082 36.2192 223.251 36.6236C223.42 37.0279 223.659 37.3411 223.967 37.5632C224.279 37.7853 224.645 37.8963 225.066 37.8963C225.347 37.8963 225.603 37.8449 225.831 37.7422C226.063 37.6361 226.257 37.4853 226.413 37.2898C226.572 37.0942 226.683 36.8589 226.746 36.5838H228.193C228.14 37.0777 227.979 37.5185 227.711 37.9062C227.442 38.294 227.083 38.599 226.632 38.821C226.184 39.0431 225.659 39.1541 225.056 39.1541ZM233.074 39.1541C232.321 39.1541 231.673 38.9934 231.13 38.6719C230.59 38.3471 230.172 37.8913 229.877 37.3047C229.585 36.7147 229.439 36.0237 229.439 35.2315C229.439 34.4493 229.585 33.7599 229.877 33.1634C230.172 32.5668 230.583 32.1011 231.11 31.7663C231.64 31.4316 232.26 31.2642 232.969 31.2642C233.4 31.2642 233.818 31.3355 234.222 31.478C234.626 31.6205 234.989 31.8442 235.311 32.1491C235.632 32.4541 235.886 32.8501 236.072 33.3374C236.257 33.8213 236.35 34.4096 236.35 35.1023V35.6293H230.28V34.5156H234.893C234.893 34.1245 234.814 33.7782 234.655 33.4766C234.496 33.1716 234.272 32.9313 233.983 32.7557C233.698 32.58 233.364 32.4922 232.979 32.4922C232.562 32.4922 232.197 32.5949 231.885 32.8004C231.577 33.0026 231.339 33.2678 231.17 33.5959C231.004 33.9207 230.921 34.2737 230.921 34.6548V35.5249C230.921 36.0353 231.01 36.4695 231.189 36.8274C231.372 37.1854 231.625 37.4588 231.95 37.6477C232.275 37.8333 232.654 37.9261 233.089 37.9261C233.37 37.9261 233.627 37.8864 233.859 37.8068C234.091 37.724 234.292 37.6013 234.461 37.4389C234.63 37.2765 234.759 37.076 234.849 36.8374L236.256 37.0909C236.143 37.5052 235.941 37.8681 235.649 38.1797C235.361 38.4879 234.998 38.7282 234.56 38.9006C234.126 39.0696 233.631 39.1541 233.074 39.1541ZM245.339 31.3636V32.5568H241.023V31.3636H245.339ZM242.206 39V30.4787C242.206 30.0014 242.311 29.6053 242.52 29.2905C242.729 28.9723 243.005 28.7353 243.35 28.5795C243.695 28.4205 244.069 28.3409 244.474 28.3409C244.772 28.3409 245.027 28.3658 245.239 28.4155C245.451 28.4619 245.609 28.505 245.711 28.5447L245.363 29.7479C245.294 29.728 245.204 29.7048 245.095 29.6783C244.986 29.6484 244.853 29.6335 244.697 29.6335C244.336 29.6335 244.077 29.723 243.922 29.902C243.769 30.081 243.693 30.3395 243.693 30.6776V39H242.206ZM249.788 39.1541C249.072 39.1541 248.448 38.9901 247.914 38.6619C247.38 38.3338 246.966 37.8748 246.671 37.2848C246.376 36.6948 246.229 36.0054 246.229 35.2166C246.229 34.4245 246.376 33.7318 246.671 33.1385C246.966 32.5452 247.38 32.0845 247.914 31.7564C248.448 31.4283 249.072 31.2642 249.788 31.2642C250.504 31.2642 251.129 31.4283 251.662 31.7564C252.196 32.0845 252.61 32.5452 252.905 33.1385C253.2 33.7318 253.348 34.4245 253.348 35.2166C253.348 36.0054 253.2 36.6948 252.905 37.2848C252.61 37.8748 252.196 38.3338 251.662 38.6619C251.129 38.9901 250.504 39.1541 249.788 39.1541ZM249.793 37.9062C250.257 37.9062 250.642 37.7836 250.947 37.5384C251.251 37.2931 251.477 36.9666 251.623 36.5589C251.772 36.1513 251.846 35.7022 251.846 35.2116C251.846 34.7244 251.772 34.277 251.623 33.8693C251.477 33.4583 251.251 33.1286 250.947 32.88C250.642 32.6314 250.257 32.5071 249.793 32.5071C249.326 32.5071 248.938 32.6314 248.63 32.88C248.325 33.1286 248.098 33.4583 247.949 33.8693C247.803 34.277 247.73 34.7244 247.73 35.2116C247.73 35.7022 247.803 36.1513 247.949 36.5589C248.098 36.9666 248.325 37.2931 248.63 37.5384C248.938 37.7836 249.326 37.9062 249.793 37.9062ZM255.007 39V31.3636H256.444V32.5767H256.523C256.663 32.1657 256.908 31.8426 257.259 31.6072C257.614 31.3686 258.015 31.2493 258.462 31.2493C258.555 31.2493 258.665 31.2526 258.79 31.2592C258.92 31.2659 259.021 31.2741 259.094 31.2841V32.706C259.034 32.6894 258.928 32.6712 258.776 32.6513C258.623 32.6281 258.471 32.6165 258.318 32.6165C257.967 32.6165 257.654 32.6911 257.379 32.8402C257.107 32.986 256.891 33.1899 256.732 33.4517C256.573 33.7102 256.494 34.0052 256.494 34.3366V39H255.007ZM267.65 31.3636V32.5568H263.479V31.3636H267.65ZM264.597 29.5341H266.084V36.7578C266.084 37.0462 266.127 37.2633 266.213 37.4091C266.299 37.5516 266.41 37.6494 266.546 37.7024C266.685 37.7521 266.836 37.777 266.999 37.777C267.118 37.777 267.222 37.7687 267.312 37.7521C267.401 37.7356 267.471 37.7223 267.521 37.7124L267.789 38.9403C267.703 38.9735 267.58 39.0066 267.421 39.0398C267.262 39.0762 267.063 39.0961 266.825 39.0994C266.433 39.1061 266.069 39.0365 265.731 38.8906C265.393 38.7448 265.119 38.5194 264.911 38.2145C264.702 37.9096 264.597 37.5268 264.597 37.0661V29.5341ZM270.945 34.4659V39H269.458V28.8182H270.925V32.6065H271.019C271.198 32.1955 271.472 31.8691 271.84 31.6271C272.208 31.3852 272.688 31.2642 273.281 31.2642C273.805 31.2642 274.262 31.3719 274.654 31.5874C275.048 31.8028 275.353 32.1243 275.568 32.5518C275.787 32.9761 275.896 33.5064 275.896 34.1428V39H274.41V34.3217C274.41 33.7616 274.266 33.3274 273.977 33.0192C273.689 32.7076 273.288 32.5518 272.774 32.5518C272.423 32.5518 272.108 32.6264 271.83 32.7756C271.555 32.9247 271.338 33.1435 271.178 33.4318C271.023 33.7169 270.945 34.0616 270.945 34.4659ZM277.88 39V31.3636H279.367V39H277.88ZM278.631 30.1854C278.372 30.1854 278.15 30.0992 277.965 29.9268C277.782 29.7512 277.691 29.5424 277.691 29.3004C277.691 29.0552 277.782 28.8464 277.965 28.674C278.15 28.4983 278.372 28.4105 278.631 28.4105C278.889 28.4105 279.11 28.4983 279.292 28.674C279.478 28.8464 279.57 29.0552 279.57 29.3004C279.57 29.5424 279.478 29.7512 279.292 29.9268C279.11 30.0992 278.889 30.1854 278.631 30.1854ZM287.089 33.228L285.741 33.4666C285.685 33.2943 285.596 33.1302 285.473 32.9744C285.354 32.8187 285.191 32.6911 284.986 32.5916C284.78 32.4922 284.523 32.4425 284.215 32.4425C283.794 32.4425 283.443 32.5369 283.161 32.7259C282.879 32.9115 282.739 33.1518 282.739 33.4467C282.739 33.7019 282.833 33.9074 283.022 34.0632C283.211 34.219 283.516 34.3466 283.937 34.446L285.15 34.7244C285.853 34.8868 286.376 35.1371 286.721 35.4751C287.066 35.8132 287.238 36.2524 287.238 36.7926C287.238 37.25 287.105 37.6577 286.84 38.0156C286.578 38.3703 286.212 38.6487 285.741 38.8509C285.274 39.053 284.732 39.1541 284.116 39.1541C283.261 39.1541 282.563 38.9718 282.023 38.6072C281.482 38.2393 281.151 37.7173 281.028 37.0412L282.465 36.8224C282.555 37.197 282.739 37.4804 283.017 37.6726C283.295 37.8615 283.658 37.956 284.106 37.956C284.593 37.956 284.982 37.8549 285.274 37.6527C285.566 37.4472 285.712 37.197 285.712 36.902C285.712 36.6634 285.622 36.4628 285.443 36.3004C285.268 36.138 284.997 36.0154 284.633 35.9325L283.34 35.6491C282.628 35.4867 282.101 35.2282 281.759 34.8736C281.421 34.5189 281.252 34.0698 281.252 33.5263C281.252 33.0755 281.378 32.6811 281.63 32.343C281.882 32.005 282.23 31.7415 282.674 31.5526C283.118 31.3603 283.627 31.2642 284.2 31.2642C285.026 31.2642 285.675 31.4432 286.149 31.8011C286.623 32.1558 286.936 32.6314 287.089 33.228ZM292.577 39V31.3636H294.064V39H292.577ZM293.328 30.1854C293.07 30.1854 292.848 30.0992 292.662 29.9268C292.48 29.7512 292.388 29.5424 292.388 29.3004C292.388 29.0552 292.48 28.8464 292.662 28.674C292.848 28.4983 293.07 28.4105 293.328 28.4105C293.587 28.4105 293.807 28.4983 293.989 28.674C294.175 28.8464 294.268 29.0552 294.268 29.3004C294.268 29.5424 294.175 29.7512 293.989 29.9268C293.807 30.0992 293.587 30.1854 293.328 30.1854ZM297.55 34.4659V39H296.064V31.3636H297.491V32.6065H297.585C297.761 32.2022 298.036 31.8774 298.41 31.6321C298.788 31.3868 299.264 31.2642 299.837 31.2642C300.358 31.2642 300.813 31.3736 301.204 31.5923C301.595 31.8078 301.899 32.1293 302.114 32.5568C302.33 32.9844 302.437 33.513 302.437 34.1428V39H300.951V34.3217C300.951 33.7682 300.807 33.3357 300.518 33.0241C300.23 32.7093 299.834 32.5518 299.33 32.5518C298.985 32.5518 298.679 32.6264 298.41 32.7756C298.145 32.9247 297.935 33.1435 297.779 33.4318C297.626 33.7169 297.55 34.0616 297.55 34.4659ZM310.69 31.3636L307.921 39H306.33L303.556 31.3636H305.152L307.086 37.2401H307.165L309.094 31.3636H310.69ZM315.044 39.1541C314.328 39.1541 313.703 38.9901 313.17 38.6619C312.636 38.3338 312.222 37.8748 311.927 37.2848C311.632 36.6948 311.484 36.0054 311.484 35.2166C311.484 34.4245 311.632 33.7318 311.927 33.1385C312.222 32.5452 312.636 32.0845 313.17 31.7564C313.703 31.4283 314.328 31.2642 315.044 31.2642C315.76 31.2642 316.385 31.4283 316.918 31.7564C317.452 32.0845 317.866 32.5452 318.161 33.1385C318.456 33.7318 318.604 34.4245 318.604 35.2166C318.604 36.0054 318.456 36.6948 318.161 37.2848C317.866 37.8748 317.452 38.3338 316.918 38.6619C316.385 38.9901 315.76 39.1541 315.044 39.1541ZM315.049 37.9062C315.513 37.9062 315.897 37.7836 316.202 37.5384C316.507 37.2931 316.733 36.9666 316.879 36.5589C317.028 36.1513 317.102 35.7022 317.102 35.2116C317.102 34.7244 317.028 34.277 316.879 33.8693C316.733 33.4583 316.507 33.1286 316.202 32.88C315.897 32.6314 315.513 32.5071 315.049 32.5071C314.582 32.5071 314.194 32.6314 313.886 32.88C313.581 33.1286 313.354 33.4583 313.205 33.8693C313.059 34.277 312.986 34.7244 312.986 35.2116C312.986 35.7022 313.059 36.1513 313.205 36.5589C313.354 36.9666 313.581 37.2931 313.886 37.5384C314.194 37.7836 314.582 37.9062 315.049 37.9062ZM320.263 39V31.3636H321.749V39H320.263ZM321.014 30.1854C320.755 30.1854 320.533 30.0992 320.347 29.9268C320.165 29.7512 320.074 29.5424 320.074 29.3004C320.074 29.0552 320.165 28.8464 320.347 28.674C320.533 28.4983 320.755 28.4105 321.014 28.4105C321.272 28.4105 321.493 28.4983 321.675 28.674C321.86 28.8464 321.953 29.0552 321.953 29.3004C321.953 29.5424 321.86 29.7512 321.675 29.9268C321.493 30.0992 321.272 30.1854 321.014 30.1854ZM326.966 39.1541C326.227 39.1541 325.59 38.9867 325.057 38.652C324.527 38.3139 324.119 37.8482 323.834 37.255C323.549 36.6617 323.406 35.9822 323.406 35.2166C323.406 34.4411 323.552 33.7566 323.844 33.1634C324.135 32.5668 324.546 32.1011 325.077 31.7663C325.607 31.4316 326.232 31.2642 326.951 31.2642C327.531 31.2642 328.048 31.3719 328.502 31.5874C328.956 31.7995 329.322 32.0978 329.601 32.4822C329.883 32.8667 330.05 33.3158 330.103 33.8295H328.656C328.577 33.4716 328.394 33.1634 328.109 32.9048C327.828 32.6463 327.45 32.517 326.976 32.517C326.562 32.517 326.199 32.6264 325.887 32.8452C325.579 33.0606 325.339 33.3688 325.166 33.7699C324.994 34.1676 324.908 34.6383 324.908 35.1818C324.908 35.7386 324.992 36.2192 325.161 36.6236C325.33 37.0279 325.569 37.3411 325.877 37.5632C326.189 37.7853 326.555 37.8963 326.976 37.8963C327.258 37.8963 327.513 37.8449 327.741 37.7422C327.973 37.6361 328.167 37.4853 328.323 37.2898C328.482 37.0942 328.593 36.8589 328.656 36.5838H330.103C330.05 37.0777 329.889 37.5185 329.621 37.9062C329.352 38.294 328.993 38.599 328.542 38.821C328.094 39.0431 327.569 39.1541 326.966 39.1541ZM334.984 39.1541C334.231 39.1541 333.584 38.9934 333.04 38.6719C332.5 38.3471 332.082 37.8913 331.787 37.3047C331.495 36.7147 331.35 36.0237 331.35 35.2315C331.35 34.4493 331.495 33.7599 331.787 33.1634C332.082 32.5668 332.493 32.1011 333.02 31.7663C333.55 31.4316 334.17 31.2642 334.879 31.2642C335.31 31.2642 335.728 31.3355 336.132 31.478C336.537 31.6205 336.9 31.8442 337.221 32.1491C337.543 32.4541 337.796 32.8501 337.982 33.3374C338.167 33.8213 338.26 34.4096 338.26 35.1023V35.6293H332.19V34.5156H336.803C336.803 34.1245 336.724 33.7782 336.565 33.4766C336.406 33.1716 336.182 32.9313 335.894 32.7557C335.609 32.58 335.274 32.4922 334.889 32.4922C334.472 32.4922 334.107 32.5949 333.796 32.8004C333.487 33.0026 333.249 33.2678 333.08 33.5959C332.914 33.9207 332.831 34.2737 332.831 34.6548V35.5249C332.831 36.0353 332.921 36.4695 333.1 36.8274C333.282 37.1854 333.535 37.4588 333.86 37.6477C334.185 37.8333 334.565 37.9261 334.999 37.9261C335.28 37.9261 335.537 37.8864 335.769 37.8068C336.001 37.724 336.202 37.6013 336.371 37.4389C336.54 37.2765 336.669 37.076 336.759 36.8374L338.166 37.0909C338.053 37.5052 337.851 37.8681 337.559 38.1797C337.271 38.4879 336.908 38.7282 336.47 38.9006C336.036 39.0696 335.541 39.1541 334.984 39.1541ZM341.535 36.0717V35.9773C341.542 35.3608 341.603 34.8703 341.719 34.5057C341.838 34.1411 342.007 33.8461 342.226 33.6207C342.445 33.3954 342.708 33.1899 343.017 33.0043C343.216 32.8783 343.395 32.7375 343.554 32.5817C343.713 32.4259 343.839 32.2469 343.931 32.0447C344.024 31.8426 344.071 31.6188 344.071 31.3736C344.071 31.0786 344.001 30.8234 343.862 30.608C343.723 30.3925 343.537 30.2268 343.305 30.1108C343.076 29.9915 342.821 29.9318 342.539 29.9318C342.284 29.9318 342.041 29.9848 341.809 30.0909C341.577 30.197 341.384 30.3627 341.232 30.5881C341.079 30.8101 340.992 31.0968 340.968 31.4482H339.457C339.48 30.8516 339.631 30.3478 339.909 29.9368C340.188 29.5225 340.556 29.2093 341.013 28.9972C341.474 28.785 341.983 28.679 342.539 28.679C343.149 28.679 343.683 28.7933 344.14 29.022C344.598 29.2474 344.952 29.5639 345.204 29.9716C345.459 30.3759 345.587 30.8482 345.587 31.3885C345.587 31.7597 345.529 32.0945 345.413 32.3928C345.297 32.6877 345.131 32.9512 344.916 33.1832C344.704 33.4152 344.449 33.6207 344.15 33.7997C343.868 33.9754 343.64 34.1577 343.464 34.3466C343.292 34.5355 343.166 34.7592 343.086 35.0178C343.007 35.2763 342.964 35.5961 342.957 35.9773V36.0717H341.535ZM342.286 39.0945C342.014 39.0945 341.78 38.9983 341.585 38.8061C341.389 38.6106 341.292 38.3752 341.292 38.1001C341.292 37.8284 341.389 37.5964 341.585 37.4041C341.78 37.2086 342.014 37.1108 342.286 37.1108C342.554 37.1108 342.786 37.2086 342.982 37.4041C343.181 37.5964 343.28 37.8284 343.28 38.1001C343.28 38.2824 343.234 38.4498 343.141 38.6023C343.051 38.7514 342.932 38.8707 342.783 38.9602C342.634 39.0497 342.468 39.0945 342.286 39.0945Z" fill="#343541"/>
<rect x="0.5" y="82.5" width="566" height="81" fill="white"/>
<rect x="0.5" y="82.5" width="566" height="81" stroke="#D0D5DD"/>
<path d="M31.0001 138.75V130C31.0001 129.038 31.3431 128.214 32.0291 127.529C32.7151 126.844 33.5387 126.501 34.5001 126.5H55.5001C56.4626 126.5 57.2868 126.843 57.9728 127.529C58.6588 128.215 59.0012 129.039 59.0001 130V138.75H31.0001ZM39.7501 124.75C37.3292 124.75 35.266 123.897 33.5603 122.19C31.8546 120.483 31.0012 118.42 31.0001 116C30.9989 113.58 31.8523 111.517 33.5603 109.81C35.2683 108.103 37.3316 107.25 39.7501 107.25H50.2501C52.6709 107.25 54.7347 108.103 56.4416 109.81C58.1484 111.517 59.0012 113.58 59.0001 116C58.9989 118.42 58.1455 120.484 56.4398 122.191C54.7341 123.899 52.6709 124.752 50.2501 124.75H39.7501ZM39.7501 117.75C40.2459 117.75 40.6618 117.582 40.9978 117.246C41.3338 116.91 41.5012 116.495 41.5001 116C41.4989 115.505 41.3309 115.09 40.9961 114.754C40.6612 114.418 40.2459 114.25 39.7501 114.25C39.2542 114.25 38.8389 114.418 38.5041 114.754C38.1692 115.09 38.0012 115.505 38.0001 116C37.9989 116.495 38.1669 116.911 38.5041 117.248C38.8412 117.585 39.2566 117.752 39.7501 117.75ZM50.2501 117.75C50.7459 117.75 51.1618 117.582 51.4978 117.246C51.8338 116.91 52.0012 116.495 52.0001 116C51.9989 115.505 51.8309 115.09 51.4961 114.754C51.1612 114.418 50.7459 114.25 50.2501 114.25C49.7542 114.25 49.3389 114.418 49.0041 114.754C48.6692 115.09 48.5012 115.505 48.5001 116C48.4989 116.495 48.6669 116.911 49.0041 117.248C49.3412 117.585 49.7566 117.752 50.2501 117.75Z" fill="#1D0F74"/>
<path d="M90.6761 106.912V105.818H98.3125V106.912H95.1108V116H93.8778V106.912H90.6761ZM101.23 111.406V116H100.056V105.818H101.23V109.557H101.329C101.508 109.162 101.776 108.849 102.134 108.617C102.496 108.382 102.976 108.264 103.576 108.264C104.097 108.264 104.552 108.369 104.943 108.577C105.334 108.783 105.638 109.099 105.853 109.527C106.072 109.951 106.181 110.491 106.181 111.148V116H105.008V111.227C105.008 110.621 104.851 110.152 104.536 109.82C104.224 109.486 103.792 109.318 103.238 109.318C102.854 109.318 102.509 109.399 102.204 109.562C101.902 109.724 101.664 109.961 101.488 110.273C101.316 110.584 101.23 110.962 101.23 111.406ZM111.529 116.159C110.794 116.159 110.159 115.997 109.625 115.672C109.095 115.344 108.686 114.886 108.397 114.3C108.112 113.71 107.97 113.024 107.97 112.241C107.97 111.459 108.112 110.77 108.397 110.173C108.686 109.573 109.087 109.106 109.6 108.771C110.118 108.433 110.721 108.264 111.41 108.264C111.808 108.264 112.201 108.33 112.588 108.463C112.976 108.596 113.329 108.811 113.647 109.109C113.966 109.404 114.219 109.795 114.408 110.283C114.597 110.77 114.691 111.37 114.691 112.082V112.58H108.805V111.565H113.498C113.498 111.134 113.412 110.75 113.24 110.412C113.071 110.074 112.829 109.807 112.514 109.612C112.202 109.416 111.834 109.318 111.41 109.318C110.943 109.318 110.538 109.434 110.197 109.666C109.859 109.895 109.599 110.193 109.417 110.561C109.234 110.929 109.143 111.323 109.143 111.744V112.42C109.143 112.997 109.243 113.486 109.441 113.887C109.644 114.285 109.924 114.588 110.282 114.797C110.64 115.002 111.056 115.105 111.529 115.105C111.838 115.105 112.116 115.062 112.365 114.976C112.617 114.886 112.834 114.754 113.016 114.578C113.198 114.399 113.339 114.177 113.439 113.912L114.572 114.23C114.453 114.615 114.252 114.953 113.971 115.244C113.689 115.533 113.341 115.758 112.926 115.92C112.512 116.08 112.047 116.159 111.529 116.159ZM123.735 108.364V109.358H119.777V108.364H123.735ZM120.931 106.534H122.104V113.812C122.104 114.144 122.152 114.393 122.248 114.558C122.348 114.721 122.474 114.83 122.626 114.886C122.782 114.939 122.946 114.966 123.118 114.966C123.248 114.966 123.354 114.959 123.436 114.946C123.519 114.929 123.586 114.916 123.635 114.906L123.874 115.96C123.794 115.99 123.683 116.02 123.541 116.05C123.398 116.083 123.218 116.099 122.999 116.099C122.667 116.099 122.343 116.028 122.025 115.886C121.71 115.743 121.448 115.526 121.239 115.234C121.033 114.943 120.931 114.575 120.931 114.131V106.534ZM128.52 116.159C127.83 116.159 127.226 115.995 126.705 115.667C126.188 115.339 125.784 114.88 125.492 114.29C125.204 113.7 125.06 113.01 125.06 112.222C125.06 111.426 125.204 110.732 125.492 110.138C125.784 109.545 126.188 109.085 126.705 108.756C127.226 108.428 127.83 108.264 128.52 108.264C129.209 108.264 129.813 108.428 130.33 108.756C130.85 109.085 131.254 109.545 131.543 110.138C131.834 110.732 131.98 111.426 131.98 112.222C131.98 113.01 131.834 113.7 131.543 114.29C131.254 114.88 130.85 115.339 130.33 115.667C129.813 115.995 129.209 116.159 128.52 116.159ZM128.52 115.105C129.044 115.105 129.474 114.971 129.812 114.702C130.151 114.434 130.401 114.081 130.563 113.643C130.726 113.206 130.807 112.732 130.807 112.222C130.807 111.711 130.726 111.236 130.563 110.795C130.401 110.354 130.151 109.998 129.812 109.726C129.474 109.454 129.044 109.318 128.52 109.318C127.996 109.318 127.565 109.454 127.227 109.726C126.889 109.998 126.639 110.354 126.477 110.795C126.314 111.236 126.233 111.711 126.233 112.222C126.233 112.732 126.314 113.206 126.477 113.643C126.639 114.081 126.889 114.434 127.227 114.702C127.565 114.971 127.996 115.105 128.52 115.105ZM137.092 108.364V109.358H133.135V108.364H137.092ZM134.288 106.534H135.461V113.812C135.461 114.144 135.51 114.393 135.606 114.558C135.705 114.721 135.831 114.83 135.983 114.886C136.139 114.939 136.303 114.966 136.476 114.966C136.605 114.966 136.711 114.959 136.794 114.946C136.877 114.929 136.943 114.916 136.993 114.906L137.231 115.96C137.152 115.99 137.041 116.02 136.898 116.05C136.756 116.083 136.575 116.099 136.356 116.099C136.025 116.099 135.7 116.028 135.382 115.886C135.067 115.743 134.805 115.526 134.596 115.234C134.391 114.943 134.288 114.575 134.288 114.131V106.534ZM141.104 116.179C140.62 116.179 140.181 116.088 139.787 115.906C139.392 115.72 139.079 115.453 138.847 115.105C138.615 114.754 138.499 114.33 138.499 113.832C138.499 113.395 138.585 113.04 138.758 112.768C138.93 112.493 139.16 112.278 139.449 112.122C139.737 111.966 140.055 111.85 140.403 111.774C140.755 111.695 141.108 111.632 141.462 111.585C141.926 111.526 142.302 111.481 142.591 111.451C142.882 111.418 143.095 111.363 143.227 111.287C143.363 111.211 143.431 111.078 143.431 110.889V110.849C143.431 110.359 143.297 109.978 143.028 109.706C142.763 109.434 142.36 109.298 141.82 109.298C141.26 109.298 140.821 109.421 140.503 109.666C140.184 109.911 139.961 110.173 139.831 110.452L138.718 110.054C138.917 109.59 139.182 109.229 139.513 108.97C139.848 108.708 140.213 108.526 140.607 108.423C141.005 108.317 141.396 108.264 141.78 108.264C142.026 108.264 142.307 108.294 142.626 108.354C142.947 108.41 143.257 108.528 143.555 108.707C143.857 108.886 144.107 109.156 144.306 109.517C144.505 109.878 144.604 110.362 144.604 110.969V116H143.431V114.966H143.371C143.292 115.132 143.159 115.309 142.974 115.498C142.788 115.687 142.541 115.848 142.233 115.98C141.925 116.113 141.548 116.179 141.104 116.179ZM141.283 115.125C141.747 115.125 142.138 115.034 142.456 114.852C142.778 114.669 143.02 114.434 143.182 114.146C143.348 113.857 143.431 113.554 143.431 113.236V112.162C143.381 112.222 143.272 112.276 143.103 112.326C142.937 112.372 142.745 112.414 142.526 112.45C142.311 112.483 142.1 112.513 141.895 112.54C141.693 112.563 141.528 112.583 141.403 112.599C141.098 112.639 140.813 112.704 140.547 112.793C140.286 112.879 140.073 113.01 139.911 113.186C139.752 113.358 139.672 113.594 139.672 113.892C139.672 114.3 139.823 114.608 140.125 114.817C140.43 115.022 140.816 115.125 141.283 115.125ZM147.919 105.818V116H146.746V105.818H147.919ZM154.006 118.864V108.364H155.139V109.577H155.278C155.364 109.444 155.484 109.275 155.636 109.07C155.792 108.861 156.014 108.675 156.302 108.513C156.594 108.347 156.988 108.264 157.486 108.264C158.129 108.264 158.695 108.425 159.186 108.746C159.676 109.068 160.059 109.524 160.334 110.114C160.609 110.704 160.747 111.4 160.747 112.202C160.747 113.01 160.609 113.711 160.334 114.305C160.059 114.895 159.678 115.352 159.191 115.677C158.704 115.998 158.142 116.159 157.506 116.159C157.015 116.159 156.622 116.078 156.327 115.915C156.032 115.75 155.805 115.562 155.646 115.354C155.487 115.142 155.364 114.966 155.278 114.827H155.179V118.864H154.006ZM155.159 112.182C155.159 112.759 155.243 113.267 155.412 113.708C155.581 114.146 155.828 114.489 156.153 114.737C156.478 114.982 156.876 115.105 157.346 115.105C157.837 115.105 158.246 114.976 158.574 114.717C158.906 114.455 159.154 114.104 159.32 113.663C159.489 113.219 159.574 112.725 159.574 112.182C159.574 111.645 159.491 111.161 159.325 110.73C159.163 110.296 158.916 109.953 158.584 109.701C158.256 109.446 157.844 109.318 157.346 109.318C156.869 109.318 156.468 109.439 156.143 109.681C155.818 109.92 155.573 110.254 155.407 110.685C155.242 111.113 155.159 111.612 155.159 112.182ZM162.537 116V108.364H163.67V109.517H163.75C163.889 109.139 164.141 108.833 164.506 108.597C164.87 108.362 165.281 108.244 165.738 108.244C165.825 108.244 165.932 108.246 166.062 108.249C166.191 108.253 166.289 108.258 166.355 108.264V109.457C166.315 109.447 166.224 109.433 166.081 109.413C165.942 109.389 165.795 109.378 165.639 109.378C165.268 109.378 164.936 109.456 164.645 109.612C164.356 109.764 164.128 109.976 163.959 110.248C163.793 110.516 163.71 110.823 163.71 111.168V116H162.537ZM167.746 116V108.364H168.919V116H167.746ZM168.342 107.091C168.114 107.091 167.916 107.013 167.751 106.857C167.588 106.701 167.507 106.514 167.507 106.295C167.507 106.077 167.588 105.889 167.751 105.734C167.916 105.578 168.114 105.5 168.342 105.5C168.571 105.5 168.767 105.578 168.929 105.734C169.095 105.889 169.178 106.077 169.178 106.295C169.178 106.514 169.095 106.701 168.929 106.857C168.767 107.013 168.571 107.091 168.342 107.091ZM174.17 116.159C173.454 116.159 172.838 115.99 172.321 115.652C171.804 115.314 171.406 114.848 171.128 114.255C170.849 113.662 170.71 112.984 170.71 112.222C170.71 111.446 170.853 110.762 171.138 110.168C171.426 109.572 171.827 109.106 172.341 108.771C172.858 108.433 173.461 108.264 174.15 108.264C174.687 108.264 175.171 108.364 175.602 108.562C176.033 108.761 176.386 109.04 176.661 109.398C176.936 109.756 177.107 110.173 177.173 110.651H176C175.91 110.303 175.711 109.994 175.403 109.726C175.098 109.454 174.687 109.318 174.17 109.318C173.713 109.318 173.312 109.437 172.967 109.676C172.626 109.911 172.359 110.245 172.167 110.675C171.978 111.103 171.883 111.605 171.883 112.182C171.883 112.772 171.976 113.286 172.162 113.723C172.351 114.161 172.616 114.5 172.957 114.742C173.302 114.984 173.706 115.105 174.17 115.105C174.475 115.105 174.752 115.052 175.001 114.946C175.249 114.84 175.46 114.688 175.632 114.489C175.804 114.29 175.927 114.051 176 113.773H177.173C177.107 114.223 176.943 114.629 176.681 114.991C176.422 115.349 176.079 115.634 175.652 115.846C175.228 116.055 174.734 116.159 174.17 116.159ZM182.09 116.159C181.354 116.159 180.72 115.997 180.186 115.672C179.656 115.344 179.246 114.886 178.958 114.3C178.673 113.71 178.53 113.024 178.53 112.241C178.53 111.459 178.673 110.77 178.958 110.173C179.246 109.573 179.647 109.106 180.161 108.771C180.678 108.433 181.281 108.264 181.971 108.264C182.368 108.264 182.761 108.33 183.149 108.463C183.537 108.596 183.89 108.811 184.208 109.109C184.526 109.404 184.78 109.795 184.969 110.283C185.157 110.77 185.252 111.37 185.252 112.082V112.58H179.366V111.565H184.059C184.059 111.134 183.973 110.75 183.8 110.412C183.631 110.074 183.389 109.807 183.074 109.612C182.763 109.416 182.395 109.318 181.971 109.318C181.503 109.318 181.099 109.434 180.758 109.666C180.42 109.895 180.159 110.193 179.977 110.561C179.795 110.929 179.704 111.323 179.704 111.744V112.42C179.704 112.997 179.803 113.486 180.002 113.887C180.204 114.285 180.484 114.588 180.842 114.797C181.2 115.002 181.616 115.105 182.09 115.105C182.398 115.105 182.677 115.062 182.925 114.976C183.177 114.886 183.394 114.754 183.577 114.578C183.759 114.399 183.9 114.177 183.999 113.912L185.133 114.23C185.013 114.615 184.813 114.953 184.531 115.244C184.249 115.533 183.901 115.758 183.487 115.92C183.073 116.08 182.607 116.159 182.09 116.159ZM192.148 105.818V116H190.974V105.818H192.148ZM194.297 116V108.364H195.47V116H194.297ZM194.893 107.091C194.664 107.091 194.467 107.013 194.301 106.857C194.139 106.701 194.058 106.514 194.058 106.295C194.058 106.077 194.139 105.889 194.301 105.734C194.467 105.578 194.664 105.5 194.893 105.5C195.122 105.5 195.317 105.578 195.48 105.734C195.645 105.889 195.728 106.077 195.728 106.295C195.728 106.514 195.645 106.701 195.48 106.857C195.317 107.013 195.122 107.091 194.893 107.091ZM203.028 110.074L201.974 110.372C201.908 110.196 201.81 110.026 201.681 109.86C201.555 109.691 201.382 109.552 201.164 109.442C200.945 109.333 200.665 109.278 200.323 109.278C199.856 109.278 199.467 109.386 199.155 109.602C198.847 109.814 198.693 110.084 198.693 110.412C198.693 110.704 198.799 110.934 199.011 111.103C199.223 111.272 199.554 111.413 200.005 111.526L201.139 111.804C201.821 111.97 202.33 112.223 202.665 112.565C203 112.903 203.167 113.339 203.167 113.872C203.167 114.31 203.041 114.701 202.789 115.045C202.541 115.39 202.193 115.662 201.745 115.861C201.298 116.06 200.777 116.159 200.184 116.159C199.405 116.159 198.761 115.99 198.25 115.652C197.74 115.314 197.417 114.82 197.281 114.17L198.394 113.892C198.5 114.303 198.701 114.611 198.996 114.817C199.294 115.022 199.684 115.125 200.164 115.125C200.711 115.125 201.145 115.009 201.467 114.777C201.792 114.542 201.954 114.26 201.954 113.932C201.954 113.667 201.861 113.445 201.676 113.266C201.49 113.083 201.205 112.947 200.82 112.858L199.548 112.56C198.848 112.394 198.335 112.137 198.007 111.789C197.682 111.438 197.519 110.999 197.519 110.472C197.519 110.041 197.64 109.66 197.882 109.328C198.128 108.997 198.461 108.737 198.882 108.548C199.306 108.359 199.786 108.264 200.323 108.264C201.079 108.264 201.672 108.43 202.103 108.761C202.537 109.093 202.846 109.53 203.028 110.074ZM208.254 108.364V109.358H204.297V108.364H208.254ZM205.45 106.534H206.624V113.812C206.624 114.144 206.672 114.393 206.768 114.558C206.867 114.721 206.993 114.83 207.146 114.886C207.301 114.939 207.465 114.966 207.638 114.966C207.767 114.966 207.873 114.959 207.956 114.946C208.039 114.929 208.105 114.916 208.155 114.906L208.393 115.96C208.314 115.99 208.203 116.02 208.06 116.05C207.918 116.083 207.737 116.099 207.518 116.099C207.187 116.099 206.862 116.028 206.544 115.886C206.229 115.743 205.967 115.526 205.759 115.234C205.553 114.943 205.45 114.575 205.45 114.131V106.534ZM213.139 116.159C212.403 116.159 211.768 115.997 211.235 115.672C210.704 115.344 210.295 114.886 210.007 114.3C209.722 113.71 209.579 113.024 209.579 112.241C209.579 111.459 209.722 110.77 210.007 110.173C210.295 109.573 210.696 109.106 211.21 108.771C211.727 108.433 212.33 108.264 213.02 108.264C213.417 108.264 213.81 108.33 214.198 108.463C214.586 108.596 214.939 108.811 215.257 109.109C215.575 109.404 215.828 109.795 216.017 110.283C216.206 110.77 216.301 111.37 216.301 112.082V112.58H210.414V111.565H215.108C215.108 111.134 215.021 110.75 214.849 110.412C214.68 110.074 214.438 109.807 214.123 109.612C213.812 109.416 213.444 109.318 213.02 109.318C212.552 109.318 212.148 109.434 211.806 109.666C211.468 109.895 211.208 110.193 211.026 110.561C210.844 110.929 210.752 111.323 210.752 111.744V112.42C210.752 112.997 210.852 113.486 211.051 113.887C211.253 114.285 211.533 114.588 211.891 114.797C212.249 115.002 212.665 115.105 213.139 115.105C213.447 115.105 213.725 115.062 213.974 114.976C214.226 114.886 214.443 114.754 214.625 114.578C214.808 114.399 214.949 114.177 215.048 113.912L216.181 114.23C216.062 114.615 215.862 114.953 215.58 115.244C215.298 115.533 214.95 115.758 214.536 115.92C214.122 116.08 213.656 116.159 213.139 116.159ZM220.969 116.159C220.333 116.159 219.771 115.998 219.284 115.677C218.797 115.352 218.415 114.895 218.14 114.305C217.865 113.711 217.728 113.01 217.728 112.202C217.728 111.4 217.865 110.704 218.14 110.114C218.415 109.524 218.798 109.068 219.289 108.746C219.779 108.425 220.346 108.264 220.989 108.264C221.486 108.264 221.879 108.347 222.167 108.513C222.459 108.675 222.681 108.861 222.833 109.07C222.989 109.275 223.11 109.444 223.196 109.577H223.296V105.818H224.469V116H223.336V114.827H223.196C223.11 114.966 222.988 115.142 222.828 115.354C222.669 115.562 222.442 115.75 222.147 115.915C221.852 116.078 221.46 116.159 220.969 116.159ZM221.128 115.105C221.599 115.105 221.997 114.982 222.321 114.737C222.646 114.489 222.893 114.146 223.062 113.708C223.231 113.267 223.316 112.759 223.316 112.182C223.316 111.612 223.233 111.113 223.067 110.685C222.901 110.254 222.656 109.92 222.331 109.681C222.007 109.439 221.605 109.318 221.128 109.318C220.631 109.318 220.217 109.446 219.885 109.701C219.557 109.953 219.31 110.296 219.145 110.73C218.982 111.161 218.901 111.645 218.901 112.182C218.901 112.725 218.984 113.219 219.15 113.663C219.319 114.104 219.567 114.455 219.895 114.717C220.227 114.976 220.638 115.105 221.128 115.105ZM230.718 116V108.364H231.892V116H230.718ZM231.315 107.091C231.086 107.091 230.889 107.013 230.723 106.857C230.561 106.701 230.48 106.514 230.48 106.295C230.48 106.077 230.561 105.889 230.723 105.734C230.889 105.578 231.086 105.5 231.315 105.5C231.544 105.5 231.739 105.578 231.902 105.734C232.067 105.889 232.15 106.077 232.15 106.295C232.15 106.514 232.067 106.701 231.902 106.857C231.739 107.013 231.544 107.091 231.315 107.091ZM235.214 111.406V116H234.041V108.364H235.174V109.557H235.274C235.453 109.169 235.724 108.857 236.089 108.622C236.454 108.384 236.924 108.264 237.501 108.264C238.018 108.264 238.47 108.37 238.858 108.582C239.246 108.791 239.548 109.109 239.763 109.537C239.978 109.961 240.086 110.498 240.086 111.148V116H238.913V111.227C238.913 110.627 238.757 110.16 238.445 109.825C238.134 109.487 237.706 109.318 237.163 109.318C236.788 109.318 236.454 109.399 236.159 109.562C235.867 109.724 235.637 109.961 235.468 110.273C235.298 110.584 235.214 110.962 235.214 111.406ZM249.489 108.364V109.358H245.531V108.364H249.489ZM246.685 106.534H247.858V113.812C247.858 114.144 247.906 114.393 248.002 114.558C248.102 114.721 248.228 114.83 248.38 114.886C248.536 114.939 248.7 114.966 248.872 114.966C249.001 114.966 249.107 114.959 249.19 114.946C249.273 114.929 249.339 114.916 249.389 114.906L249.628 115.96C249.548 115.99 249.437 116.02 249.295 116.05C249.152 116.083 248.972 116.099 248.753 116.099C248.421 116.099 248.097 116.028 247.778 115.886C247.464 115.743 247.202 115.526 246.993 115.234C246.787 114.943 246.685 114.575 246.685 114.131V106.534ZM252.591 111.406V116H251.418V105.818H252.591V109.557H252.69C252.869 109.162 253.138 108.849 253.496 108.617C253.857 108.382 254.338 108.264 254.938 108.264C255.458 108.264 255.914 108.369 256.305 108.577C256.696 108.783 256.999 109.099 257.214 109.527C257.433 109.951 257.543 110.491 257.543 111.148V116H256.369V111.227C256.369 110.621 256.212 110.152 255.897 109.82C255.585 109.486 255.153 109.318 254.599 109.318C254.215 109.318 253.87 109.399 253.565 109.562C253.264 109.724 253.025 109.961 252.849 110.273C252.677 110.584 252.591 110.962 252.591 111.406ZM262.891 116.159C262.155 116.159 261.52 115.997 260.987 115.672C260.456 115.344 260.047 114.886 259.759 114.3C259.474 113.71 259.331 113.024 259.331 112.241C259.331 111.459 259.474 110.77 259.759 110.173C260.047 109.573 260.448 109.106 260.962 108.771C261.479 108.433 262.082 108.264 262.771 108.264C263.169 108.264 263.562 108.33 263.95 108.463C264.338 108.596 264.691 108.811 265.009 109.109C265.327 109.404 265.58 109.795 265.769 110.283C265.958 110.77 266.053 111.37 266.053 112.082V112.58H260.166V111.565H264.86C264.86 111.134 264.773 110.75 264.601 110.412C264.432 110.074 264.19 109.807 263.875 109.612C263.564 109.416 263.196 109.318 262.771 109.318C262.304 109.318 261.9 109.434 261.558 109.666C261.22 109.895 260.96 110.193 260.778 110.561C260.596 110.929 260.504 111.323 260.504 111.744V112.42C260.504 112.997 260.604 113.486 260.803 113.887C261.005 114.285 261.285 114.588 261.643 114.797C262.001 115.002 262.417 115.105 262.891 115.105C263.199 115.105 263.477 115.062 263.726 114.976C263.978 114.886 264.195 114.754 264.377 114.578C264.56 114.399 264.7 114.177 264.8 113.912L265.933 114.23C265.814 114.615 265.614 114.953 265.332 115.244C265.05 115.533 264.702 115.758 264.288 115.92C263.874 116.08 263.408 116.159 262.891 116.159ZM271.934 116V105.818H275.374C276.173 105.818 276.826 105.962 277.333 106.251C277.844 106.536 278.222 106.922 278.467 107.409C278.712 107.896 278.835 108.44 278.835 109.04C278.835 109.64 278.712 110.185 278.467 110.675C278.225 111.166 277.85 111.557 277.343 111.849C276.836 112.137 276.186 112.281 275.394 112.281H272.928V111.188H275.355C275.901 111.188 276.341 111.093 276.672 110.904C277.003 110.715 277.244 110.46 277.393 110.138C277.545 109.814 277.622 109.447 277.622 109.04C277.622 108.632 277.545 108.268 277.393 107.946C277.244 107.625 277.002 107.373 276.667 107.19C276.332 107.005 275.888 106.912 275.335 106.912H273.167V116H271.934ZM283.963 116H280.821V105.818H284.102C285.09 105.818 285.935 106.022 286.638 106.43C287.34 106.834 287.879 107.416 288.253 108.175C288.628 108.93 288.815 109.835 288.815 110.889C288.815 111.95 288.626 112.863 288.248 113.629C287.871 114.391 287.32 114.978 286.598 115.388C285.875 115.796 284.997 116 283.963 116ZM282.054 114.906H283.883C284.725 114.906 285.423 114.744 285.976 114.419C286.53 114.094 286.943 113.632 287.214 113.032C287.486 112.432 287.622 111.718 287.622 110.889C287.622 110.067 287.488 109.36 287.219 108.766C286.951 108.17 286.55 107.712 286.016 107.394C285.483 107.073 284.818 106.912 284.023 106.912H282.054V114.906ZM290.883 116V105.818H296.988V106.912H292.116V110.352H296.531V111.446H292.116V116H290.883ZM302.879 116V108.364H304.052V116H302.879ZM303.475 107.091C303.246 107.091 303.049 107.013 302.884 106.857C302.721 106.701 302.64 106.514 302.64 106.295C302.64 106.077 302.721 105.889 302.884 105.734C303.049 105.578 303.246 105.5 303.475 105.5C303.704 105.5 303.899 105.578 304.062 105.734C304.228 105.889 304.31 106.077 304.31 106.295C304.31 106.514 304.228 106.701 304.062 106.857C303.899 107.013 303.704 107.091 303.475 107.091ZM311.61 110.074L310.556 110.372C310.49 110.196 310.392 110.026 310.263 109.86C310.137 109.691 309.964 109.552 309.746 109.442C309.527 109.333 309.247 109.278 308.905 109.278C308.438 109.278 308.049 109.386 307.737 109.602C307.429 109.814 307.275 110.084 307.275 110.412C307.275 110.704 307.381 110.934 307.593 111.103C307.805 111.272 308.136 111.413 308.587 111.526L309.721 111.804C310.403 111.97 310.912 112.223 311.247 112.565C311.582 112.903 311.749 113.339 311.749 113.872C311.749 114.31 311.623 114.701 311.371 115.045C311.123 115.39 310.775 115.662 310.327 115.861C309.88 116.06 309.359 116.159 308.766 116.159C307.987 116.159 307.343 115.99 306.832 115.652C306.322 115.314 305.999 114.82 305.863 114.17L306.976 113.892C307.082 114.303 307.283 114.611 307.578 114.817C307.876 115.022 308.266 115.125 308.746 115.125C309.293 115.125 309.727 115.009 310.049 114.777C310.374 114.542 310.536 114.26 310.536 113.932C310.536 113.667 310.443 113.445 310.258 113.266C310.072 113.083 309.787 112.947 309.403 112.858L308.13 112.56C307.43 112.394 306.917 112.137 306.589 111.789C306.264 111.438 306.101 110.999 306.101 110.472C306.101 110.041 306.222 109.66 306.464 109.328C306.71 108.997 307.043 108.737 307.464 108.548C307.888 108.359 308.368 108.264 308.905 108.264C309.661 108.264 310.254 108.43 310.685 108.761C311.119 109.093 311.428 109.53 311.61 110.074ZM320.436 117.273V104.545H321.251V117.273H320.436ZM323.18 108.364C323.12 107.86 322.878 107.469 322.454 107.19C322.03 106.912 321.51 106.773 320.893 106.773C320.442 106.773 320.048 106.846 319.71 106.991C319.375 107.137 319.113 107.338 318.924 107.593C318.739 107.848 318.646 108.138 318.646 108.463C318.646 108.735 318.711 108.969 318.84 109.164C318.972 109.356 319.141 109.517 319.347 109.646C319.552 109.772 319.768 109.877 319.993 109.96C320.219 110.039 320.426 110.104 320.615 110.153L321.649 110.432C321.914 110.501 322.209 110.598 322.534 110.72C322.862 110.843 323.175 111.01 323.473 111.222C323.775 111.431 324.024 111.7 324.219 112.028C324.415 112.356 324.512 112.759 324.512 113.236C324.512 113.786 324.368 114.283 324.08 114.727C323.795 115.171 323.377 115.524 322.827 115.786C322.28 116.048 321.616 116.179 320.833 116.179C320.104 116.179 319.473 116.061 318.939 115.826C318.409 115.591 317.991 115.263 317.686 114.842C317.385 114.421 317.214 113.932 317.174 113.375H318.447C318.48 113.759 318.609 114.078 318.835 114.33C319.064 114.578 319.352 114.764 319.7 114.886C320.051 115.006 320.429 115.065 320.833 115.065C321.304 115.065 321.727 114.989 322.101 114.837C322.476 114.681 322.772 114.465 322.991 114.19C323.21 113.912 323.319 113.587 323.319 113.216C323.319 112.878 323.225 112.603 323.036 112.391C322.847 112.179 322.598 112.006 322.29 111.874C321.982 111.741 321.649 111.625 321.291 111.526L320.038 111.168C319.243 110.939 318.613 110.612 318.149 110.188C317.685 109.764 317.453 109.209 317.453 108.523C317.453 107.953 317.607 107.455 317.915 107.031C318.227 106.604 318.644 106.272 319.168 106.037C319.695 105.798 320.283 105.679 320.933 105.679C321.589 105.679 322.172 105.797 322.683 106.032C323.193 106.264 323.598 106.582 323.896 106.987C324.198 107.391 324.357 107.85 324.373 108.364H323.18ZM329.602 105.679C330.02 105.682 330.437 105.762 330.855 105.918C331.273 106.073 331.654 106.332 331.998 106.693C332.343 107.051 332.62 107.54 332.829 108.16C333.037 108.78 333.142 109.557 333.142 110.491C333.142 111.396 333.056 112.2 332.883 112.903C332.714 113.602 332.469 114.192 332.148 114.673C331.829 115.153 331.442 115.518 330.984 115.766C330.53 116.015 330.016 116.139 329.443 116.139C328.873 116.139 328.364 116.027 327.917 115.801C327.473 115.572 327.108 115.256 326.823 114.852C326.541 114.444 326.361 113.972 326.281 113.435H327.494C327.604 113.902 327.821 114.288 328.145 114.593C328.474 114.895 328.906 115.045 329.443 115.045C330.229 115.045 330.848 114.702 331.302 114.016C331.76 113.33 331.988 112.361 331.988 111.108H331.909C331.723 111.386 331.503 111.627 331.248 111.829C330.992 112.031 330.709 112.187 330.398 112.296C330.086 112.406 329.755 112.46 329.403 112.46C328.82 112.46 328.285 112.316 327.797 112.028C327.314 111.736 326.926 111.337 326.634 110.83C326.346 110.319 326.202 109.736 326.202 109.08C326.202 108.456 326.341 107.886 326.619 107.369C326.901 106.849 327.295 106.435 327.802 106.126C328.313 105.818 328.913 105.669 329.602 105.679ZM329.602 106.773C329.184 106.773 328.808 106.877 328.474 107.086C328.142 107.291 327.879 107.57 327.683 107.921C327.491 108.269 327.395 108.655 327.395 109.08C327.395 109.504 327.488 109.89 327.673 110.238C327.862 110.583 328.119 110.858 328.444 111.063C328.772 111.265 329.145 111.366 329.562 111.366C329.877 111.366 330.171 111.305 330.442 111.183C330.714 111.057 330.951 110.886 331.153 110.67C331.359 110.452 331.519 110.205 331.635 109.93C331.751 109.651 331.809 109.361 331.809 109.06C331.809 108.662 331.713 108.289 331.521 107.941C331.332 107.593 331.07 107.311 330.736 107.096C330.404 106.88 330.026 106.773 329.602 106.773ZM338.537 116.139C337.881 116.139 337.296 116.027 336.782 115.801C336.272 115.576 335.866 115.263 335.564 114.862C335.266 114.457 335.104 113.988 335.077 113.455H336.33C336.356 113.783 336.469 114.066 336.668 114.305C336.867 114.54 337.127 114.722 337.449 114.852C337.77 114.981 338.126 115.045 338.517 115.045C338.955 115.045 339.343 114.969 339.681 114.817C340.019 114.664 340.284 114.452 340.476 114.18C340.668 113.909 340.765 113.594 340.765 113.236C340.765 112.861 340.672 112.531 340.486 112.246C340.301 111.958 340.029 111.733 339.671 111.57C339.313 111.408 338.875 111.327 338.358 111.327H337.543V110.233H338.358C338.763 110.233 339.117 110.16 339.422 110.014C339.73 109.868 339.971 109.663 340.143 109.398C340.319 109.133 340.407 108.821 340.407 108.463C340.407 108.118 340.33 107.818 340.178 107.563C340.025 107.308 339.81 107.109 339.532 106.967C339.257 106.824 338.932 106.753 338.557 106.753C338.206 106.753 337.874 106.817 337.563 106.947C337.255 107.073 337.003 107.257 336.807 107.499C336.612 107.737 336.506 108.026 336.489 108.364H335.296C335.316 107.83 335.476 107.363 335.778 106.962C336.08 106.557 336.474 106.242 336.961 106.017C337.452 105.792 337.99 105.679 338.577 105.679C339.207 105.679 339.747 105.807 340.198 106.062C340.649 106.314 340.995 106.647 341.237 107.061C341.479 107.475 341.6 107.923 341.6 108.403C341.6 108.977 341.449 109.466 341.147 109.87C340.849 110.274 340.443 110.554 339.929 110.71V110.79C340.572 110.896 341.074 111.169 341.436 111.61C341.797 112.048 341.978 112.589 341.978 113.236C341.978 113.789 341.827 114.286 341.525 114.727C341.227 115.165 340.819 115.509 340.302 115.761C339.785 116.013 339.197 116.139 338.537 116.139ZM345.466 114.608L345.387 115.145C345.331 115.523 345.244 115.927 345.128 116.358C345.016 116.789 344.898 117.195 344.775 117.576C344.653 117.957 344.552 118.26 344.472 118.486H343.577C343.62 118.274 343.677 117.994 343.746 117.646C343.816 117.298 343.885 116.908 343.955 116.477C344.028 116.05 344.088 115.612 344.134 115.165L344.194 114.608H345.466ZM349.983 105.818V116H348.75V107.111H348.691L346.205 108.761V107.509L348.75 105.818H349.983ZM356.232 116.139C355.483 116.139 354.845 115.935 354.318 115.528C353.791 115.117 353.389 114.522 353.11 113.743C352.832 112.961 352.693 112.016 352.693 110.909C352.693 109.809 352.832 108.869 353.11 108.09C353.392 107.308 353.796 106.711 354.323 106.3C354.854 105.886 355.49 105.679 356.232 105.679C356.975 105.679 357.61 105.886 358.137 106.3C358.667 106.711 359.071 107.308 359.35 108.09C359.631 108.869 359.772 109.809 359.772 110.909C359.772 112.016 359.633 112.961 359.355 113.743C359.076 114.522 358.673 115.117 358.146 115.528C357.619 115.935 356.981 116.139 356.232 116.139ZM356.232 115.045C356.975 115.045 357.552 114.687 357.963 113.972C358.374 113.256 358.579 112.235 358.579 110.909C358.579 110.027 358.485 109.277 358.296 108.657C358.11 108.037 357.842 107.565 357.49 107.24C357.142 106.915 356.723 106.753 356.232 106.753C355.497 106.753 354.922 107.116 354.507 107.842C354.093 108.564 353.886 109.587 353.886 110.909C353.886 111.791 353.979 112.54 354.164 113.156C354.35 113.773 354.617 114.242 354.965 114.563C355.316 114.885 355.739 115.045 356.232 115.045ZM364.982 116.139C364.233 116.139 363.595 115.935 363.068 115.528C362.541 115.117 362.139 114.522 361.86 113.743C361.582 112.961 361.443 112.016 361.443 110.909C361.443 109.809 361.582 108.869 361.86 108.09C362.142 107.308 362.546 106.711 363.073 106.3C363.604 105.886 364.24 105.679 364.982 105.679C365.725 105.679 366.36 105.886 366.887 106.3C367.417 106.711 367.821 107.308 368.1 108.09C368.381 108.869 368.522 109.809 368.522 110.909C368.522 112.016 368.383 112.961 368.105 113.743C367.826 114.522 367.423 115.117 366.896 115.528C366.369 115.935 365.731 116.139 364.982 116.139ZM364.982 115.045C365.725 115.045 366.302 114.687 366.713 113.972C367.124 113.256 367.329 112.235 367.329 110.909C367.329 110.027 367.235 109.277 367.046 108.657C366.86 108.037 366.592 107.565 366.24 107.24C365.892 106.915 365.473 106.753 364.982 106.753C364.247 106.753 363.672 107.116 363.257 107.842C362.843 108.564 362.636 109.587 362.636 110.909C362.636 111.791 362.729 112.54 362.914 113.156C363.1 113.773 363.367 114.242 363.715 114.563C364.066 114.885 364.489 115.045 364.982 115.045ZM370.931 116.08C370.686 116.08 370.475 115.992 370.3 115.816C370.124 115.64 370.036 115.43 370.036 115.185C370.036 114.939 370.124 114.729 370.3 114.553C370.475 114.378 370.686 114.29 370.931 114.29C371.176 114.29 371.387 114.378 371.562 114.553C371.738 114.729 371.826 114.939 371.826 115.185C371.826 115.347 371.784 115.496 371.702 115.632C371.622 115.768 371.514 115.877 371.378 115.96C371.246 116.04 371.097 116.08 370.931 116.08Z" fill="#343541"/>
<rect x="24" y="188" width="519" height="54" rx="6" fill="white"/>
<path d="M522.942 210.058C522.784 209.902 522.586 209.792 522.37 209.74C522.154 209.689 521.928 209.698 521.717 209.767L509.525 213.833C509.299 213.905 509.099 214.042 508.951 214.227C508.802 214.412 508.712 214.637 508.692 214.873C508.671 215.11 508.721 215.347 508.835 215.555C508.95 215.763 509.123 215.932 509.333 216.042L514.392 218.542L516.892 223.617C516.992 223.815 517.146 223.982 517.336 224.098C517.526 224.215 517.744 224.276 517.967 224.275H518.05C518.288 224.257 518.516 224.169 518.703 224.02C518.89 223.871 519.029 223.67 519.1 223.442L523.225 211.283C523.299 211.073 523.311 210.847 523.261 210.63C523.211 210.413 523.1 210.215 522.942 210.058ZM510.042 214.983L520.683 211.433L514.775 217.342L510.042 214.983ZM518.025 222.958L515.658 218.225L521.567 212.317L518.025 222.958Z" fill="#1D0F74"/>
</svg>
