<svg width="22" height="22" viewBox="0 0 22 22" fill="none" xmlns="http://www.w3.org/2000/svg">
<g clip-path="url(#clip0_164_254)">
<path d="M4.33447 0.5C2.21034 0.5 0.5 2.21034 0.5 4.33447V17.6655C0.5 19.7896 2.21034 21.5 4.33447 21.5H11.5598V13.2903H9.3889V10.3346H11.5598V7.80931C11.5598 5.82534 12.8424 4.00372 15.7972 4.00372C16.9935 4.00372 17.8781 4.11857 17.8781 4.11857L17.8086 6.87876C17.8086 6.87876 16.9063 6.87023 15.9218 6.87023C14.8563 6.87023 14.6855 7.36117 14.6855 8.17618V10.3346H17.8932L17.7534 13.2903H14.6855V21.5H17.6655C19.7896 21.5 21.5 19.7897 21.5 17.6655V4.33449C21.5 2.21036 19.7896 0.500021 17.6655 0.500021H4.33445L4.33447 0.5Z" fill="#D7D7D7"/>
</g>
<defs>
<clipPath id="clip0_164_254">
<rect x="0.5" y="0.5" width="21" height="21" rx="6" fill="white"/>
</clipPath>
</defs>
</svg>
