<svg width="36" height="36" viewBox="0 0 36 36" fill="none" xmlns="http://www.w3.org/2000/svg">
<g id="Frame 1597882695">
<g id="Group">
<path id="Vector 921" d="M6.32873 9.26953C11.0622 12.4252 16.9597 21.7891 15.7193 29.2027C14.864 34.3154 7.09753 34.9625 6.21894 29.8538C5.12394 23.4867 11.3593 15.4477 19.1652 15.8163C23.4473 16.0185 27.1577 19.1602 28.8645 23.0926C30.0298 25.7774 30.4796 28.9989 28.7842 32.0814" stroke="#1F1F1F" stroke-width="4" stroke-linecap="round"/>
<path id="Ellipse 8579" d="M25.7145 6.41584C25.7145 8.85464 23.7375 10.8317 21.2987 10.8317C18.8599 10.8317 16.8828 8.85464 16.8828 6.41584C16.8828 3.97704 18.8599 2 21.2987 2C23.7375 2 25.7145 3.97704 25.7145 6.41584Z" stroke="#1F1F1F" stroke-width="4"/>
</g>
</g>
</svg>
