<svg width="22" height="22" viewBox="0 0 22 22" fill="none" xmlns="http://www.w3.org/2000/svg">
<g clip-path="url(#clip0_164_256)">
<path fill-rule="evenodd" clip-rule="evenodd" d="M15.6225 0.5C18.8687 0.5 21.5 3.1334 21.5 6.37748V15.6225C21.5 18.8687 18.8666 21.5 15.6225 21.5H6.37748C3.1313 21.5 0.5 18.8666 0.5 15.6225V6.37748C0.5 3.1313 3.1334 0.5 6.37748 0.5H15.6225ZM11 5.54C7.9844 5.54 5.54 7.9844 5.54 11C5.54 14.0156 7.9844 16.46 11 16.46C14.0156 16.46 16.46 14.0156 16.46 11C16.46 7.9844 14.0156 5.54 11 5.54ZM11 7.22C11.4964 7.22 11.9879 7.31777 12.4465 7.50773C12.9052 7.6977 13.3219 7.97613 13.6729 8.32714C14.0239 8.67814 14.3023 9.09485 14.4923 9.55346C14.6822 10.0121 14.78 10.5036 14.78 11C14.78 11.4964 14.6822 11.9879 14.4923 12.4465C14.3023 12.9052 14.0239 13.3219 13.6729 13.6729C13.3219 14.0239 12.9052 14.3023 12.4465 14.4923C11.9879 14.6822 11.4964 14.78 11 14.78C9.99748 14.78 9.03602 14.3818 8.32714 13.6729C7.61825 12.964 7.22 12.0025 7.22 11C7.22 9.99748 7.61825 9.03602 8.32714 8.32714C9.03602 7.61825 9.99748 7.22 11 7.22ZM17.09 3.44C16.7001 3.44 16.3262 3.59487 16.0506 3.87055C15.7749 4.14623 15.62 4.52013 15.62 4.91C15.62 5.29987 15.7749 5.67377 16.0506 5.94945C16.3262 6.22513 16.7001 6.38 17.09 6.38C17.4799 6.38 17.8538 6.22513 18.1294 5.94945C18.4051 5.67377 18.56 5.29987 18.56 4.91C18.56 4.52013 18.4051 4.14623 18.1294 3.87055C17.8538 3.59487 17.4799 3.44 17.09 3.44Z" fill="#D7D7D7"/>
</g>
<defs>
<clipPath id="clip0_164_256">
<rect width="21" height="21" fill="white" transform="translate(0.5 0.5)"/>
</clipPath>
</defs>
</svg>
