<svg width="128" height="32" viewBox="0 0 128 32" fill="none" xmlns="http://www.w3.org/2000/svg">
<path d="M0 16C0 10.3995 0 7.59921 1.08993 5.46009C2.04867 3.57847 3.57847 2.04867 5.46009 1.08993C7.59921 0 10.3995 0 16 0V0C21.6005 0 24.4008 0 26.5399 1.08993C28.4215 2.04867 29.9513 3.57847 30.9101 5.46009C32 7.59921 32 10.3995 32 16V28.8C32 29.9201 32 30.4802 31.782 30.908C31.5903 31.2843 31.2843 31.5903 30.908 31.782C30.4802 32 29.9201 32 28.8 32H16C10.3995 32 7.59921 32 5.46009 30.9101C3.57847 29.9513 2.04867 28.4215 1.08993 26.5399C0 24.4008 0 21.6005 0 16V16Z" fill="url(#paint0_linear_17333_169731)"/>
<path d="M11.2 9.7C11.2 9.3134 11.5134 9 11.9 9H20.1C20.4866 9 20.8 9.3134 20.8 9.7V9.7C20.8 10.0866 20.4866 10.4 20.1 10.4H11.9C11.5134 10.4 11.2 10.0866 11.2 9.7V9.7Z" fill="white" fill-opacity="0.5"/>
<path d="M9.60001 12.1C9.60001 11.7134 9.91341 11.4 10.3 11.4H21.7C22.0866 11.4 22.4 11.7134 22.4 12.1V12.1C22.4 12.4866 22.0866 12.8 21.7 12.8H10.3C9.91341 12.8 9.60001 12.4866 9.60001 12.1V12.1Z" fill="white" fill-opacity="0.75"/>
<rect x="8" y="13.8" width="16" height="9.60093" rx="1.60008" fill="white"/>
<path d="M47.06 23.37C42.54 23.37 40 20.39 40 16.05C40 11.71 42.54 8.73 47.06 8.73C50.98 8.73 53.64 11.05 53.64 14.13H51.06C50.82 12.31 49.54 10.95 47.06 10.95C44.2 10.95 42.72 12.77 42.72 16.05C42.72 19.33 44.2 21.15 47.06 21.15C49.5 21.15 50.82 19.87 51.06 17.85H53.64C53.64 20.99 51.06 23.37 47.06 23.37Z" fill="black"/>
<path d="M64.2866 23.17H61.7066V16.85C61.7066 15.45 61.2066 14.75 59.9466 14.75C58.5866 14.75 57.7066 15.73 57.7066 17.41V23.17H55.1266V8.93001H57.7066V14.33C58.2666 13.33 59.1866 12.65 60.7466 12.65C63.1066 12.65 64.2866 13.85 64.2866 16.35V23.17Z" fill="black"/>
<path d="M69.4817 23.37C67.0617 23.37 65.7617 22.15 65.7617 20.25C65.7617 18.67 66.7017 17.41 69.3017 17.21L71.4017 17.03C72.4417 16.93 72.7417 16.65 72.7417 16.11C72.7417 15.09 72.1217 14.49 70.8417 14.49C69.6417 14.49 68.9817 15.01 68.8817 16.11H66.3217C66.3217 14.01 67.6417 12.65 70.8217 12.65C74.0017 12.65 75.3217 14.01 75.3217 16.11V20.53C75.3217 21.93 75.4417 22.83 75.6417 23.17H73.3017C73.0017 22.79 72.8617 22.37 72.8617 21.57C72.2817 22.75 71.2417 23.37 69.4817 23.37ZM70.2417 21.61C71.8417 21.61 72.7417 20.39 72.7417 18.89V18.17C72.5617 18.39 72.0817 18.51 71.3817 18.57L70.1617 18.67C68.8617 18.79 68.3417 19.33 68.3417 20.07C68.3417 20.99 68.9217 21.61 70.2417 21.61Z" fill="black"/>
<path d="M81.0016 23.27C78.6616 23.27 77.8816 22.55 77.8816 20.27V14.69H76.2616V12.85H77.8816V9.73001H80.4616V12.85H82.7016V14.69H80.4616V20.37C80.4616 21.17 80.8016 21.45 81.6216 21.45L82.7016 21.43V23.17C82.2816 23.21 81.4616 23.27 81.0016 23.27Z" fill="black"/>
<path d="M89.6495 23.37C85.6895 23.37 83.7695 21.63 83.7695 18.59H86.4095C86.6295 20.47 87.4895 21.33 89.7095 21.33C91.8695 21.33 92.8095 20.41 92.8095 19.09C92.8095 18.11 92.2695 17.47 90.0895 17.15L88.2695 16.89C85.2895 16.47 84.1295 15.43 84.1295 13.11C84.1295 10.55 85.9495 8.73 89.6495 8.73C93.3495 8.73 95.1695 10.53 95.1695 13.31H92.5895C92.4095 11.63 91.4895 10.77 89.5895 10.77C87.6895 10.77 86.8495 11.65 86.8495 12.95C86.8495 13.93 87.3095 14.43 89.2095 14.69L91.0295 14.95C93.9295 15.37 95.5295 16.47 95.5295 18.93C95.5295 21.59 93.6095 23.37 89.6495 23.37Z" fill="black"/>
<path d="M99.5816 23.17H97.0016V8.93001H99.5816V23.17Z" fill="black"/>
<path d="M104.035 23.17H101.455V12.85H104.035V23.17ZM102.755 11.31C101.795 11.31 101.255 10.73 101.255 9.97001C101.255 9.21001 101.795 8.63 102.755 8.63C103.715 8.63 104.235 9.21001 104.235 9.97001C104.235 10.73 103.715 11.31 102.755 11.31Z" fill="black"/>
<path d="M110.048 23.37C107.268 23.37 105.508 21.39 105.508 18.01C105.508 14.63 107.268 12.65 110.048 12.65C111.608 12.65 112.648 13.29 113.228 14.41V8.93001H115.808V23.17H113.348V21.41C112.788 22.61 111.768 23.37 110.048 23.37ZM110.648 21.41C112.188 21.41 113.228 20.37 113.228 18.01C113.228 15.65 112.188 14.61 110.648 14.61C109.128 14.61 108.088 15.65 108.088 18.01C108.088 20.37 109.128 21.41 110.648 21.41Z" fill="black"/>
<path d="M122.525 23.37C119.165 23.37 117.285 21.27 117.285 18.01C117.285 14.83 119.085 12.65 122.405 12.65C125.745 12.65 127.545 14.85 127.545 17.89C127.545 18.11 127.525 18.31 127.505 18.55H119.865C119.945 20.65 120.945 21.61 122.525 21.61C123.805 21.61 124.645 20.97 124.945 19.91H127.325C126.885 22.03 125.305 23.37 122.525 23.37ZM122.405 14.41C120.985 14.41 120.085 15.23 119.865 16.87H124.965C124.745 15.23 123.825 14.41 122.405 14.41Z" fill="black"/>
<defs>
<linearGradient id="paint0_linear_17333_169731" x1="0" y1="0" x2="32" y2="32" gradientUnits="userSpaceOnUse">
<stop stop-color="#EE9AE5"/>
<stop offset="1" stop-color="#5961F9"/>
</linearGradient>
</defs>
</svg>
