<svg width="21" height="21" viewBox="0 0 21 21" fill="none" xmlns="http://www.w3.org/2000/svg">
<g clip-path="url(#clip0_134_72)">
<path fill-rule="evenodd" clip-rule="evenodd" d="M10.5 0C11.3977 0 12.3186 0.0288751 13.2111 0.0761251L14.2653 0.139125L15.2744 0.213938L16.2193 0.294L17.0824 0.378C18.0191 0.467615 18.9005 0.967243 19.5715 1.78899C20.2425 2.61074 20.6602 3.70196 20.7511 4.87069L20.7931 5.4285L20.8719 6.62287C20.9454 7.86056 21 9.20981 21 10.5C21 11.7902 20.9454 13.1394 20.8719 14.3771L20.7931 15.5715C20.7795 15.7631 20.7658 15.9482 20.7511 16.1293C20.6602 17.2982 20.2424 18.3896 19.5711 19.2114C18.8999 20.0332 18.0182 20.5327 17.0814 20.622L16.2204 20.7047L15.2754 20.7861L14.2653 20.8609L13.2111 20.9239C12.3079 20.9729 11.404 20.9983 10.5 21C9.59597 20.9983 8.69207 20.9729 7.7889 20.9239L6.7347 20.8609L5.72565 20.7861L4.78065 20.7047L3.91755 20.622C2.9809 20.5324 2.09953 20.0328 1.4285 19.211C0.757463 18.3893 0.339753 17.298 0.24885 16.1293L0.20685 15.5715L0.1281 14.3771C0.0478144 13.0871 0.00508622 11.7939 0 10.5C0 9.20981 0.0546 7.86056 0.1281 6.62287L0.20685 5.4285C0.2205 5.23687 0.23415 5.05181 0.24885 4.87069C0.339718 3.70217 0.757277 2.61111 1.4281 1.78939C2.09891 0.967669 2.98003 0.46791 3.9165 0.378L4.77855 0.294L5.72355 0.213938L6.73365 0.139125L7.78785 0.0761251C8.69138 0.0270807 9.59562 0.00170006 10.5 0ZM8.4 7.31719V13.6828C8.4 14.2892 8.925 14.6672 9.345 14.3653L13.755 11.1825C13.851 11.1135 13.9307 11.014 13.9861 10.8942C14.0415 10.7744 14.0707 10.6384 14.0707 10.5C14.0707 10.3616 14.0415 10.2256 13.9861 10.1058C13.9307 9.98599 13.851 9.88655 13.755 9.8175L9.345 6.636C9.2492 6.56686 9.14052 6.53047 9.0299 6.5305C8.91928 6.53052 8.81061 6.56695 8.71482 6.63613C8.61904 6.7053 8.53952 6.80479 8.48425 6.92457C8.42899 7.04436 8.39993 7.18022 8.4 7.3185V7.31719Z" fill="white"/>
</g>
<defs>
<clipPath id="clip0_134_72">
<rect width="21" height="21" fill="white"/>
</clipPath>
</defs>
</svg>
