<svg width="112" height="22" viewBox="0 0 112 22" fill="none" xmlns="http://www.w3.org/2000/svg">
<rect x="0.5" y="0.5" width="21" height="21" rx="6" fill="#D7D7D7"/>
<path d="M8.7695 15.8755C13.298 15.8755 15.7752 12.1233 15.7752 8.87502C15.7762 8.76952 15.7747 8.66402 15.7708 8.55852C16.2529 8.2092 16.6691 7.77698 17 7.28202C16.5493 7.48022 16.072 7.61112 15.5833 7.67052C16.0982 7.3628 16.4839 6.87853 16.6685 6.30777C16.185 6.59481 15.6554 6.79603 15.1032 6.90252C14.7321 6.50729 14.2411 6.24546 13.7061 6.15759C13.1711 6.06972 12.622 6.16071 12.144 6.41647C11.666 6.67223 11.2856 7.07849 11.0618 7.57231C10.8381 8.06614 10.7834 8.61997 10.9062 9.14802C9.92726 9.09917 8.96948 8.84495 8.09512 8.40189C7.22076 7.95883 6.44936 7.33683 5.831 6.57627C5.51719 7.11863 5.42146 7.76006 5.56326 8.37041C5.70505 8.98075 6.07373 9.5143 6.5945 9.86277C6.20406 9.85015 5.82214 9.7453 5.48 9.55677V9.59052C5.48095 10.1586 5.67786 10.7089 6.03749 11.1486C6.39712 11.5883 6.89744 11.8904 7.454 12.004C7.2427 12.0623 7.02442 12.0913 6.80525 12.0903C6.65069 12.0919 6.49637 12.0775 6.34475 12.0475C6.50179 12.5367 6.80808 12.9645 7.22063 13.2708C7.63317 13.5771 8.13126 13.7465 8.645 13.7553C7.77208 14.44 6.69443 14.8116 5.585 14.8105C5.38947 14.812 5.19406 14.8007 5 14.7768C6.12607 15.4949 7.43395 15.8761 8.7695 15.8755Z" fill="black"/>
<g clip-path="url(#clip0_16_52016)">
<path d="M49.3345 0.5C47.2104 0.5 45.5 2.21034 45.5 4.33447V17.6655C45.5 19.7896 47.2104 21.5 49.3345 21.5H56.5598V13.2903H54.3889V10.3346H56.5598V7.80931C56.5598 5.82534 57.8424 4.00372 60.7972 4.00372C61.9935 4.00372 62.8782 4.11857 62.8782 4.11857L62.8086 6.87876C62.8086 6.87876 61.9064 6.87023 60.9219 6.87023C59.8563 6.87023 59.6855 7.36117 59.6855 8.17618V10.3346H62.8932L62.7535 13.2903H59.6855V21.5H62.6655C64.7896 21.5 66.5 19.7897 66.5 17.6655V4.33449C66.5 2.21036 64.7896 0.500021 62.6655 0.500021H49.3345L49.3345 0.5Z" fill="#D7D7D7"/>
</g>
<g clip-path="url(#clip1_16_52016)">
<path fill-rule="evenodd" clip-rule="evenodd" d="M105.623 0.5C108.869 0.5 111.5 3.1334 111.5 6.37748V15.6225C111.5 18.8687 108.867 21.5 105.623 21.5H96.3775C93.1313 21.5 90.5 18.8666 90.5 15.6225V6.37748C90.5 3.1313 93.1334 0.5 96.3775 0.5H105.623ZM101 5.54C97.9844 5.54 95.54 7.9844 95.54 11C95.54 14.0156 97.9844 16.46 101 16.46C104.016 16.46 106.46 14.0156 106.46 11C106.46 7.9844 104.016 5.54 101 5.54ZM101 7.22C101.496 7.22 101.988 7.31777 102.447 7.50773C102.905 7.6977 103.322 7.97613 103.673 8.32714C104.024 8.67814 104.302 9.09485 104.492 9.55346C104.682 10.0121 104.78 10.5036 104.78 11C104.78 11.4964 104.682 11.9879 104.492 12.4465C104.302 12.9052 104.024 13.3219 103.673 13.6729C103.322 14.0239 102.905 14.3023 102.447 14.4923C101.988 14.6822 101.496 14.78 101 14.78C99.9975 14.78 99.036 14.3818 98.3271 13.6729C97.6182 12.964 97.22 12.0025 97.22 11C97.22 9.99748 97.6182 9.03602 98.3271 8.32714C99.036 7.61825 99.9975 7.22 101 7.22ZM107.09 3.44C106.7 3.44 106.326 3.59487 106.051 3.87055C105.775 4.14623 105.62 4.52013 105.62 4.91C105.62 5.29987 105.775 5.67377 106.051 5.94945C106.326 6.22513 106.7 6.38 107.09 6.38C107.48 6.38 107.854 6.22513 108.129 5.94945C108.405 5.67377 108.56 5.29987 108.56 4.91C108.56 4.52013 108.405 4.14623 108.129 3.87055C107.854 3.59487 107.48 3.44 107.09 3.44Z" fill="#D7D7D7"/>
</g>
<defs>
<clipPath id="clip0_16_52016">
<rect x="45.5" y="0.5" width="21" height="21" rx="6" fill="white"/>
</clipPath>
<clipPath id="clip1_16_52016">
<rect width="21" height="21" fill="white" transform="translate(90.5 0.5)"/>
</clipPath>
</defs>
</svg>
